<svg width="50" height="50" viewBox="0 0 50 50" fill="none" 
  xmlns="http://www.w3.org/2000/svg">
  <g clip-path="url(#clip0)">
    <path d="M19.7917 -0.00598145H3.125C1.39911 -0.00598145 0 1.39313 0 3.11902V19.7857C0 21.5116 1.39911 22.9107 3.125 22.9107H19.7917C21.5176 22.9107 22.9167 21.5116 22.9167 19.7857V3.11902C22.9167 1.39313 21.5176 -0.00598145 19.7917 -0.00598145Z" fill="url(#paint0_linear)"/>
    <path d="M46.875 -0.00634766H30.2083C28.4824 -0.00634766 27.0833 1.39276 27.0833 3.11865V19.7853C27.0833 21.5112 28.4824 22.9103 30.2083 22.9103H46.875C48.6009 22.9103 50 21.5112 50 19.7853V3.11865C50 1.39276 48.6009 -0.00634766 46.875 -0.00634766Z" fill="url(#paint1_linear)"/>
    <path d="M19.7917 27.077H3.125C1.39911 27.077 0 28.4761 0 30.202V46.8687C0 48.5946 1.39911 49.9937 3.125 49.9937H19.7917C21.5176 49.9937 22.9167 48.5946 22.9167 46.8687V30.202C22.9167 28.4761 21.5176 27.077 19.7917 27.077Z" fill="url(#paint2_linear)"/>
    <path d="M46.875 27.077H30.2083C28.4824 27.077 27.0833 28.4761 27.0833 30.202V46.8687C27.0833 48.5946 28.4824 49.9937 30.2083 49.9937H46.875C48.6009 49.9937 50 48.5946 50 46.8687V30.202C50 28.4761 48.6009 27.077 46.875 27.077Z" fill="url(#paint3_linear)"/>
  </g>
  <defs>
    <linearGradient id="paint0_linear" x1="0" y1="-0.00598145" x2="24.8971" y2="2.39767" gradientUnits="userSpaceOnUse">
      <stop stop-color="#004CE0"/>
      <stop offset="1" stop-color="#1DA6F3"/>
    </linearGradient>
    <linearGradient id="paint1_linear" x1="38.3758" y1="-10.1341" x2="16.6238" y2="11.6179" gradientUnits="userSpaceOnUse">
      <stop stop-color="#ECF3FE"/>
      <stop offset="1" stop-color="#C6DAFD"/>
    </linearGradient>
    <linearGradient id="paint2_linear" x1="11.2925" y1="16.9493" x2="-10.4595" y2="38.7012" gradientUnits="userSpaceOnUse">
      <stop stop-color="#ECF3FE"/>
      <stop offset="1" stop-color="#C6DAFD"/>
    </linearGradient>
    <linearGradient id="paint3_linear" x1="38.3758" y1="16.9493" x2="16.6238" y2="38.7012" gradientUnits="userSpaceOnUse">
      <stop stop-color="#ECF3FE"/>
      <stop offset="1" stop-color="#C6DAFD"/>
    </linearGradient>
    <clipPath id="clip0">
      <rect width="50" height="50" fill="white"/>
    </clipPath>
  </defs>
</svg>