<svg width="50" height="50" viewBox="0 0 50 50" fill="none" 
  xmlns="http://www.w3.org/2000/svg">
  <path d="M42.7083 25C43.2609 25 43.7908 24.7805 44.1815 24.3898C44.5722 23.9991 44.7917 23.4692 44.7917 22.9167V14.7667C44.814 13.3616 44.2782 12.005 43.3019 10.9943C42.3256 9.98362 40.9883 9.4013 39.5833 9.375H17.7083C17.1558 9.375 16.6259 9.59449 16.2352 9.98519C15.8445 10.3759 15.625 10.9058 15.625 11.4583C15.625 12.0109 15.8445 12.5408 16.2352 12.9315C16.6259 13.3222 17.1558 13.5417 17.7083 13.5417H39.5833C39.8828 13.5687 40.1597 13.7122 40.3545 13.9413C40.5493 14.1704 40.6464 14.4667 40.625 14.7667V22.9167C40.625 23.4692 40.8445 23.9991 41.2352 24.3898C41.6259 24.7805 42.1558 25 42.7083 25Z" fill="url(#paint0_linear)"/>
  <path d="M22.3958 38.5417C22.5339 38.5417 22.6664 38.5966 22.7641 38.6943C22.8617 38.7919 22.9166 38.9244 22.9166 39.0625V43.2292C22.9166 43.3673 22.8617 43.4998 22.7641 43.5975C22.6664 43.6952 22.5339 43.75 22.3958 43.75H18.7499C18.1974 43.75 17.6675 43.9695 17.2768 44.3602C16.8861 44.7509 16.6666 45.2808 16.6666 45.8334C16.6666 46.3859 16.8861 46.9158 17.2768 47.3065C17.6675 47.6972 18.1974 47.9167 18.7499 47.9167H31.2499C31.8025 47.9167 32.3324 47.6972 32.7231 47.3065C33.1138 46.9158 33.3333 46.3859 33.3333 45.8334C33.3333 45.2808 33.1138 44.7509 32.7231 44.3602C32.3324 43.9695 31.8025 43.75 31.2499 43.75H27.6041C27.466 43.75 27.3335 43.6952 27.2358 43.5975C27.1382 43.4998 27.0833 43.3673 27.0833 43.2292V39.0625C27.0833 38.9244 27.1382 38.7919 27.2358 38.6943C27.3335 38.5966 27.466 38.5417 27.6041 38.5417H32.2916C32.5679 38.5417 32.8328 38.432 33.0282 38.2366C33.2235 38.0413 33.3333 37.7763 33.3333 37.5V33.1021C33.3332 32.5709 33.4068 32.0423 33.552 31.5313C33.5955 31.3764 33.6024 31.2135 33.5724 31.0554C33.5423 30.8974 33.476 30.7484 33.3788 30.6202C33.2815 30.4921 33.1558 30.3882 33.0117 30.3167C32.8675 30.2453 32.7088 30.2082 32.5479 30.2084H10.4166C10.1403 30.2084 9.8754 30.0986 9.68005 29.9033C9.48469 29.7079 9.37495 29.443 9.37495 29.1667V26.0417C9.37495 25.4892 9.15545 24.9593 8.76475 24.5686C8.37405 24.1779 7.84415 23.9584 7.29161 23.9584C6.73908 23.9584 6.20918 24.1779 5.81847 24.5686C5.42777 24.9593 5.20828 25.4892 5.20828 26.0417V33.15C5.18597 34.5551 5.72171 35.9117 6.69804 36.9224C7.67437 37.9331 9.01161 38.5154 10.4166 38.5417H22.3958Z" fill="url(#paint1_linear)"/>
  <path d="M3.81872 20.3125H10.7646C11.6544 20.2961 12.5013 19.9274 13.1196 19.2872C13.7379 18.6471 14.077 17.7878 14.0625 16.898V3.93546C14.077 3.0456 13.7379 2.18634 13.1196 1.5462C12.5013 0.906051 11.6544 0.537308 10.7646 0.520874H3.81872C2.9289 0.537308 2.08194 0.906051 1.46367 1.5462C0.845392 2.18634 0.506304 3.0456 0.520802 3.93546V16.898C0.506304 17.7878 0.845392 18.6471 1.46367 19.2872C2.08194 19.9274 2.9289 20.2961 3.81872 20.3125ZM3.6458 3.93546C3.6458 3.75837 3.76039 3.64587 3.81872 3.64587H10.7646C10.8229 3.64587 10.9375 3.75837 10.9375 3.93546V16.898C10.9375 17.075 10.8229 17.1875 10.7646 17.1875H3.81872C3.76039 17.1875 3.6458 17.075 3.6458 16.898V3.93546Z" fill="url(#paint2_linear)"/>
  <path d="M39.2354 29.6875C38.3456 29.7039 37.4986 30.0727 36.8803 30.7128C36.2621 31.353 35.923 32.2122 35.9375 33.1021V46.3542C35.962 47.2054 36.3228 48.0121 36.941 48.5978C37.5591 49.1836 38.3841 49.5005 39.2354 49.4792H46.1812C47.0325 49.5005 47.8575 49.1836 48.4756 48.5978C49.0938 48.0121 49.4546 47.2054 49.4791 46.3542V33.1021C49.4936 32.2122 49.1545 31.353 48.5363 30.7128C47.918 30.0727 47.071 29.7039 46.1812 29.6875H39.2354ZM46.3541 33.1021V43.75C46.3541 43.8881 46.2993 44.0206 46.2016 44.1183C46.1039 44.216 45.9714 44.2708 45.8333 44.2708H39.5833C39.4452 44.2708 39.3127 44.216 39.215 44.1183C39.1173 44.0206 39.0625 43.8881 39.0625 43.75V33.1021C39.0625 32.925 39.1771 32.8125 39.2354 32.8125H46.1812C46.25 32.8125 46.3541 32.9167 46.3541 33.1021Z" fill="url(#paint3_linear)"/>
  <defs>
    <linearGradient id="paint0_linear" x1="44.7923" y1="17.2773" x2="16.2919" y2="21.6369" gradientUnits="userSpaceOnUse">
      <stop stop-color="#A539E9"/>
      <stop offset="1" stop-color="#7828E7"/>
    </linearGradient>
    <linearGradient id="paint1_linear" x1="33.5907" y1="36.0752" x2="5.4726" y2="38.8049" gradientUnits="userSpaceOnUse">
      <stop stop-color="#A539E9"/>
      <stop offset="1" stop-color="#7828E7"/>
    </linearGradient>
    <linearGradient id="paint2_linear" x1="7.19361" y1="-8.22583" x2="-10.3166" y2="3.75563" gradientUnits="userSpaceOnUse">
      <stop stop-color="#ECF3FE"/>
      <stop offset="1" stop-color="#C6DAFD"/>
    </linearGradient>
    <linearGradient id="paint3_linear" x1="42.6103" y1="20.9404" x2="25.0995" y2="32.9216" gradientUnits="userSpaceOnUse">
      <stop stop-color="#ECF3FE"/>
      <stop offset="1" stop-color="#C6DAFD"/>
    </linearGradient>
  </defs>
</svg>