<svg width="50" height="50" viewBox="0 0 50 50" fill="none" 
  xmlns="http://www.w3.org/2000/svg">
  <path d="M21.3541 25.1167C21.3541 23.7354 21.9029 22.4106 22.8796 21.4339C23.8564 20.4571 25.1811 19.9084 26.5625 19.9084H41.6666C41.8048 19.9084 41.9373 19.8535 42.0349 19.7558C42.1326 19.6581 42.1875 19.5257 42.1875 19.3875V6.3667C42.1875 5.5379 41.8582 4.74304 41.2722 4.15699C40.6861 3.57094 39.8913 3.2417 39.0625 3.2417H3.64581C2.81701 3.2417 2.02216 3.57094 1.4361 4.15699C0.850053 4.74304 0.520813 5.5379 0.520813 6.3667V27.2C0.520813 28.0288 0.850053 28.8237 1.4361 29.4097C2.02216 29.9958 2.81701 30.325 3.64581 30.325H6.77081V37.6167C6.77044 37.823 6.83134 38.0247 6.94577 38.1964C7.06021 38.368 7.22303 38.5018 7.4136 38.5808C7.60417 38.6598 7.8139 38.6805 8.01621 38.6401C8.21852 38.5998 8.40429 38.5003 8.54998 38.3542L16.5771 30.325H20.8333C20.9714 30.325 21.1039 30.2702 21.2016 30.1725C21.2993 30.0748 21.3541 29.9423 21.3541 29.8042V25.1167Z" fill="url(#paint0_linear)"/>
  <path d="M47.3959 23.0334H26.5625C26.01 23.0334 25.4801 23.2529 25.0894 23.6436C24.6987 24.0343 24.4792 24.5642 24.4792 25.1168V37.6168C24.4792 38.1693 24.6987 38.6992 25.0894 39.0899C25.4801 39.4806 26.01 39.7001 26.5625 39.7001H35.9375L43.5792 46.4918C43.7292 46.625 43.9145 46.712 44.1128 46.7425C44.3111 46.7729 44.5139 46.7455 44.697 46.6634C44.88 46.5813 45.0355 46.4482 45.1447 46.2799C45.2539 46.1116 45.3122 45.9153 45.3125 45.7147V39.7001H47.3959C47.9484 39.7001 48.4783 39.4806 48.869 39.0899C49.2597 38.6992 49.4792 38.1693 49.4792 37.6168V25.1168C49.4792 24.5642 49.2597 24.0343 48.869 23.6436C48.4783 23.2529 47.9484 23.0334 47.3959 23.0334Z" fill="url(#paint1_linear)"/>
  <defs>
    <linearGradient id="paint0_linear" x1="42.1875" y1="20.951" x2="10.5404" y2="38.758" gradientUnits="userSpaceOnUse">
      <stop stop-color="#FFC5A4"/>
      <stop offset="1" stop-color="#FF939E"/>
    </linearGradient>
    <linearGradient id="paint1_linear" x1="36.7982" y1="12.5502" x2="14.3137" y2="36.2469" gradientUnits="userSpaceOnUse">
      <stop stop-color="#ECF3FE"/>
      <stop offset="1" stop-color="#C6DAFD"/>
    </linearGradient>
  </defs>
</svg>