<svg width="41" height="40" viewBox="0 0 41 40" fill="none" xmlns="http://www.w3.org/2000/svg">
<path d="M28.175 17.9721L25.175 16.7721C25.075 16.7721 25.075 16.6721 25.075 16.5721V13.8721C25.075 13.7721 25.175 13.6721 25.175 13.6721L28.175 12.4721C28.775 12.2721 28.975 11.5721 28.775 11.0721L27.975 8.97214C27.775 8.37214 27.075 8.17214 26.575 8.37214L23.575 9.57214C23.475 9.57214 23.375 9.57214 23.375 9.57214L21.475 7.67214C21.375 7.57214 21.375 7.47214 21.475 7.47214L22.675 4.47214C22.875 3.87214 22.675 3.27214 22.075 3.07214L19.975 2.27214C19.375 2.07214 18.775 2.27214 18.575 2.87214L17.375 5.87214C17.375 5.97214 17.275 5.97214 17.175 5.97214H14.375C14.275 5.97214 14.175 5.97214 14.175 5.87214L12.975 2.87214C12.675 2.07214 11.975 1.87214 11.475 2.07214L9.375 2.87214C8.775 3.17214 8.575 3.77214 8.775 4.37214L9.975 7.37214C9.975 7.47214 9.975 7.57214 9.975 7.57214L8.075 9.47214C7.975 9.57214 7.875 9.57214 7.875 9.47214L4.875 8.27214C4.275 8.07214 3.675 8.27214 3.475 8.87214L2.575 10.9721C2.375 11.5721 2.575 12.1721 3.175 12.3721L6.175 13.5721C6.275 13.5721 6.275 13.6721 6.275 13.7721V16.4721C6.275 16.5721 6.175 16.6721 6.175 16.6721L3.175 17.8721C2.575 18.0721 2.375 18.7721 2.575 19.2721L3.475 21.3721C3.675 21.9721 4.375 22.1721 4.875 21.9721L7.875 20.7721C7.975 20.7721 8.075 20.7721 8.075 20.7721L9.975 22.6721C10.075 22.7721 10.075 22.8721 9.975 22.8721L8.775 25.8721C8.575 26.4721 8.775 27.0721 9.375 27.2721L10.375 27.6721L11.175 25.8721C11.475 25.2721 11.975 24.8721 12.575 24.8721H13.875L14.075 24.4721C14.075 24.3721 14.175 24.3721 14.275 24.3721H17.075C17.175 24.3721 17.275 24.3721 17.275 24.4721L17.475 24.8721H19.075L21.175 20.0721C21.475 19.3721 22.175 18.8721 22.875 18.8721H28.975C28.875 18.6721 28.675 18.1721 28.175 17.9721ZM15.675 19.7721C13.175 19.7721 11.075 17.7721 11.075 15.1721C11.075 12.6721 13.175 10.5721 15.675 10.5721C18.175 10.5721 20.275 12.5721 20.275 15.1721C20.275 17.6721 18.175 19.7721 15.675 19.7721Z" fill="url(#paint0_linear)"/>
<path d="M20.0756 36.5722H12.9756C12.4756 36.5722 11.9756 36.1722 11.9756 35.5722V30.7722H21.0756V35.5722C21.0756 36.1722 20.6756 36.5722 20.0756 36.5722Z" fill="url(#paint1_linear)"/>
<path d="M22.275 29.6723C22.275 30.4723 21.775 31.1723 21.075 31.4723C20.375 31.7723 19.575 31.5723 19.175 31.0723C18.875 31.3723 18.375 31.5723 17.875 31.5723C17.375 31.5723 16.875 31.3723 16.575 31.0723C16.275 31.3723 15.775 31.5723 15.275 31.5723C14.775 31.5723 14.275 31.3723 13.975 31.0723C13.775 31.2723 13.575 31.3723 13.275 31.4723C11.975 31.8723 10.875 30.8723 10.875 29.6723C10.875 29.5723 10.875 29.4723 10.875 29.4723L12.175 26.4723C12.275 26.2723 12.475 26.0723 12.675 26.0723H20.475C20.675 26.0723 20.875 26.1723 20.975 26.4723L22.275 29.4723C22.275 29.4723 22.275 29.5723 22.275 29.6723Z" fill="url(#paint2_linear)"/>
<path d="M10.7754 29.6723C10.7754 29.5723 10.7754 29.4723 10.7754 29.4723L12.0754 26.4723C12.1754 26.2723 12.3754 26.0723 12.5754 26.0723H20.3754C20.5754 26.0723 20.7754 26.1723 20.8754 26.4723L22.1754 29.4723C22.1754 29.5723 22.1754 29.6723 22.1754 29.6723C22.2754 30.4723 10.7754 30.8723 10.7754 29.6723Z" fill="url(#paint3_linear)"/>
<path d="M34.4754 36.5721H23.2754C22.3754 36.5721 21.7754 35.8721 21.7754 35.0721V27.6721H36.0754V35.0721C35.9754 35.9721 35.2754 36.5721 34.4754 36.5721Z" fill="url(#paint4_linear)"/>
<path d="M37.8752 25.6721C37.8752 26.9721 37.0752 28.0721 35.9752 28.3721C34.7752 28.7721 33.6752 28.4721 32.9752 27.7721C32.4752 28.2721 31.7752 28.5721 30.9752 28.5721C30.1752 28.5721 29.4752 28.2721 28.9752 27.7721C28.4752 28.2721 27.7752 28.5721 26.9752 28.5721C26.1752 28.5721 25.4752 28.2721 24.9752 27.7721C24.6752 28.0721 24.2752 28.2721 23.8752 28.4721C21.8752 29.0721 20.0752 27.5721 20.0752 25.6721C20.0752 25.5721 20.0752 25.4721 20.1752 25.3721L22.1752 20.6721C22.2752 20.3721 22.6752 20.1721 22.9752 20.1721H35.0752C35.4752 20.1721 35.7752 20.3721 35.8752 20.6721L37.9752 25.3721C37.7752 25.4721 37.8752 25.5721 37.8752 25.6721Z" fill="url(#paint5_linear)"/>
<path d="M19.875 25.6721C19.875 25.5721 19.875 25.4721 19.975 25.3721L21.975 20.6721C22.075 20.3721 22.475 20.1721 22.775 20.1721H34.875C35.275 20.1721 35.575 20.3721 35.675 20.6721L37.775 25.3721C37.775 25.4721 37.875 25.5721 37.875 25.7721C37.875 26.9721 19.875 27.5721 19.875 25.6721Z" fill="url(#paint6_linear)"/>
<defs>
<linearGradient id="paint0_linear" x1="2.475" y1="14.9131" x2="28.8654" y2="14.9131" gradientUnits="userSpaceOnUse">
<stop stop-color="#7763ED"/>
<stop offset="1" stop-color="#462BD9"/>
</linearGradient>
<linearGradient id="paint1_linear" x1="18.2003" y1="40.2024" x2="15.9499" y2="31.0231" gradientUnits="userSpaceOnUse">
<stop stop-color="#C6DAFD"/>
<stop offset="1" stop-color="#ECF3FE"/>
</linearGradient>
<linearGradient id="paint2_linear" x1="22.9161" y1="27.3526" x2="10.3316" y2="30.1952" gradientUnits="userSpaceOnUse">
<stop stop-color="#C6DAFD"/>
<stop offset="1" stop-color="#ECF3FE"/>
</linearGradient>
<linearGradient id="paint3_linear" x1="10.764" y1="28.238" x2="22.2576" y2="28.238" gradientUnits="userSpaceOnUse">
<stop stop-color="#C6DAFD"/>
<stop offset="1" stop-color="#ECF3FE"/>
</linearGradient>
<linearGradient id="paint4_linear" x1="31.5032" y1="42.2219" x2="27.9835" y2="27.8651" gradientUnits="userSpaceOnUse">
<stop stop-color="#C6DAFD"/>
<stop offset="1" stop-color="#ECF3FE"/>
</linearGradient>
<linearGradient id="paint5_linear" x1="38.8797" y1="22.124" x2="19.1969" y2="26.57" gradientUnits="userSpaceOnUse">
<stop stop-color="#C6DAFD"/>
<stop offset="1" stop-color="#ECF3FE"/>
</linearGradient>
<linearGradient id="paint6_linear" x1="19.8724" y1="23.5089" x2="37.849" y2="23.5089" gradientUnits="userSpaceOnUse">
<stop stop-color="#C6DAFD"/>
<stop offset="1" stop-color="#ECF3FE"/>
</linearGradient>
</defs>
</svg>
