<svg width="95" height="98" viewBox="0 0 95 98" fill="none" xmlns="http://www.w3.org/2000/svg">
<g filter="url(#filter0_d)">
<path d="M58.8203 71H51.7891C50.8186 71 50.0312 70.2131 50.0312 69.2422V36.4297C50.0312 35.4588 50.8186 34.6719 51.7891 34.6719H58.8203C59.7912 34.6719 60.5781 35.4588 60.5781 36.4297V69.2422C60.5781 70.2131 59.7912 71 58.8203 71Z" fill="url(#paint0_linear)"/>
<path d="M44.2734 71H37.2422C36.2713 71 35.4844 70.2131 35.4844 69.2422V45.8047C35.4844 44.8338 36.2713 44.0469 37.2422 44.0469H44.2734C45.2439 44.0469 46.0312 44.8338 46.0312 45.8047V69.2422C46.0312 70.2131 45.2439 71 44.2734 71Z" fill="url(#paint1_linear)"/>
<path d="M73.3672 71H66.3359C65.365 71 64.5781 70.2131 64.5781 69.2422V27.0547C64.5781 26.0838 65.365 25.2969 66.3359 25.2969H73.3672C74.3381 25.2969 75.125 26.0838 75.125 27.0547V69.2422C75.125 70.2131 74.3381 71 73.3672 71Z" fill="url(#paint2_linear)"/>
<path d="M54.6955 17.2668L47.6642 11.4074C47.6633 11.4065 47.662 11.4056 47.661 11.4047C47.6496 11.3955 47.6372 11.3873 47.6258 11.3781C47.5956 11.3543 47.5654 11.3305 47.5338 11.309C47.5168 11.2975 47.499 11.2866 47.4811 11.2756C47.4541 11.2582 47.4267 11.2412 47.3992 11.2257C47.3795 11.2142 47.3589 11.2042 47.3388 11.1936C47.3118 11.1799 47.2843 11.1666 47.2568 11.1543C47.2358 11.1447 47.2143 11.1355 47.1923 11.1268C47.1639 11.1154 47.1351 11.1053 47.1062 11.0952C47.0847 11.0879 47.0637 11.0806 47.0421 11.0742C47.0051 11.0632 46.9675 11.054 46.93 11.0453C46.9163 11.0421 46.9025 11.038 46.8883 11.0352C46.8362 11.0247 46.784 11.0169 46.7313 11.011C46.7158 11.0096 46.7002 11.0087 46.6846 11.0073C46.6443 11.0041 46.6045 11.0018 46.5642 11.0014C46.5555 11.0014 46.5473 11 46.5391 11C46.5294 11 46.5203 11.0014 46.5111 11.0014C46.4718 11.0018 46.4329 11.0041 46.394 11.0073C46.3766 11.0087 46.3596 11.0096 46.3427 11.0114C46.2987 11.0165 46.2552 11.0233 46.2118 11.0316C46.2012 11.0334 46.1907 11.0348 46.1806 11.0366C46.1303 11.0471 46.0804 11.0604 46.0305 11.0755C46.0099 11.0815 45.9897 11.0893 45.9696 11.0961C45.9398 11.1062 45.9101 11.1167 45.8808 11.1286C45.8588 11.1373 45.8373 11.1474 45.8153 11.157C45.7888 11.1694 45.7622 11.1817 45.7357 11.1955C45.7146 11.2065 45.6931 11.2179 45.6721 11.2298C45.6464 11.2444 45.6212 11.26 45.5961 11.276C45.5764 11.2884 45.5562 11.3008 45.5375 11.3145C45.5306 11.3191 45.5237 11.3227 45.5173 11.3273L37.3142 17.1867C36.5241 17.7511 36.3415 18.8488 36.9059 19.6389C37.2487 20.1191 37.7889 20.375 38.3378 20.375C38.6912 20.375 39.0482 20.2688 39.3577 20.0472L44.5144 16.3641C43.76 21.4164 41.4236 26.0751 37.7495 29.7491C33.2149 34.2837 27.1802 36.7812 20.7578 36.7812C19.7869 36.7812 19 37.5681 19 38.5391C19 39.51 19.7869 40.2969 20.7578 40.2969C28.1191 40.2969 35.0368 37.434 40.2352 32.2352C44.5853 27.8851 47.2985 22.331 48.0689 16.321L52.4451 19.9676C53.1908 20.5888 54.2991 20.4881 54.9207 19.7424C55.5424 18.9967 55.4417 17.8884 54.6955 17.2668Z" fill="url(#paint3_linear)"/>
<path d="M24.2734 58.1094C23.3044 58.1094 22.5156 57.3206 22.5156 56.3516C22.5156 55.3825 23.3044 54.5938 24.2734 54.5938H27.7891C28.76 54.5938 29.5469 53.8069 29.5469 52.8359C29.5469 51.865 28.76 51.0781 27.7891 51.0781H26.0312V50.4922C26.0312 49.5213 25.2444 48.7344 24.2734 48.7344C23.3025 48.7344 22.5156 49.5213 22.5156 50.4922V51.3802C20.4694 52.1063 19 54.06 19 56.3516C19 59.2593 21.3657 61.625 24.2734 61.625C25.2425 61.625 26.0312 62.4137 26.0312 63.3828C26.0312 64.3519 25.2425 65.1406 24.2734 65.1406H20.7578C19.7869 65.1406 19 65.9275 19 66.8984C19 67.8694 19.7869 68.6562 20.7578 68.6562H22.5156V69.2422C22.5156 70.2131 23.3025 71 24.2734 71C25.2444 71 26.0312 70.2131 26.0312 69.2422V68.3541C28.0775 67.6281 29.5469 65.6744 29.5469 63.3828C29.5469 60.4751 27.1812 58.1094 24.2734 58.1094Z" fill="#FDB913"/>
</g>
<defs>
<filter id="filter0_d" x="-2" y="0" width="98" height="98" filterUnits="userSpaceOnUse" color-interpolation-filters="sRGB">
<feFlood flood-opacity="0" result="BackgroundImageFix"/>
<feColorMatrix in="SourceAlpha" type="matrix" values="0 0 0 0 0 0 0 0 0 0 0 0 0 0 0 0 0 0 127 0"/>
<feOffset dy="8"/>
<feGaussianBlur stdDeviation="9.5"/>
<feColorMatrix type="matrix" values="0 0 0 0 0.0167708 0 0 0 0 0.356883 0 0 0 0 0.670833 0 0 0 0.1 0"/>
<feBlend mode="normal" in2="BackgroundImageFix" result="effect1_dropShadow"/>
<feBlend mode="normal" in="SourceGraphic" in2="effect1_dropShadow" result="shape"/>
</filter>
<linearGradient id="paint0_linear" x1="60.5781" y1="53.0447" x2="50.0372" y2="53.2955" gradientUnits="userSpaceOnUse">
<stop stop-color="#7763ED"/>
<stop offset="1" stop-color="#462BD9"/>
</linearGradient>
<linearGradient id="paint1_linear" x1="46.0313" y1="57.6783" x2="35.4952" y2="58.0162" gradientUnits="userSpaceOnUse">
<stop stop-color="#7763ED"/>
<stop offset="1" stop-color="#462BD9"/>
</linearGradient>
<linearGradient id="paint2_linear" x1="75.125" y1="48.4111" x2="64.5819" y2="48.6105" gradientUnits="userSpaceOnUse">
<stop stop-color="#7763ED"/>
<stop offset="1" stop-color="#462BD9"/>
</linearGradient>
<linearGradient id="paint3_linear" x1="55.3283" y1="25.6484" x2="28.4535" y2="41.5877" gradientUnits="userSpaceOnUse">
<stop stop-color="#FFC5A4"/>
<stop offset="1" stop-color="#FF939E"/>
</linearGradient>
</defs>
</svg>
