<svg width="40" height="40" viewBox="0 0 40 40" fill="none" xmlns="http://www.w3.org/2000/svg">
<path d="M39.2602 26V27.9C39.2602 28 39.2602 28.1 39.1602 28.1C39.1602 28.2 39.0602 28.3 39.0602 28.3C38.9602 28.3 38.9602 28.4 38.8602 28.4C38.7602 28.4 38.6602 28.4 38.6602 28.4H23.7602L23.6602 27.8C23.6602 27.5 23.6602 27.2 23.9602 27L28.3602 22.7C29.1602 21.9 29.4602 20.8 29.0602 19.7C28.7602 18.6 27.8602 17.9 26.6602 17.7L24.3602 17.4C24.4602 16.7 24.4602 16 24.1602 15.3C22.9602 14 21.7602 12.4 21.7602 8.3C21.6602 7.5 21.7602 6.6 22.0602 5.9C22.3602 5.1 22.7602 4.4 23.3602 3.8C23.9602 3.2 24.6602 2.7 25.3602 2.4C26.2602 2.1 27.0602 2 27.8602 2C28.6602 2 29.5602 2.1 30.2602 2.5C31.0602 2.8 31.7602 3.3 32.2602 3.9C32.8602 4.5 33.2602 5.2 33.5602 6C33.8602 6.8 33.9602 7.6 33.8602 8.4C33.8602 12.4 32.6602 14.1 31.4602 15.4C31.1602 16.2 31.1602 17 31.3602 17.9C31.4602 18.2 31.5602 18.4 31.6602 18.4L32.5602 18.7C35.7602 19.8 39.2602 21 39.2602 26Z" fill="url(#paint0_linear)"/>
<path d="M16.2603 11.3L18.9603 16.8C19.2603 17.4 19.7603 17.8 20.3603 17.8L26.4603 18.7C28.0603 18.9 28.6603 20.9 27.5603 22L23.1603 26.3C22.6603 26.7 22.4603 27.4 22.5603 28L23.5603 34.1C23.8603 35.7 22.1603 36.9 20.7603 36.1L15.2603 33.2C14.6603 32.9 14.0603 32.9 13.4603 33.2L7.96027 36.1C6.56027 36.8 4.96027 35.6 5.16027 34.1L6.16027 28C6.26027 27.4 6.06027 26.7 5.56027 26.3L1.56027 22C0.460272 20.9 1.06027 19 2.66027 18.7L8.76027 17.8C9.36027 17.7 9.96027 17.3 10.1603 16.8L12.8603 11.3C13.5603 9.9 15.5603 9.9 16.2603 11.3Z" fill="url(#paint1_linear)"/>
<defs>
<linearGradient id="paint0_linear" x1="40.6557" y1="16.2798" x2="22.0749" y2="14.9745" gradientUnits="userSpaceOnUse">
<stop stop-color="#C6DAFD"/>
<stop offset="1" stop-color="#ECF3FE"/>
</linearGradient>
<linearGradient id="paint1_linear" x1="28.8074" y1="24.536" x2="1.86207" y2="22.6432" gradientUnits="userSpaceOnUse">
<stop stop-color="#7763ED"/>
<stop offset="1" stop-color="#462BD9"/>
</linearGradient>
</defs>
</svg>
