<svg width="40" height="40" viewBox="0 0 40 40" fill="none" 
  xmlns="http://www.w3.org/2000/svg">
  <g clip-path="url(#clip0)">
    <path d="M19.9971 14.1667C21.3778 14.1667 22.4971 13.0475 22.4971 11.6667C22.4971 10.286 21.3778 9.16675 19.9971 9.16675C18.6164 9.16675 17.4971 10.286 17.4971 11.6667C17.4971 13.0475 18.6164 14.1667 19.9971 14.1667Z" fill="url(#paint0_linear)"/>
    <path d="M20.062 18.5217C20.079 18.5078 20.0914 18.489 20.0974 18.4678C20.1034 18.4466 20.1026 18.4241 20.0953 18.4033C20.0876 18.3836 20.0744 18.3665 20.0573 18.3541C20.0401 18.3417 20.0198 18.3345 19.9986 18.3333C18.6801 18.3333 17.3912 17.9423 16.2948 17.2098C15.1985 16.4773 14.344 15.4361 13.8394 14.2179C13.3348 12.9997 13.2028 11.6593 13.4601 10.3661C13.7173 9.07286 14.3522 7.88497 15.2846 6.95262C16.2169 6.02027 17.4048 5.38533 18.698 5.1281C19.9912 4.87086 21.3317 5.00289 22.5498 5.50747C23.768 6.01205 24.8092 6.86654 25.5418 7.96286C26.2743 9.05919 26.6653 10.3481 26.6653 11.6667C26.6654 12.958 26.2833 14.2205 25.567 15.295C25.5225 15.3619 25.4983 15.4402 25.4973 15.5205C25.4963 15.6008 25.5185 15.6797 25.5613 15.7477C25.6041 15.8157 25.6656 15.8698 25.7385 15.9037C25.8113 15.9375 25.8924 15.9495 25.972 15.9383C26.4779 15.8687 26.9879 15.8336 27.4986 15.8333C29.8639 15.8329 32.1727 16.5557 34.1153 17.905C34.1861 17.9554 34.2709 17.9825 34.3578 17.9825C34.4447 17.9825 34.5295 17.9554 34.6003 17.905C36.1851 16.7417 37.6692 15.4471 39.037 14.035C39.6528 13.4021 39.9974 12.5539 39.9974 11.6708C39.9974 10.7878 39.6528 9.93955 39.037 9.30667C34.6653 4.78167 27.4736 0 20.2403 0H19.752C12.517 0 5.31696 4.78333 0.958625 9.3C0.344446 9.93341 0.000976563 10.781 0.000976562 11.6633C0.000976563 12.5456 0.344446 13.3933 0.958625 14.0267C5.11061 18.4612 10.4718 21.581 16.3786 23C16.4707 23.0179 16.5662 23.0041 16.6494 22.9608C16.7326 22.9176 16.7987 22.8473 16.837 22.7617C17.5719 21.1193 18.6754 19.6684 20.062 18.5217Z" fill="url(#paint1_linear)"/>
    <path d="M39.3867 36.4501L35.5934 32.6484C35.5297 32.5835 35.4889 32.4995 35.4771 32.4093C35.4654 32.3191 35.4834 32.2275 35.5284 32.1484C36.3407 30.7541 36.767 29.1687 36.7634 27.5551C36.7634 25.7322 36.2229 23.9502 35.2101 22.4345C34.1974 20.9189 32.7579 19.7375 31.0738 19.04C29.3897 18.3424 27.5365 18.1599 25.7487 18.5155C23.9608 18.8711 22.3186 19.7489 21.0296 21.0379C19.7406 22.3269 18.8628 23.9691 18.5072 25.757C18.1516 27.5448 18.3341 29.398 19.0317 31.0821C19.7292 32.7662 20.9106 34.2057 22.4262 35.2184C23.9419 36.2312 25.7239 36.7717 27.5467 36.7717C29.1604 36.7756 30.7459 36.3493 32.1401 35.5367C32.2191 35.4914 32.3107 35.4733 32.401 35.485C32.4913 35.4967 32.5753 35.5377 32.6401 35.6017L36.4517 39.3884C36.6427 39.5837 36.8707 39.7388 37.1224 39.8448C37.3741 39.9507 37.6445 40.0053 37.9176 40.0053C38.1907 40.0053 38.461 39.9507 38.7128 39.8448C38.9645 39.7388 39.1925 39.5837 39.3834 39.3884C39.5787 39.1969 39.7339 38.9684 39.8399 38.7163C39.946 38.4642 40.0008 38.1934 40.0011 37.9199C40.0014 37.6464 39.9472 37.3756 39.8417 37.1232C39.7363 36.8708 39.5816 36.642 39.3867 36.4501ZM27.5534 33.4334C26.3898 33.4334 25.2523 33.0883 24.2848 32.4419C23.3173 31.7954 22.5632 30.8765 22.1179 29.8015C21.6726 28.7265 21.5561 27.5435 21.7831 26.4023C22.0101 25.261 22.5705 24.2127 23.3933 23.3899C24.2161 22.5671 25.2644 22.0068 26.4056 21.7798C27.5469 21.5528 28.7298 21.6693 29.8049 22.1146C30.8799 22.5599 31.7988 23.3139 32.4452 24.2814C33.0917 25.249 33.4367 26.3864 33.4367 27.5501C33.4341 29.1108 32.8125 30.6067 31.7083 31.7096C30.6041 32.8126 29.1074 33.4325 27.5467 33.4334H27.5534Z" fill="url(#paint2_linear)"/>
  </g>
  <defs>
    <linearGradient id="paint0_linear" x1="22.4971" y1="11.6955" x2="17.5304" y2="12.1025" gradientUnits="userSpaceOnUse">
      <stop stop-color="#7763ED"/>
      <stop offset="1" stop-color="#462BD9"/>
    </linearGradient>
    <linearGradient id="paint1_linear" x1="39.9974" y1="11.6361" x2="0.796452" y2="17.2203" gradientUnits="userSpaceOnUse">
      <stop stop-color="#7763ED"/>
      <stop offset="1" stop-color="#462BD9"/>
    </linearGradient>
    <linearGradient id="paint2_linear" x1="29.0087" y1="8.76294" x2="8.44299" y2="29.3326" gradientUnits="userSpaceOnUse">
      <stop stop-color="#ECF3FE"/>
      <stop offset="1" stop-color="#C6DAFD"/>
    </linearGradient>
    <clipPath id="clip0">
      <rect width="40" height="40" fill="white"/>
    </clipPath>
  </defs>
</svg>
