<svg width="60" height="60" viewBox="0 0 60 60" fill="none" xmlns="http://www.w3.org/2000/svg">
<g clip-path="url(#clip0)">
<path d="M30 2.12231C29.0284 2.12231 28.2422 2.90853 28.2422 3.88013V9.15356C28.2422 10.1252 29.0284 10.9114 30 10.9114C30.9716 10.9114 31.7578 10.1252 31.7578 9.15356V3.88013C31.7578 2.90853 30.9716 2.12231 30 2.12231Z" fill="url(#paint0_linear)"/>
<path d="M20.6959 13.1844L17.1803 9.66876C16.4936 8.98216 15.3812 8.98216 14.6946 9.66876C14.008 10.3554 14.008 11.4678 14.6946 12.1544L18.2103 15.67C18.8969 16.3566 20.0093 16.3566 20.6959 15.67C21.3825 14.9834 21.3825 13.871 20.6959 13.1844Z" fill="url(#paint1_linear)"/>
<path d="M45.3053 9.66876C44.6187 8.98216 43.5062 8.98216 42.8196 9.66876L39.304 13.1844C38.6174 13.871 38.6174 14.9834 39.304 15.67C39.9906 16.3566 41.1031 16.3566 41.7897 15.67L45.3053 12.1544C45.9919 11.4678 45.9919 10.3554 45.3053 9.66876Z" fill="url(#paint2_linear)"/>
<path d="M58.2422 26.7314H52.8516V51.3408H58.2422C59.2138 51.3408 60 50.5546 60 49.583V28.4893C60 27.5177 59.2138 26.7314 58.2422 26.7314Z" fill="url(#paint3_linear)"/>
<path d="M1.75781 26.7314C0.786211 26.7314 0 27.5177 0 28.4893V49.583C0 50.5546 0.786211 51.3408 1.75781 51.3408H7.14844V26.7314H1.75781Z" fill="url(#paint4_linear)"/>
<path d="M28.6576 28.4895C27.3169 28.4895 26.1118 29.2345 25.5128 30.4327L20.1621 41.1374C21.0581 41.5305 22.0057 41.7297 22.9739 41.7297C25.6501 41.7297 28.0586 40.238 29.2584 37.8347L30.4154 35.5208H33.8177C34.743 35.5208 35.6494 35.8967 36.3034 36.5507L49.3359 49.5833V28.4895H28.6576Z" fill="url(#paint5_linear)"/>
<path d="M33.8177 39.0363H32.5887L32.4872 39.2395C30.8268 42.5601 27.5886 44.9045 23.8882 45.207C21.1655 45.4298 19.2786 44.6465 17.0413 43.6288C16.1314 43.2152 15.7356 42.1281 16.1825 41.2341L22.3671 28.8618C23.5582 26.4789 25.9937 24.9736 28.6576 24.9736H36.2435C36.7304 23.8952 37.0312 22.7178 37.0312 21.458C37.0312 20.4864 36.245 19.7002 35.2734 19.7002H21.6264C19.6284 19.7002 17.8022 20.8288 16.9086 22.6158L15.3369 25.7594C15.039 26.355 14.4304 26.7314 13.7643 26.7314H10.6641V51.3408H18.7253L23.7052 56.3207C25.1487 57.7642 27.2278 58.22 29.0215 57.6202L44.0333 52.9012C44.9305 52.6486 45.6868 52.155 46.3037 51.5221L33.8177 39.0363Z" fill="url(#paint6_linear)"/>
</g>
<defs>
<linearGradient id="paint0_linear" x1="31.7578" y1="6.51685" x2="28.3663" y2="7.1657" gradientUnits="userSpaceOnUse">
<stop stop-color="#FFC5A4"/>
<stop offset="1" stop-color="#FF939E"/>
</linearGradient>
<linearGradient id="paint1_linear" x1="21.2109" y1="12.6694" x2="15.4887" y2="15.4063" gradientUnits="userSpaceOnUse">
<stop stop-color="#FFC5A4"/>
<stop offset="1" stop-color="#FF939E"/>
</linearGradient>
<linearGradient id="paint2_linear" x1="45.8202" y1="12.6694" x2="40.0981" y2="15.4063" gradientUnits="userSpaceOnUse">
<stop stop-color="#FFC5A4"/>
<stop offset="1" stop-color="#FF939E"/>
</linearGradient>
<linearGradient id="paint3_linear" x1="60" y1="39.0361" x2="52.9869" y2="40.0105" gradientUnits="userSpaceOnUse">
<stop stop-color="#FFC5A4"/>
<stop offset="1" stop-color="#FF939E"/>
</linearGradient>
<linearGradient id="paint4_linear" x1="7.14844" y1="39.1776" x2="0.00404781" y2="39.3476" gradientUnits="userSpaceOnUse">
<stop stop-color="#7763ED"/>
<stop offset="1" stop-color="#462BD9"/>
</linearGradient>
<linearGradient id="paint5_linear" x1="49.3359" y1="39.0364" x2="29.0425" y2="52.4607" gradientUnits="userSpaceOnUse">
<stop stop-color="#FFC5A4"/>
<stop offset="1" stop-color="#FF939E"/>
</linearGradient>
<linearGradient id="paint6_linear" x1="46.3037" y1="39.0082" x2="10.8714" y2="41.7187" gradientUnits="userSpaceOnUse">
<stop stop-color="#7763ED"/>
<stop offset="1" stop-color="#462BD9"/>
</linearGradient>
<clipPath id="clip0">
<rect width="60" height="60" fill="white"/>
</clipPath>
</defs>
</svg>
