<svg width="50" height="50" viewBox="0 0 50 50" fill="none" 
  xmlns="http://www.w3.org/2000/svg">
  <path d="M4.16667 8.46863C3.8904 8.46863 3.62545 8.57838 3.4301 8.77373C3.23475 8.96908 3.125 9.23403 3.125 9.5103V36.5936C3.125 36.8699 3.23475 37.1349 3.4301 37.3302C3.62545 37.5256 3.8904 37.6353 4.16667 37.6353H8.85417C8.9923 37.6353 9.12478 37.5804 9.22245 37.4828C9.32013 37.3851 9.375 37.2526 9.375 37.1145V8.98947C9.37528 8.92099 9.36199 8.85314 9.33592 8.78983C9.30984 8.72651 9.27148 8.66899 9.22307 8.62057C9.17465 8.57215 9.11712 8.53379 9.05381 8.50772C8.99049 8.48164 8.92264 8.46836 8.85417 8.46863H4.16667Z" fill="url(#paint0_linear)"/>
  <path d="M45.8333 8.46863H41.1458C41.0774 8.46836 41.0095 8.48164 40.9462 8.50772C40.8829 8.53379 40.8254 8.57215 40.7769 8.62057C40.7285 8.66899 40.6902 8.72651 40.6641 8.78983C40.638 8.85314 40.6247 8.92099 40.625 8.98947V33.3332C40.6247 33.4392 40.6569 33.5428 40.7172 33.6299C40.7776 33.7171 40.8632 33.7837 40.9625 33.8207L42.2521 34.304C42.7422 34.4867 43.1783 34.79 43.5202 35.1858C43.8621 35.5816 44.0988 36.0572 44.2083 36.5686C44.2462 36.7488 44.2657 36.9324 44.2667 37.1165C44.2678 37.2542 44.3231 37.3858 44.4206 37.4829C44.5181 37.58 44.6499 37.6348 44.7875 37.6353H45.8333C46.1096 37.6353 46.3746 37.5256 46.5699 37.3302C46.7653 37.1349 46.875 36.8699 46.875 36.5936V9.5103C46.875 9.23403 46.7653 8.96908 46.5699 8.77373C46.3746 8.57838 46.1096 8.46863 45.8333 8.46863Z" fill="url(#paint1_linear)"/>
  <path d="M11.4583 38.677C11.4583 39.2295 11.6778 39.7594 12.0685 40.1501C12.4592 40.5408 12.9891 40.7603 13.5416 40.7603H31.4062C31.4904 40.7603 31.5734 40.7399 31.6479 40.7008C31.7225 40.6617 31.7865 40.6051 31.8345 40.5359C31.8824 40.4667 31.9128 40.3869 31.9231 40.3033C31.9335 40.2197 31.9234 40.1349 31.8937 40.0561L30.1041 35.2811C29.8913 34.7189 29.8452 34.1073 29.9712 33.5195C30.0972 32.9318 30.3901 32.3928 30.8147 31.9673C31.2394 31.5418 31.7777 31.2478 32.3652 31.1206C32.9527 30.9933 33.5644 31.0382 34.1271 31.2499L37.8375 32.6415C37.9163 32.6707 38.001 32.6804 38.0843 32.6698C38.1677 32.6593 38.2473 32.6288 38.3164 32.581C38.3855 32.5331 38.442 32.4694 38.4812 32.3951C38.5204 32.3207 38.5412 32.2381 38.5416 32.154V7.42696C38.5416 6.87443 38.3222 6.34452 37.9314 5.95382C37.5407 5.56312 37.0108 5.34363 36.4583 5.34363H13.5416C12.9891 5.34363 12.4592 5.56312 12.0685 5.95382C11.6778 6.34452 11.4583 6.87443 11.4583 7.42696V38.677ZM27.0833 25.6561H17.7083C17.2939 25.6561 16.8965 25.4915 16.6035 25.1985C16.3104 24.9055 16.1458 24.508 16.1458 24.0936C16.1458 23.6792 16.3104 23.2818 16.6035 22.9888C16.8965 22.6957 17.2939 22.5311 17.7083 22.5311H27.0833C27.4977 22.5311 27.8951 22.6957 28.1882 22.9888C28.4812 23.2818 28.6458 23.6792 28.6458 24.0936C28.6458 24.508 28.4812 24.9055 28.1882 25.1985C27.8951 25.4915 27.4977 25.6561 27.0833 25.6561ZM32.2916 16.2811H17.7083C17.2939 16.2811 16.8965 16.1165 16.6035 15.8235C16.3104 15.5305 16.1458 15.133 16.1458 14.7186C16.1458 14.3042 16.3104 13.9068 16.6035 13.6138C16.8965 13.3207 17.2939 13.1561 17.7083 13.1561H32.2916C32.706 13.1561 33.1035 13.3207 33.3965 13.6138C33.6895 13.9068 33.8541 14.3042 33.8541 14.7186C33.8541 15.133 33.6895 15.5305 33.3965 15.8235C33.1035 16.1165 32.706 16.2811 32.2916 16.2811Z" fill="url(#paint2_linear)"/>
  <path d="M40.8146 39.7916C40.7661 39.7432 40.7276 39.6857 40.7013 39.6224C40.6751 39.5591 40.6616 39.4913 40.6616 39.4228C40.6616 39.3543 40.6751 39.2865 40.7013 39.2232C40.7276 39.1599 40.7661 39.1024 40.8146 39.0541L41.8917 37.9791C42.015 37.8558 42.1055 37.7036 42.1548 37.5363C42.204 37.369 42.2105 37.192 42.1736 37.0216C42.1367 36.8512 42.0576 36.6927 41.9435 36.5608C41.8295 36.4289 41.6841 36.3277 41.5208 36.2666L33.3958 33.2186C33.2085 33.1482 33.0048 33.1332 32.8091 33.1755C32.6135 33.2178 32.4341 33.3155 32.2926 33.4571C32.151 33.5986 32.0533 33.7779 32.011 33.9736C31.9687 34.1693 31.9837 34.373 32.0542 34.5603L35.1021 42.6853C35.1634 42.8482 35.2645 42.9932 35.3963 43.1069C35.528 43.2207 35.6862 43.2996 35.8563 43.3365C36.0264 43.3734 36.2031 43.367 36.3701 43.3181C36.5371 43.2691 36.6892 43.179 36.8125 43.0561L37.8687 41.9999C37.9664 41.9026 38.0986 41.8479 38.2364 41.8479C38.3743 41.8479 38.5065 41.9026 38.6042 41.9999L40.8146 44.2103C40.9588 44.3595 41.1312 44.4784 41.3219 44.5602C41.5126 44.642 41.7176 44.685 41.9251 44.6867C42.1326 44.6884 42.3383 44.6488 42.5303 44.5701C42.7223 44.4915 42.8967 44.3754 43.0433 44.2286C43.19 44.0818 43.3059 43.9073 43.3844 43.7153C43.4628 43.5232 43.5023 43.3174 43.5004 43.11C43.4985 42.9025 43.4553 42.6975 43.3733 42.5069C43.2913 42.3163 43.1722 42.144 43.0229 41.9999L40.8146 39.7916Z" fill="url(#paint3_linear)"/>
  <defs>
    <linearGradient id="paint0_linear" x1="6.20476" y1="-4.42125" x2="-5.13907" y2="-1.99043" gradientUnits="userSpaceOnUse">
      <stop stop-color="#ECF3FE"/>
      <stop offset="1" stop-color="#C6DAFD"/>
    </linearGradient>
    <linearGradient id="paint1_linear" x1="43.7048" y1="-4.42125" x2="32.3609" y2="-1.99043" gradientUnits="userSpaceOnUse">
      <stop stop-color="#ECF3FE"/>
      <stop offset="1" stop-color="#C6DAFD"/>
    </linearGradient>
    <linearGradient id="paint2_linear" x1="11.4583" y1="23.2555" x2="38.5416" y2="23.2555" gradientUnits="userSpaceOnUse">
      <stop stop-color="#00C5E0"/>
      <stop offset="1" stop-color="#00E0D3"/>
    </linearGradient>
    <linearGradient id="paint3_linear" x1="37.6606" y1="28.0543" x2="26.7121" y2="38.9821" gradientUnits="userSpaceOnUse">
      <stop stop-color="#ECF3FE"/>
      <stop offset="1" stop-color="#C6DAFD"/>
    </linearGradient>
  </defs>
</svg>