<svg width="40" height="40" viewBox="0 0 40 40" fill="none" 
  xmlns="http://www.w3.org/2000/svg">
  <g clip-path="url(#clip0)">
    <path d="M33.2205 27.6665L32.2805 27.3332C32.156 27.188 32.0766 27.0095 32.0521 26.8198C31.8976 26.1013 31.9309 25.3551 32.1488 24.6532C33.0349 23.6921 33.71 22.5561 34.1305 21.3183C34.551 20.0806 34.7077 18.7685 34.5905 17.4665C34.6659 16.6085 34.5588 15.7442 34.2762 14.9305C33.9936 14.1168 33.542 13.3722 32.951 12.7456C32.3599 12.119 31.643 11.6246 30.8472 11.295C30.0514 10.9654 29.1948 10.808 28.3338 10.8332C27.4058 10.8354 26.4887 11.033 25.6421 11.4132C25.5707 11.4453 25.5096 11.4969 25.466 11.562C25.4224 11.6271 25.398 11.7032 25.3955 11.7815C25.4679 14.9828 24.4774 18.1179 22.5788 20.6965C22.5401 20.7474 22.5136 20.8064 22.5012 20.8691C22.4888 20.9317 22.4908 20.9964 22.5071 21.0582C22.6189 21.478 22.7626 21.8887 22.9371 22.2865C22.9595 22.3378 22.992 22.384 23.0327 22.4223C23.0733 22.4607 23.1214 22.4905 23.1738 22.5098C27.2305 24.0098 32.5071 26.4965 32.5071 34.1665V36.6665C32.5072 36.7881 32.4989 36.9095 32.4821 37.0298C32.4748 37.0887 32.4801 37.1484 32.4976 37.205C32.5151 37.2617 32.5445 37.314 32.5837 37.3584C32.6229 37.4028 32.6712 37.4384 32.7252 37.4628C32.7793 37.4872 32.8379 37.4998 32.8971 37.4998H39.1671C39.3882 37.4998 39.6001 37.412 39.7564 37.2558C39.9127 37.0995 40.0005 36.8875 40.0005 36.6665V35.2448C40.0005 30.0765 36.3988 28.7932 33.2205 27.6665Z" fill="url(#paint0_linear)"/>
    <path d="M29.9998 34.1666C29.9998 27.5866 25.3782 25.9416 21.2982 24.4899L20.0665 24.0466C19.9548 24.0049 19.7898 23.8099 19.6632 23.3799C19.3854 22.3071 19.4324 21.176 19.7982 20.1299C21.3798 18.3883 22.9248 16.2416 22.9248 10.9033C23.0195 9.81655 22.8833 8.72209 22.5251 7.69174C22.1668 6.6614 21.5947 5.71847 20.8463 4.92487C20.0979 4.13127 19.1901 3.50495 18.1825 3.08703C17.1748 2.66911 16.0902 2.46903 14.9998 2.49995C13.909 2.46896 12.8239 2.66915 11.8159 3.08737C10.8079 3.50559 9.89984 4.13237 9.15134 4.92653C8.40283 5.72069 7.83084 6.66424 7.47296 7.69519C7.11507 8.72614 6.97939 9.82116 7.07483 10.9083C7.07483 16.2416 8.61983 18.3933 10.1932 20.1233C10.5652 21.172 10.6139 22.3082 10.3332 23.3849C10.2065 23.8099 10.0415 24.0049 9.92983 24.0516C9.50983 24.2066 9.08483 24.3583 8.65983 24.5083C4.59983 25.9449 -0.00683594 27.5749 -0.00683594 34.1749V36.6666C-0.00683594 36.8876 0.0809614 37.0996 0.237242 37.2559C0.393522 37.4121 0.605484 37.4999 0.826497 37.4999H29.1598C29.2698 37.5008 29.3789 37.4799 29.4808 37.4384C29.5827 37.3969 29.6753 37.3357 29.7534 37.2582C29.8315 37.1808 29.8935 37.0886 29.9358 36.9871C29.9781 36.8855 29.9998 36.7766 29.9998 36.6666V34.1666Z" fill="url(#paint1_linear)"/>
  </g>
  <defs>
    <linearGradient id="paint0_linear" x1="31.1201" y1="-0.955619" x2="7.89403" y2="14.2914" gradientUnits="userSpaceOnUse">
      <stop stop-color="#ECF3FE"/>
      <stop offset="1" stop-color="#C6DAFD"/>
    </linearGradient>
    <linearGradient id="paint1_linear" x1="29.9998" y1="20.1996" x2="0.140509" y2="22.2971" gradientUnits="userSpaceOnUse">
      <stop stop-color="#7763ED"/>
      <stop offset="1" stop-color="#462BD9"/>
    </linearGradient>
    <clipPath id="clip0">
      <rect width="40" height="40" fill="white"/>
    </clipPath>
  </defs>
</svg>
