<svg width="40" height="40" viewBox="0 0 40 40" fill="none" 
  xmlns="http://www.w3.org/2000/svg">
  <path d="M17.0837 20.0933C17.0837 18.9882 17.5226 17.9284 18.304 17.147C19.0854 16.3656 20.1453 15.9266 21.2503 15.9266H33.3337C33.4442 15.9266 33.5501 15.8827 33.6283 15.8046C33.7064 15.7264 33.7503 15.6204 33.7503 15.5099V5.09326C33.7503 4.43022 33.4869 3.79434 33.0181 3.32549C32.5492 2.85665 31.9134 2.59326 31.2503 2.59326H2.91699C2.25395 2.59326 1.61807 2.85665 1.14923 3.32549C0.680384 3.79434 0.416992 4.43022 0.416992 5.09326V21.7599C0.416992 22.423 0.680384 23.0589 1.14923 23.5277C1.61807 23.9965 2.25395 24.2599 2.91699 24.2599H5.41699V30.0933C5.4167 30.2583 5.46541 30.4197 5.55696 30.557C5.64851 30.6943 5.77876 30.8014 5.93122 30.8646C6.08368 30.9278 6.25146 30.9443 6.41331 30.912C6.57516 30.8797 6.72378 30.8001 6.84033 30.6833L13.262 24.2599H16.667C16.7775 24.2599 16.8835 24.216 16.9616 24.1379C17.0398 24.0597 17.0837 23.9538 17.0837 23.8433V20.0933Z" fill="url(#paint0_linear)"/>
  <path d="M37.9163 18.4268H21.2497C20.8076 18.4268 20.3837 18.6024 20.0712 18.9149C19.7586 19.2275 19.583 19.6514 19.583 20.0934V30.0934C19.583 30.5355 19.7586 30.9594 20.0712 31.2719C20.3837 31.5845 20.8076 31.7601 21.2497 31.7601H28.7497L34.863 37.1934C34.983 37.3 35.1312 37.3696 35.2899 37.394C35.4485 37.4184 35.6108 37.3964 35.7572 37.3307C35.9037 37.2651 36.0281 37.1585 36.1154 37.0239C36.2028 36.8892 36.2494 36.7323 36.2497 36.5718V31.7601H37.9163C38.3584 31.7601 38.7823 31.5845 39.0949 31.2719C39.4074 30.9594 39.583 30.5355 39.583 30.0934V20.0934C39.583 19.6514 39.4074 19.2275 39.0949 18.9149C38.7823 18.6024 38.3584 18.4268 37.9163 18.4268Z" fill="url(#paint1_linear)"/>
  <defs>
    <linearGradient id="paint0_linear" x1="33.7503" y1="16.9235" x2="0.723902" y2="20.1072" gradientUnits="userSpaceOnUse">
      <stop stop-color="#7763ED"/>
      <stop offset="1" stop-color="#462BD9"/>
    </linearGradient>
    <linearGradient id="paint1_linear" x1="29.4382" y1="10.0401" x2="11.4506" y2="28.9975" gradientUnits="userSpaceOnUse">
      <stop stop-color="#ECF3FE"/>
      <stop offset="1" stop-color="#C6DAFD"/>
    </linearGradient>
  </defs>
</svg>
