<svg width="50" height="50" viewBox="0 0 50 50" fill="none" 
  xmlns="http://www.w3.org/2000/svg">
  <g clip-path="url(#clip01)">
    <path d="M9.375 0H2.08333C1.5308 0 1.0009 0.219493 0.610194 0.610194C0.219493 1.0009 0 1.5308 0 2.08333L0 9.375C0 9.92754 0.219493 10.4574 0.610194 10.8481C1.0009 11.2388 1.5308 11.4583 2.08333 11.4583C2.63587 11.4583 3.16577 11.2388 3.55647 10.8481C3.94717 10.4574 4.16667 9.92754 4.16667 9.375V4.68333C4.16777 4.54592 4.22312 4.41452 4.32068 4.31774C4.41824 4.22096 4.55009 4.16666 4.6875 4.16667H9.375C9.92754 4.16667 10.4574 3.94717 10.8481 3.55647C11.2388 3.16577 11.4583 2.63587 11.4583 2.08333C11.4583 1.5308 11.2388 1.0009 10.8481 0.610194C10.4574 0.219493 9.92754 0 9.375 0V0Z" fill="url(#paint0_linear)"/>
    <path d="M2.08333 26.0417C2.63587 26.0417 3.16577 25.8222 3.55647 25.4315C3.94717 25.0408 4.16667 24.5109 4.16667 23.9583V17.7083C4.16667 17.1558 3.94717 16.6259 3.55647 16.2352C3.16577 15.8445 2.63587 15.625 2.08333 15.625C1.5308 15.625 1.0009 15.8445 0.610194 16.2352C0.219493 16.6259 0 17.1558 0 17.7083L0 23.9583C0 24.5109 0.219493 25.0408 0.610194 25.4315C1.0009 25.8222 1.5308 26.0417 2.08333 26.0417Z" fill="url(#paint1_linear)"/>
    <path d="M9.375 37.5H4.6875C4.54937 37.5 4.41689 37.4452 4.31922 37.3475C4.22154 37.2498 4.16667 37.1173 4.16667 36.9792V32.2917C4.16667 31.7392 3.94717 31.2093 3.55647 30.8186C3.16577 30.4279 2.63587 30.2084 2.08333 30.2084C1.5308 30.2084 1.0009 30.4279 0.610194 30.8186C0.219493 31.2093 0 31.7392 0 32.2917L0 39.5834C0 40.1359 0.219493 40.6658 0.610194 41.0565C1.0009 41.4472 1.5308 41.6667 2.08333 41.6667H9.375C9.92754 41.6667 10.4574 41.4472 10.8481 41.0565C11.2388 40.6658 11.4583 40.1359 11.4583 39.5834C11.4583 39.0308 11.2388 38.5009 10.8481 38.1102C10.4574 37.7195 9.92754 37.5 9.375 37.5Z" fill="url(#paint2_linear)"/>
    <path d="M23.9583 0H17.7083C17.1558 0 16.6259 0.219493 16.2352 0.610194C15.8445 1.0009 15.625 1.5308 15.625 2.08333C15.625 2.63587 15.8445 3.16577 16.2352 3.55647C16.6259 3.94717 17.1558 4.16667 17.7083 4.16667H23.9583C24.5109 4.16667 25.0408 3.94717 25.4315 3.55647C25.8222 3.16577 26.0417 2.63587 26.0417 2.08333C26.0417 1.5308 25.8222 1.0009 25.4315 0.610194C25.0408 0.219493 24.5109 0 23.9583 0V0Z" fill="url(#paint3_linear)"/>
    <path d="M32.2916 4.16667H36.9791C37.1173 4.16667 37.2498 4.22154 37.3474 4.31922C37.4451 4.41689 37.5 4.54937 37.5 4.6875V9.375C37.5 9.92754 37.7195 10.4574 38.1102 10.8481C38.5009 11.2388 39.0308 11.4583 39.5833 11.4583C40.1358 11.4583 40.6657 11.2388 41.0564 10.8481C41.4471 10.4574 41.6666 9.92754 41.6666 9.375V2.08333C41.6666 1.5308 41.4471 1.0009 41.0564 0.610194C40.6657 0.219493 40.1358 0 39.5833 0L32.2916 0C31.7391 0 31.2092 0.219493 30.8185 0.610194C30.4278 1.0009 30.2083 1.5308 30.2083 2.08333C30.2083 2.63587 30.4278 3.16577 30.8185 3.55647C31.2092 3.94717 31.7391 4.16667 32.2916 4.16667Z" fill="url(#paint4_linear)"/>
    <path d="M39.5833 15.625C39.0308 15.625 38.5009 15.8445 38.1102 16.2352C37.7195 16.6259 37.5 17.1558 37.5 17.7083V23.9583C37.5 24.5109 37.7195 25.0408 38.1102 25.4315C38.5009 25.8222 39.0308 26.0417 39.5833 26.0417C40.1359 26.0417 40.6658 25.8222 41.0565 25.4315C41.4472 25.0408 41.6667 24.5109 41.6667 23.9583V17.7083C41.6667 17.1558 41.4472 16.6259 41.0565 16.2352C40.6658 15.8445 40.1359 15.625 39.5833 15.625Z" fill="url(#paint5_linear)"/>
    <path d="M23.9583 37.5H17.7083C17.1558 37.5 16.6259 37.7195 16.2352 38.1102C15.8445 38.5009 15.625 39.0308 15.625 39.5833C15.625 40.1359 15.8445 40.6658 16.2352 41.0565C16.6259 41.4472 17.1558 41.6667 17.7083 41.6667H23.9583C24.5109 41.6667 25.0408 41.4472 25.4315 41.0565C25.8222 40.6658 26.0417 40.1359 26.0417 39.5833C26.0417 39.0308 25.8222 38.5009 25.4315 38.1102C25.0408 37.7195 24.5109 37.5 23.9583 37.5Z" fill="url(#paint6_linear)"/>
    <path d="M48.8125 37.6562L32.2917 29.3895C31.8878 29.1879 31.4309 29.1183 30.9853 29.1907C30.5398 29.263 30.1283 29.4736 29.809 29.7926C29.4898 30.1117 29.2789 30.523 29.2062 30.9685C29.1336 31.414 29.2028 31.871 29.4042 32.2749L37.6729 48.8104C37.8728 49.197 38.1852 49.5139 38.569 49.7194C38.9527 49.9248 39.3897 50.009 39.8223 49.9609C40.2549 49.9129 40.6627 49.7348 40.992 49.4501C41.3213 49.1655 41.5565 48.7877 41.6667 48.3666L42.9271 43.3145C42.9502 43.223 42.9976 43.1394 43.0644 43.0726C43.1311 43.0059 43.2147 42.9584 43.3062 42.9354L48.3708 41.6666C48.7974 41.5601 49.1812 41.3254 49.4704 40.9942C49.7596 40.663 49.9404 40.2512 49.9885 39.8141C50.0366 39.3771 49.9497 38.9357 49.7395 38.5496C49.5292 38.1634 49.2057 37.8509 48.8125 37.6541V37.6562Z" fill="url(#paint7_linear)"/>
  </g>
  <defs>
    <linearGradient id="paint0_linear" x1="5.64623" y1="-5.06388" x2="-5.22977" y2="5.81211" gradientUnits="userSpaceOnUse">
      <stop stop-color="#ECF3FE"/>
      <stop offset="1" stop-color="#C6DAFD"/>
    </linearGradient>
    <linearGradient id="paint1_linear" x1="2.05317" y1="11.0215" x2="-4.76563" y2="13.749" gradientUnits="userSpaceOnUse">
      <stop stop-color="#ECF3FE"/>
      <stop offset="1" stop-color="#C6DAFD"/>
    </linearGradient>
    <linearGradient id="paint2_linear" x1="5.64623" y1="25.1445" x2="-5.22976" y2="36.0205" gradientUnits="userSpaceOnUse">
      <stop stop-color="#ECF3FE"/>
      <stop offset="1" stop-color="#C6DAFD"/>
    </linearGradient>
    <linearGradient id="paint3_linear" x1="20.7579" y1="-1.84141" x2="18.0304" y2="4.97739" gradientUnits="userSpaceOnUse">
      <stop stop-color="#ECF3FE"/>
      <stop offset="1" stop-color="#C6DAFD"/>
    </linearGradient>
    <linearGradient id="paint4_linear" x1="35.8545" y1="-5.06388" x2="24.9785" y2="5.8121" gradientUnits="userSpaceOnUse">
      <stop stop-color="#ECF3FE"/>
      <stop offset="1" stop-color="#C6DAFD"/>
    </linearGradient>
    <linearGradient id="paint5_linear" x1="39.5532" y1="11.0215" x2="32.7344" y2="13.749" gradientUnits="userSpaceOnUse">
      <stop stop-color="#ECF3FE"/>
      <stop offset="1" stop-color="#C6DAFD"/>
    </linearGradient>
    <linearGradient id="paint6_linear" x1="20.7579" y1="35.6586" x2="18.0304" y2="42.4774" gradientUnits="userSpaceOnUse">
      <stop stop-color="#ECF3FE"/>
      <stop offset="1" stop-color="#C6DAFD"/>
    </linearGradient>
    <linearGradient id="paint7_linear" x1="29.1782" y1="29.1628" x2="51.8007" y2="31.3482" gradientUnits="userSpaceOnUse">
      <stop stop-color="#004CE0"/>
      <stop offset="1" stop-color="#1DA6F3"/>
    </linearGradient>
    <clipPath id="clip0">
      <rect width="50" height="50" fill="white"/>
    </clipPath>
  </defs>
</svg>