<svg width="40" height="40" viewBox="0 0 40 40" fill="none" 
  xmlns="http://www.w3.org/2000/svg">
  <g clip-path="url(#clip0)">
    <path d="M4.58488 29.5883V28.2733C4.58457 28.2004 4.60347 28.1287 4.63969 28.0654C4.67591 28.0021 4.72816 27.9495 4.79119 27.9128C4.85422 27.8762 4.9258 27.8568 4.99871 27.8565C5.07163 27.8563 5.14332 27.8754 5.20655 27.9117C7.54 29.1311 10.0618 29.9497 12.6665 30.3333C12.8999 30.3696 13.1382 30.3558 13.3658 30.293C13.5935 30.2302 13.8051 30.1197 13.9868 29.9689C14.1685 29.8181 14.3161 29.6304 14.4198 29.4182C14.5234 29.2061 14.5809 28.9743 14.5882 28.7383V28.705C14.5994 28.315 14.4688 27.9342 14.2205 27.6332C13.9722 27.3322 13.6232 27.1315 13.2382 27.0683C7.83322 26.1667 4.58488 24.0667 4.58488 22.5V21.185C4.58457 21.1121 4.60347 21.0404 4.63969 20.9771C4.67591 20.9138 4.72816 20.8612 4.79119 20.8245C4.85422 20.7878 4.9258 20.7684 4.99871 20.7682C5.07163 20.768 5.14332 20.787 5.20655 20.8233C8.16229 22.3262 11.3809 23.2431 14.6849 23.5233C14.9961 23.5592 15.311 23.5028 15.5904 23.3611C15.8698 23.2195 16.1015 22.9989 16.2565 22.7267L16.2765 22.6933C16.4161 22.4537 16.4932 22.1828 16.5008 21.9056C16.5084 21.6284 16.4462 21.3537 16.3199 21.1068C16.1936 20.8599 16.0073 20.6487 15.7782 20.4926C15.549 20.3365 15.2842 20.2404 15.0082 20.2133C8.54655 19.5233 4.58488 17.1417 4.58488 15.4167V14.1067C4.58478 14.0338 4.60379 13.9622 4.64001 13.899C4.67623 13.8357 4.72839 13.7831 4.7913 13.7463C4.85421 13.7096 4.92566 13.69 4.99852 13.6894C5.07139 13.6889 5.14311 13.7075 5.20655 13.7433C9.42324 15.7874 14.0688 16.7899 18.7532 16.6667C23.4385 16.7877 28.0845 15.7835 32.3015 13.7383C32.3645 13.7028 32.4356 13.6842 32.5079 13.6844C32.5802 13.6846 32.6512 13.7037 32.7139 13.7396C32.7767 13.7756 32.8289 13.8273 32.8656 13.8896C32.9023 13.9519 32.9222 14.0227 32.9232 14.095C32.9433 14.5639 32.9372 15.0335 32.9049 15.5017C32.8547 15.8414 32.9119 16.1884 33.0684 16.4941C33.225 16.7997 33.4732 17.0489 33.7782 17.2067L33.9132 17.2733C34.1582 17.3971 34.4309 17.456 34.7051 17.4446C34.9794 17.4332 35.2462 17.3518 35.48 17.2081C35.7139 17.0644 35.9072 16.8633 36.0413 16.6238C36.1755 16.3843 36.2462 16.1145 36.2465 15.84V8.33333C36.2465 2.92 27.2299 0 18.7465 0C10.2632 0 1.27322 2.91833 1.25488 8.32167V8.33833V29.5883C1.25488 34.0767 7.45488 36.845 14.4082 37.66C14.7016 37.6981 14.9999 37.6561 15.2713 37.5383C15.5428 37.4205 15.7772 37.2315 15.9498 36.9912C16.1225 36.7509 16.2268 36.4683 16.2517 36.1735C16.2767 35.8786 16.2213 35.5826 16.0915 35.3167L16.0715 35.28C15.9456 35.0321 15.7605 34.8191 15.5326 34.6598C15.3046 34.5005 15.041 34.3998 14.7649 34.3667C8.44488 33.6417 4.58488 31.2933 4.58488 29.5883ZM18.7532 3.33333C27.3949 3.33333 32.9116 6.28833 32.9199 8.33333V8.34833C32.8999 10.3867 27.3882 13.3333 18.7532 13.3333C10.1182 13.3333 4.58655 10.3717 4.58655 8.33333C4.58655 6.295 10.1049 3.33333 18.7532 3.33333Z" fill="url(#paint0_linear)"/>
    <path d="M27.9154 18.3333C25.7727 18.3333 23.6782 18.9686 21.8967 20.159C20.1152 21.3494 18.7266 23.0413 17.9067 25.0208C17.0867 27.0004 16.8722 29.1786 17.2902 31.2801C17.7082 33.3815 18.74 35.3118 20.255 36.8269C21.7701 38.342 23.7004 39.3738 25.8019 39.7918C27.9034 40.2098 30.0816 39.9952 32.0611 39.1753C34.0406 38.3553 35.7326 36.9668 36.923 35.1853C38.1133 33.4037 38.7487 31.3092 38.7487 29.1666C38.7452 26.2945 37.6027 23.541 35.5718 21.5102C33.5409 19.4793 30.7875 18.3368 27.9154 18.3333ZM26.667 36.2549V35.8333C26.667 35.7227 26.6231 35.6168 26.545 35.5386C26.4669 35.4605 26.3609 35.4166 26.2504 35.4166H25.417C25.0855 35.4166 24.7676 35.2849 24.5332 35.0505C24.2987 34.816 24.167 34.4981 24.167 34.1666C24.167 33.8351 24.2987 33.5171 24.5332 33.2827C24.7676 33.0483 25.0855 32.9166 25.417 32.9166H28.8054C29.0344 32.9164 29.2561 32.8366 29.4327 32.6908C29.6093 32.545 29.7297 32.3423 29.7732 32.1175C29.8167 31.8927 29.7807 31.6598 29.6714 31.4586C29.562 31.2575 29.3861 31.1006 29.1737 31.0149L25.732 29.6383C25.0363 29.361 24.4488 28.8664 24.057 28.2282C23.6651 27.5899 23.49 26.8422 23.5576 26.0963C23.6253 25.3504 23.9321 24.6464 24.4323 24.089C24.9325 23.5317 25.5995 23.1508 26.3337 23.0033C26.428 22.9843 26.5127 22.9333 26.5735 22.8588C26.6343 22.7843 26.6674 22.6911 26.667 22.5949V22.0833C26.667 21.7517 26.7987 21.4338 27.0332 21.1994C27.2676 20.9649 27.5855 20.8333 27.917 20.8333C28.2486 20.8333 28.5665 20.9649 28.8009 21.1994C29.0353 21.4338 29.167 21.7517 29.167 22.0833V22.4999C29.167 22.6104 29.2109 22.7164 29.2891 22.7945C29.3672 22.8727 29.4732 22.9166 29.5837 22.9166H30.417C30.7486 22.9166 31.0665 23.0483 31.3009 23.2827C31.5353 23.5171 31.667 23.8351 31.667 24.1666C31.667 24.4981 31.5353 24.816 31.3009 25.0505C31.0665 25.2849 30.7486 25.4166 30.417 25.4166H27.027C26.7961 25.4147 26.5719 25.4939 26.3935 25.6405C26.2151 25.7871 26.0938 25.9917 26.051 26.2186C26.0081 26.4455 26.0463 26.6803 26.1589 26.8819C26.2715 27.0835 26.4514 27.2391 26.667 27.3216L30.1087 28.6983C30.8044 28.976 31.3917 29.4712 31.7831 30.1099C32.1745 30.7487 32.349 31.4968 32.2806 32.2428C32.2122 32.9887 31.9045 33.6927 31.4035 34.2496C30.9025 34.8065 30.235 35.1866 29.5004 35.3333C29.4061 35.3522 29.3213 35.4032 29.2606 35.4777C29.1998 35.5522 29.1667 35.6454 29.167 35.7416V36.2549C29.167 36.5864 29.0353 36.9044 28.8009 37.1388C28.5665 37.3732 28.2486 37.5049 27.917 37.5049C27.5855 37.5049 27.2676 37.3732 27.0332 37.1388C26.7987 36.9044 26.667 36.5864 26.667 36.2549Z" fill="url(#paint1_linear)"/>
  </g>
  <defs>
    <linearGradient id="paint0_linear" x1="18.4974" y1="-16.6494" x2="-17.1643" y2="16.4735" gradientUnits="userSpaceOnUse">
      <stop stop-color="#ECF3FE"/>
      <stop offset="1" stop-color="#C6DAFD"/>
    </linearGradient>
    <linearGradient id="paint1_linear" x1="38.7487" y1="29.2911" x2="17.2265" y2="31.0547" gradientUnits="userSpaceOnUse">
      <stop stop-color="#7763ED"/>
      <stop offset="1" stop-color="#462BD9"/>
    </linearGradient>
    <clipPath id="clip0">
      <rect width="40" height="40" fill="white"/>
    </clipPath>
  </defs>
</svg>
