<svg width="50" height="50" viewBox="0 0 50 50" fill="none" 
  xmlns="http://www.w3.org/2000/svg">
  <path d="M33.0729 33.5937C33.0729 34.1462 33.2924 34.6761 33.6831 35.0668C34.0738 35.4576 34.6037 35.677 35.1563 35.677H43.4896C45.1472 35.677 46.7369 35.0186 47.909 33.8465C49.0811 32.6744 49.7396 31.0846 49.7396 29.427V6.51038C49.7396 4.85277 49.0811 3.26306 47.909 2.09096C46.7369 0.918856 45.1472 0.260376 43.4896 0.260376H10.1563C8.49865 0.260376 6.90894 0.918856 5.73683 2.09096C4.56473 3.26306 3.90625 4.85277 3.90625 6.51038V22.1354C3.90625 22.6879 4.12574 23.2178 4.51644 23.6085C4.90715 23.9992 5.43705 24.2187 5.98958 24.2187C6.54212 24.2187 7.07202 23.9992 7.46272 23.6085C7.85342 23.2178 8.07292 22.6879 8.07292 22.1354V11.7187C8.07292 11.1662 8.29241 10.6363 8.68311 10.2456C9.07381 9.85487 9.60372 9.63538 10.1563 9.63538H43.4896C44.0421 9.63538 44.572 9.85487 44.9627 10.2456C45.3534 10.6363 45.5729 11.1662 45.5729 11.7187V29.427C45.5729 29.9796 45.3534 30.5095 44.9627 30.9002C44.572 31.2909 44.0421 31.5104 43.4896 31.5104H35.1563C34.6037 31.5104 34.0738 31.7299 33.6831 32.1206C33.2924 32.5113 33.0729 33.0412 33.0729 33.5937ZM11.1979 7.55204C10.6454 7.55204 10.1155 7.33255 9.72478 6.94185C9.33408 6.55115 9.11458 6.02124 9.11458 5.46871C9.1165 5.17488 9.18188 4.88493 9.30625 4.61871C9.46965 4.25305 9.73499 3.94225 10.0705 3.72351C10.406 3.50477 10.7974 3.38737 11.1979 3.38538C11.5572 3.38952 11.909 3.48791 12.2184 3.67071C12.5277 3.85351 12.7835 4.11432 12.9604 4.42704C13.1608 4.73828 13.2718 5.09864 13.2813 5.46871C13.2813 6.02124 13.0618 6.55115 12.6711 6.94185C12.2804 7.33255 11.7505 7.55204 11.1979 7.55204ZM18.4896 7.55204C17.9371 7.55204 17.4071 7.33255 17.0164 6.94185C16.6257 6.55115 16.4063 6.02124 16.4063 5.46871C16.4157 5.09864 16.5267 4.73828 16.7271 4.42704C16.9009 4.11173 17.1561 3.84881 17.4661 3.6657C17.7761 3.4826 18.1295 3.38601 18.4896 3.38601C18.8496 3.38601 19.2031 3.4826 19.5131 3.6657C19.8231 3.84881 20.0783 4.11173 20.2521 4.42704C20.4525 4.73828 20.5635 5.09864 20.5729 5.46871C20.5729 6.02124 20.3534 6.55115 19.9627 6.94185C19.572 7.33255 19.0421 7.55204 18.4896 7.55204ZM25.7813 7.55204C25.2287 7.55204 24.6988 7.33255 24.3081 6.94185C23.9174 6.55115 23.6979 6.02124 23.6979 5.46871C23.7073 5.09864 23.8183 4.73828 24.0188 4.42704C24.1926 4.11173 24.4478 3.84881 24.7578 3.6657C25.0678 3.4826 25.4212 3.38601 25.7813 3.38601C26.1413 3.38601 26.4947 3.4826 26.8047 3.6657C27.1148 3.84881 27.37 4.11173 27.5438 4.42704C27.7442 4.73828 27.8552 5.09864 27.8646 5.46871C27.8646 6.02124 27.6451 6.55115 27.2544 6.94185C26.8637 7.33255 26.3338 7.55204 25.7813 7.55204Z" fill="url(#paint0_linear)"/>
  <path d="M5.9896 26.8229C4.47064 26.8245 3.01437 27.4287 1.9403 28.5027C0.86623 29.5768 0.262091 31.0331 0.260437 32.552V44.0104C0.261541 45.5295 0.865502 46.9861 1.93969 48.0603C3.01388 49.1345 4.47047 49.7384 5.9896 49.7395H23.6979C25.2171 49.7384 26.6737 49.1345 27.7479 48.0603C28.822 46.9861 29.426 45.5295 29.4271 44.0104V32.552C29.4255 31.0331 28.8213 29.5768 27.7472 28.5027C26.6732 27.4287 25.2169 26.8245 23.6979 26.8229H5.9896ZM3.38544 35.677C3.38544 35.4008 3.49518 35.1358 3.69053 34.9405C3.88588 34.7451 4.15084 34.6354 4.4271 34.6354H25.2604C25.5367 34.6354 25.8017 34.7451 25.997 34.9405C26.1924 35.1358 26.3021 35.4008 26.3021 35.677V44.0104C26.3016 44.7009 26.027 45.3629 25.5388 45.8512C25.0505 46.3395 24.3884 46.614 23.6979 46.6145H5.9896C5.29911 46.614 4.63705 46.3395 4.14879 45.8512C3.66053 45.3629 3.38599 44.7009 3.38544 44.0104V35.677Z" fill="url(#paint1_linear)"/>
  <defs>
    <linearGradient id="paint0_linear" x1="49.7396" y1="18.1723" x2="4.41594" y2="22.9786" gradientUnits="userSpaceOnUse">
      <stop stop-color="#7763ED"/>
      <stop offset="1" stop-color="#462BD9"/>
    </linearGradient>
    <linearGradient id="paint1_linear" x1="14.6326" y1="16.6951" x2="-6.50178" y2="43.5935" gradientUnits="userSpaceOnUse">
      <stop stop-color="#ECF3FE"/>
      <stop offset="1" stop-color="#C6DAFD"/>
    </linearGradient>
  </defs>
</svg>