<svg width="60" height="60" viewBox="0 0 60 60" fill="none" xmlns="http://www.w3.org/2000/svg">
<g clip-path="url(#clip0)">
<path d="M43.22 5.08472H16.7793V49.8305H43.22V5.08472Z" fill="url(#paint0_linear)"/>
<g filter="url(#filter0_d)">
<path d="M16.6377 21.3559H4.43429C3.31094 21.3559 2.40039 20.4454 2.40039 19.322V7.11862C2.40039 5.99527 3.31094 5.08472 4.43429 5.08472H16.6377C17.761 5.08472 18.6716 5.99527 18.6716 7.11862V19.322C18.6716 20.4454 17.761 21.3559 16.6377 21.3559Z" fill="url(#paint1_linear)"/>
<path d="M6.46777 10.5761L6.82256 10.8152C7.96841 11.5876 9.31485 11.9998 10.6921 11.9998V10.932C10.6921 9.94912 11.4801 9.15234 12.4521 9.15234C13.4242 9.15234 14.2122 9.94912 14.2122 10.932L15.6203 11.9998L14.2122 13.4235C14.2122 14.9961 12.9513 16.271 11.396 16.271H6.46777L7.87587 14.8473C6.97421 13.9357 6.46777 12.6992 6.46777 11.4101V10.5761Z" fill="white"/>
</g>
<g filter="url(#filter1_d)">
<path d="M36.1015 27.458H23.8982C22.7748 27.458 21.8643 26.5474 21.8643 25.4241V13.2207C21.8643 12.0973 22.7748 11.1868 23.8982 11.1868H36.1015C37.2249 11.1868 38.1354 12.0973 38.1354 13.2207V25.4241C38.1354 26.5474 37.2249 27.458 36.1015 27.458Z" fill="white"/>
<path d="M33.0509 16.271V14.2371H30.0001C29.4379 14.2371 28.9831 14.6924 28.9831 15.254V18.3049H26.9492V20.3388H28.9831V24.4065H31.017V20.3388H33.0509V18.3049H31.017V16.271H33.0509Z" fill="url(#paint2_linear)"/>
</g>
<path d="M31.0163 40.6782H28.9824V42.7121H31.0163V40.6782Z" fill="#E7F6FE"/>
<g filter="url(#filter2_d)">
<path d="M48.9354 12.2031C46.6888 12.2031 44.8676 10.3818 44.8676 8.13525H40.7998V14.237C40.7998 15.3602 41.7105 16.2708 42.8337 16.2708H55.0371C56.1603 16.2708 57.071 15.3602 57.071 14.237V8.13525H53.0032C53.0032 10.3818 51.182 12.2031 48.9354 12.2031Z" fill="url(#paint3_linear)"/>
<path d="M55.0381 0H42.8347C41.7115 0 40.8008 0.910551 40.8008 2.0339V8.13559H44.8686C44.8686 5.88903 46.6898 4.0678 48.9364 4.0678C51.1829 4.0678 53.0042 5.88903 53.0042 8.13559H57.072V2.0339C57.072 0.910551 56.1613 0 55.0381 0Z" fill="url(#paint4_linear)"/>
<path d="M48.936 12.2032C51.1825 12.2032 53.0038 10.382 53.0038 8.13542C53.0038 5.88884 51.1825 4.06763 48.936 4.06763C46.6894 4.06763 44.8682 5.88884 44.8682 8.13542C44.8682 10.382 46.6894 12.2032 48.936 12.2032Z" fill="white"/>
</g>
<path d="M20.8472 54.9153C23.6553 54.9153 25.9319 52.6387 25.9319 49.8306V48.8136C25.9319 44.3205 22.2894 40.678 17.7963 40.678H20.8472C23.6553 40.678 25.9319 38.4014 25.9319 35.5933H15.7624C14.6392 35.5933 13.7285 36.5038 13.7285 37.6272V60H29.9997V54.9153H20.8472Z" fill="url(#paint5_linear)"/>
<path d="M25.9324 49.8306C25.9324 52.6387 23.6558 54.9153 20.8477 54.9153H30.0002V60.0001H36.1019V54.9153H38.1358V49.8306H25.9324Z" fill="#B6C6E0"/>
<path d="M46.2707 39.6609H39.6605C38.2564 39.6609 37.1182 38.5227 37.1182 37.1185C37.1182 35.7144 38.2564 34.5762 39.6605 34.5762H46.2707C47.6749 34.5762 48.8131 35.7144 48.8131 37.1185C48.8131 38.5227 47.6749 39.6609 46.2707 39.6609Z" fill="url(#paint6_linear)"/>
<path d="M46.2707 44.7456H39.6605C38.2564 44.7456 37.1182 43.6074 37.1182 42.2033C37.1182 40.7991 38.2564 39.6609 39.6605 39.6609H46.2707C47.6749 39.6609 48.8131 40.7991 48.8131 42.2033C48.8131 43.6074 47.6749 44.7456 46.2707 44.7456Z" fill="url(#paint7_linear)"/>
<path d="M44.7453 49.8304H38.1351C36.731 49.8304 35.5928 48.6921 35.5928 47.288C35.5928 45.8838 36.731 44.7456 38.1351 44.7456H44.7453C46.1495 44.7456 47.2877 45.8838 47.2877 47.288C47.2877 48.6921 46.1495 49.8304 44.7453 49.8304Z" fill="url(#paint8_linear)"/>
<path d="M41.6945 54.9151H35.0844C33.6802 54.9151 32.542 53.7768 32.542 52.3727C32.542 50.9685 33.6802 49.8303 35.0844 49.8303H41.6945C43.0987 49.8303 44.2369 50.9685 44.2369 52.3727C44.2369 53.7768 43.0987 54.9151 41.6945 54.9151Z" fill="url(#paint9_linear)"/>
</g>
<defs>
<filter id="filter0_d" x="-16.5996" y="-5.91528" width="54.2712" height="54.2712" filterUnits="userSpaceOnUse" color-interpolation-filters="sRGB">
<feFlood flood-opacity="0" result="BackgroundImageFix"/>
<feColorMatrix in="SourceAlpha" type="matrix" values="0 0 0 0 0 0 0 0 0 0 0 0 0 0 0 0 0 0 127 0"/>
<feOffset dy="8"/>
<feGaussianBlur stdDeviation="9.5"/>
<feColorMatrix type="matrix" values="0 0 0 0 0.0167708 0 0 0 0 0.356883 0 0 0 0 0.670833 0 0 0 0.1 0"/>
<feBlend mode="normal" in2="BackgroundImageFix" result="effect1_dropShadow"/>
<feBlend mode="normal" in="SourceGraphic" in2="effect1_dropShadow" result="shape"/>
</filter>
<filter id="filter1_d" x="2.86426" y="0.186768" width="54.2712" height="54.2712" filterUnits="userSpaceOnUse" color-interpolation-filters="sRGB">
<feFlood flood-opacity="0" result="BackgroundImageFix"/>
<feColorMatrix in="SourceAlpha" type="matrix" values="0 0 0 0 0 0 0 0 0 0 0 0 0 0 0 0 0 0 127 0"/>
<feOffset dy="8"/>
<feGaussianBlur stdDeviation="9.5"/>
<feColorMatrix type="matrix" values="0 0 0 0 0.0167708 0 0 0 0 0.356883 0 0 0 0 0.670833 0 0 0 0.1 0"/>
<feBlend mode="normal" in2="BackgroundImageFix" result="effect1_dropShadow"/>
<feBlend mode="normal" in="SourceGraphic" in2="effect1_dropShadow" result="shape"/>
</filter>
<filter id="filter2_d" x="21.7998" y="-11" width="54.2722" height="54.2708" filterUnits="userSpaceOnUse" color-interpolation-filters="sRGB">
<feFlood flood-opacity="0" result="BackgroundImageFix"/>
<feColorMatrix in="SourceAlpha" type="matrix" values="0 0 0 0 0 0 0 0 0 0 0 0 0 0 0 0 0 0 127 0"/>
<feOffset dy="8"/>
<feGaussianBlur stdDeviation="9.5"/>
<feColorMatrix type="matrix" values="0 0 0 0 0.0167708 0 0 0 0 0.356883 0 0 0 0 0.670833 0 0 0 0.1 0"/>
<feBlend mode="normal" in2="BackgroundImageFix" result="effect1_dropShadow"/>
<feBlend mode="normal" in="SourceGraphic" in2="effect1_dropShadow" result="shape"/>
</filter>
<linearGradient id="paint0_linear" x1="43.22" y1="27.7148" x2="16.8411" y2="28.9921" gradientUnits="userSpaceOnUse">
<stop stop-color="#7763ED"/>
<stop offset="1" stop-color="#462BD9"/>
</linearGradient>
<linearGradient id="paint1_linear" x1="18.6716" y1="13.2203" x2="5.42972" y2="19.5539" gradientUnits="userSpaceOnUse">
<stop stop-color="#FFC5A4"/>
<stop offset="1" stop-color="#FF939E"/>
</linearGradient>
<linearGradient id="paint2_linear" x1="26.9492" y1="14.2371" x2="33.6176" y2="14.6233" gradientUnits="userSpaceOnUse">
<stop stop-color="#004CE0"/>
<stop offset="1" stop-color="#1DA6F3"/>
</linearGradient>
<linearGradient id="paint3_linear" x1="48.8176" y1="4.53982" x2="42.6399" y2="16.8952" gradientUnits="userSpaceOnUse">
<stop stop-color="#ECF3FE"/>
<stop offset="1" stop-color="#C6DAFD"/>
</linearGradient>
<linearGradient id="paint4_linear" x1="57.072" y1="4.0678" x2="48.5756" y2="12.1954" gradientUnits="userSpaceOnUse">
<stop stop-color="#FFC5A4"/>
<stop offset="1" stop-color="#FF939E"/>
</linearGradient>
<linearGradient id="paint5_linear" x1="21.7463" y1="24.807" x2="0.361994" y2="39.0632" gradientUnits="userSpaceOnUse">
<stop stop-color="#ECF3FE"/>
<stop offset="1" stop-color="#C6DAFD"/>
</linearGradient>
<linearGradient id="paint6_linear" x1="42.881" y1="32.329" x2="39.3514" y2="40.4471" gradientUnits="userSpaceOnUse">
<stop stop-color="#ECF3FE"/>
<stop offset="1" stop-color="#C6DAFD"/>
</linearGradient>
<linearGradient id="paint7_linear" x1="42.881" y1="37.4137" x2="39.3514" y2="45.5318" gradientUnits="userSpaceOnUse">
<stop stop-color="#ECF3FE"/>
<stop offset="1" stop-color="#C6DAFD"/>
</linearGradient>
<linearGradient id="paint8_linear" x1="41.3556" y1="42.4985" x2="37.826" y2="50.6165" gradientUnits="userSpaceOnUse">
<stop stop-color="#ECF3FE"/>
<stop offset="1" stop-color="#C6DAFD"/>
</linearGradient>
<linearGradient id="paint9_linear" x1="38.3048" y1="47.5832" x2="34.7752" y2="55.7012" gradientUnits="userSpaceOnUse">
<stop stop-color="#ECF3FE"/>
<stop offset="1" stop-color="#C6DAFD"/>
</linearGradient>
<clipPath id="clip0">
<rect width="60" height="60" fill="white"/>
</clipPath>
</defs>
</svg>
