<svg width="407" height="396" viewBox="0 0 407 396" fill="none" xmlns="http://www.w3.org/2000/svg">
<path d="M16.8858 235.228C32.4389 265.389 55.2963 317.467 159.993 320.39C223.215 322.152 270.459 298.336 300.786 301.96C356.574 308.631 385.979 279.524 393.954 216.315C398.503 180.249 411.093 115.437 345.758 99.0577C258.799 77.2565 160.707 23.9953 100.694 41.1041C1.83016 69.2796 -20.0827 163.544 16.8858 235.228Z" fill="#C6DAFA" fill-opacity="0.15"/>
<g filter="url(#filter0_d)">
<path d="M204.172 117.936C203.596 116.232 204.764 115.344 204.54 113.222C204.317 111.099 200.812 111.944 200.351 108.753C199.745 104.494 197.322 100.184 196.558 103.541C196.162 105.281 194.02 106.097 195.001 110.572C195.267 111.778 196.558 117.336 197.769 119.502" fill="#FFD6C7"/>
<path d="M207.555 151.605C207.555 145.035 205.334 124.281 205.493 120.484C205.529 119.625 205.334 118.239 204.526 117.964L197.922 117.445C195.802 117.048 195.968 118.65 195.917 120.166C195.838 122.411 195.939 124.259 195.484 129.334C194.388 141.513 194.482 153.041 196.061 155.864" fill="url(#paint0_linear)"/>
<path d="M271.49 155.864L244.588 172.056L245.006 183.772L284.743 175.254" fill="white"/>
<path d="M201.952 315.265C201.187 316.326 200.978 316.702 200.481 317.25C198.469 319.474 196.169 320.845 195.787 323.466C195.376 326.26 197.351 328.598 197.589 332.641C197.942 338.719 200.834 342.928 203.913 343.448C210.157 344.516 206.638 332.323 206.667 328.209C206.696 322.636 206.487 325.971 207.179 320.968" fill="black"/>
<path d="M201.951 315.265C201.951 315.265 200.257 318.42 200.076 318.586C195.058 323.119 199.658 325.985 198.281 331.847C196.889 337.773 200.091 339.593 202.961 340.914C207.099 342.812 207.085 337.405 207.092 333.218C207.114 325.487 208.484 322.123 210.157 317.192C210.157 317.192 206.595 315.041 201.951 315.265Z" fill="black"/>
<path d="M189.868 273.344C187.474 279.235 187.221 283.653 190.048 286.75C195.723 292.965 198.556 278.289 200.986 273.662C204.592 266.811 203.07 263.007 200.034 262.473C198.326 262.169 194.071 264.09 192.752 265.974C191.18 268.241 191.158 270.161 189.868 273.344Z" fill="black"/>
<path d="M241.956 130.215C243.326 130.208 244.155 129.789 244.537 131.11C245.403 134.106 246.174 139.73 248.878 146.833C255.75 164.909 242.158 175.998 232.964 173.521C223.771 171.045 209.472 156.355 219.582 149.056C226.078 144.364 228.717 130.302 228.717 130.302L241.956 130.215Z" fill="black"/>
<path d="M218.824 172.417C224.513 169.067 208.391 164.7 212.176 164.519C215.053 164.021 216.632 162.736 217.31 160.166C218.918 154.11 228.616 159.798 229.395 143.361C229.885 133.023 234.406 130.352 231.277 129.558C227.975 128.721 235.517 127.089 236.267 127.075C239.064 127.024 240.824 126.223 242.547 130.785C243.008 131.998 243.751 131.478 244.004 137.434C244.198 142.018 243.967 143.952 240.99 148.746C239.684 150.839 238.552 151.561 236.634 150.883C236.634 150.883 235.964 154.196 237.038 157.329C237.319 158.152 238.596 158.925 238.596 158.925C240.896 160.845 241.105 158.953 242.936 160.043C246.253 162.021 248.041 166.057 250.219 168.114C253.853 171.529 253.406 171.5 258.691 176.416C264.734 182.04 274.014 187.223 274.014 187.223L282.054 185.028" fill="#FFD6C7"/>
<path d="M238.394 190.789C238.171 191.207 237.947 191.633 237.738 192.066C235.229 197.286 239.75 204.895 241.25 209.125C241.25 209.132 244.531 219.015 244.199 224.378L210.014 219.766C211.521 214.604 216.77 204.259 216.777 204.252C219.625 200.787 221.882 195.2 221.298 189.432C221.248 188.955 217.491 182.74 217.426 182.263" fill="#FFD6C7"/>
<path d="M204.223 147.54C216.113 152.001 224.932 153.792 224.932 153.792C224.932 153.792 228.688 163.941 233.606 168.258C236.483 170.785 237.197 155.438 237.197 155.438C240.788 157.04 243.542 156.102 248.755 159.689C253.969 163.277 259.542 174.885 265.729 180.639C269.558 184.205 288.904 175.456 288.904 175.456L288.226 185.454C274.079 187.056 274.555 195.654 263.429 192.427C255.966 190.262 246.455 178.3 246.455 178.3C246.116 181.115 246.188 186.941 245.402 191.929C244.465 197.863 243.679 204.44 244.184 209.551C244.184 209.551 239.31 214.272 227.246 214.784C215.183 215.297 211.138 212.698 211.138 212.698C212.667 207.464 220.598 195.553 220.101 192.629C219.336 188.204 215.594 168.663 214.26 167.746C203.12 160.065 193.782 155.43 193.782 155.43" fill="url(#paint1_linear)"/>
<path d="M210.071 318.47C208.968 320.138 206.61 320.015 204.822 319.12C202.002 317.705 200.632 316.124 200.632 316.124C205.269 304.422 207.735 294.619 212.595 286.231C216.243 279.936 220.267 274.883 221.024 272.63C225.552 259.246 222.177 240.939 222.249 232.702C222.257 231.807 221.961 230.854 222.761 230.457L226.035 228.847C226.59 228.573 226.893 228.833 226.706 229.425C222.588 242.13 215.061 261.159 209.934 267.591C204.685 274.168 197.445 276.694 197.085 267.288C196.681 256.741 201.058 237.676 203.87 225.714C206.631 213.976 210.777 208.216 212.984 204.729C215.061 201.437 219.545 193.316 220.093 192.644C220.093 192.644 228.71 189.829 236.411 190.327C244.674 190.861 244.941 194.904 244.941 194.904C245.265 208.497 248.9 219.795 245.186 242.303C241.631 263.809 241.177 269.158 236.144 280.196C232.287 288.671 218.204 306.169 210.071 318.47Z" fill="#0E3C82"/>
<path d="M234.688 143.635C234.688 143.635 237.55 145.591 238.848 145.555C238.848 145.555 239.901 145.432 240.189 145.302C240.189 145.302 239.829 144.53 239.641 144.494C239.454 144.458 238.776 144.826 238.574 144.746C238.365 144.66 237.875 144.162 237.875 144.162C237.788 144.097 236.807 144.234 234.688 143.635Z" fill="#F7A3AC"/>
<path d="M234.89 143.772C234.89 143.772 236.649 146.356 238.581 146.226C239.75 146.147 240.182 145.302 240.182 145.302L239.007 145.403C239.014 145.403 237.219 145.014 234.89 143.772Z" fill="#F7A3AC"/>
<path opacity="0.5" d="M240.067 142.429L236.995 142.083L237.543 141.664C238.257 141.116 239.202 140.957 239.923 141.339C240.521 141.657 240.189 142.119 240.067 142.429Z" fill="url(#paint2_linear)"/>
<path d="M243.478 166.844C243.478 166.844 249.383 169.674 249.138 176.301C249.023 179.499 247.364 183.981 242.793 186.71L243.478 166.844Z" fill="url(#paint3_linear)"/>
<path d="M236.606 163.544L229.309 164.021L233.599 168.619C234.205 169.233 235.25 168.944 235.459 168.107L236.606 163.544Z" fill="white"/>
<path opacity="0.5" d="M236.635 150.89C236.635 150.89 234.601 150.284 233.21 149.172C232.02 148.226 230.787 146.624 230.787 146.624C230.787 146.624 231.847 151.843 233.376 152.305C234.904 152.767 236.635 150.89 236.635 150.89Z" fill="url(#paint4_linear)"/>
<path d="M231.566 195.344C232.239 195.344 232.785 194.798 232.785 194.124C232.785 193.451 232.239 192.904 231.566 192.904C230.893 192.904 230.348 193.451 230.348 194.124C230.348 194.798 230.893 195.344 231.566 195.344Z" fill="white"/>
<path opacity="0.15" d="M223.504 262.747C223.504 262.747 232.308 227.338 236.411 225.151L226.482 226.746L222.566 240.816L223.504 262.747Z" fill="black"/>
<path opacity="0.07" d="M248.907 178.741C248.907 178.741 249.008 170.706 246.852 165.638C246.852 165.638 251.185 174.922 254.177 178.019C256.11 180.018 266.27 191.836 266.27 191.836C258.244 189.114 248.907 178.741 248.907 178.741Z" fill="black"/>
<path d="M225.5 191.5C225.5 191.5 227.412 182.538 227.715 174.691C228.111 164.577 227.217 153.51 227.217 153.51L223.655 155.135C223.655 155.135 225.119 165.703 224.376 173.983C223.287 186.147 222 192.5 222 192.5L225.5 191.5Z" fill="#0E3C82"/>
<path d="M241.5 191.5C241.5 191.5 241.798 189.692 241.74 178.69C241.661 163.92 237.291 154.615 237.291 154.615L241.625 157.12C241.61 157.011 244.213 165.645 244.631 179.065C245.021 191.482 244 193.5 244 193.5L241.5 191.5Z" fill="#0E3C82"/>
<path d="M277.497 166.396L278.499 174.055L265.109 179.058L277.497 166.396Z" fill="#D0D6E2"/>
<path d="M286.488 158.499C286.488 158.499 285.681 150.955 283.618 155.893C280.95 162.274 276.884 157.25 272.413 156.571C271.771 156.477 272.759 152.247 272.283 152.724C269.774 155.236 266.154 154.774 265.167 152.536C264.208 150.356 262.362 147.331 261.669 145.382C261.316 144.379 260.948 143.18 261.021 140.726C261.049 139.766 260.278 136.344 260.141 135.665C259.91 134.561 261.475 135.564 260.278 133.637C259.571 132.496 261.763 129.984 262.902 129.638C268.995 127.804 263.717 129.103 264.691 128.916C270.293 127.833 273.978 128.562 273.978 128.562C284.13 133.196 276.768 139.758 276.768 139.758C276.768 139.758 281.736 153.085 286.214 160.419C288.053 163.429 292.343 175.817 294.449 179.347C297.701 184.805 289.661 189.584 284.765 192.926C281.563 195.113 280.431 210.735 273.754 209.775C256.269 207.263 269.543 162.448 270.452 159.892C271.425 157.171 269.76 150.933 269.76 150.933L273.242 148.27L277.006 150.782" fill="#FFD6C7"/>
<path d="M269.543 157.589C269.543 157.589 266.897 159.935 265.108 164.411C261.835 172.633 261.864 173.745 260.775 180.235C259.65 186.905 260.162 193.337 258.958 203.321C257.804 212.901 257.602 232.68 262.585 234.925C268.303 237.51 280.928 222.704 282.753 213.774C284.735 204.065 295.76 168.562 298.529 158.701C302.38 144.978 290.324 160.022 281.231 150.637C281.231 150.637 279.428 159.914 273.92 162.794C273.92 162.794 271.461 161.646 271.223 160.513C270.826 158.65 270.235 157.033 269.543 157.589Z" fill="white"/>
<path d="M259.766 199.163C260.134 198.138 271.036 195.654 276.545 196.752C282.537 197.95 286.142 201.704 286.142 201.704C286.142 210.778 288.312 212.727 283.986 225.151C279.963 236.694 270.026 254.048 267.33 261.975C265.188 268.284 273.177 274.853 272.637 281.552C272.341 285.198 272.218 315.265 272.218 315.265C264.972 321.993 262.383 320.159 262.383 320.159C261.504 310.233 254.069 271.186 251.51 257.896C250.926 254.878 250.789 251.796 251.106 248.735C252.195 238.008 255.238 211.716 259.766 199.163Z" fill="url(#paint5_linear)"/>
<path d="M272.435 250.966L276.142 224.812C276.142 224.812 272.76 222.372 266.061 219.224C266.061 219.224 252.909 242.823 251.359 250.143C249.29 259.91 265.903 269.013 281.319 308.205C282.415 310.991 288.551 299.405 288.551 299.405C282.956 277.575 282.667 269.713 277.93 261.072C276.156 257.817 272.14 254.647 272.435 250.966Z" fill="url(#paint6_linear)"/>
<path opacity="0.49" d="M264.489 144.811C264.489 144.811 264.77 144.393 265.469 144.66C266.385 145.014 267.452 145.447 267.452 145.447C267.452 145.447 265.715 146.277 264.828 145.894C263.941 145.512 264.489 144.811 264.489 144.811Z" fill="url(#paint7_linear)"/>
<path d="M273.754 134.07C273.754 134.07 271.093 136.849 266.983 135.853C266.983 135.853 270.56 137.665 271.454 137.484L273.754 134.07Z" fill="#FFD6C7"/>
<path d="M266.941 150.356C269.782 149.121 268.873 146.133 268.873 146.133C268.873 146.133 267.294 146.811 265.138 147.165C263.833 147.374 263.422 147.504 263.422 147.504C263.422 147.504 263.573 148.421 263.919 149.381C264.366 150.616 265.563 150.955 266.941 150.356Z" fill="#FFD6C7"/>
<path opacity="0.77" d="M264.503 147.526C264.597 147.179 265.347 147.367 266.746 147.208C268.642 146.992 269.594 146.227 269.594 146.227C269.594 146.227 268.722 147.743 266.494 148.19C264.835 148.522 264.41 147.872 264.503 147.526Z" fill="url(#paint8_linear)"/>
<path d="M273.221 140.942C274.007 141.26 275.832 138.221 276.329 139.989C276.841 141.83 278.961 145.331 278.961 145.331C279.617 140.574 281.059 139.303 280.122 134.936C278.889 129.19 275.983 128.403 272.724 127.717C270.272 127.204 265.571 127.197 262.528 129.255C256.882 133.073 258.281 138.047 262.232 137.932C266.429 137.809 268.96 136.741 271.21 135.116L273.221 140.942Z" fill="black"/>
<path d="M275.925 142.278C279.04 142.04 279.624 139.39 278.506 136.669C277.656 134.59 275.117 135.095 274.267 136.943L275.925 142.278Z" fill="#FFD6C7"/>
<path d="M260.675 134.344C260.675 134.344 259.276 135.925 260.199 139.404L261.057 142.653L260.675 134.344Z" fill="black"/>
<path d="M232.424 164.909L225.112 165.638C225.112 165.638 224.261 161.624 223.576 158.513C222.891 155.438 223.396 154.723 223.396 154.723L228.328 150.038C228.328 150.038 228.667 154.326 229.734 157.654C230.794 160.982 232.424 164.909 232.424 164.909Z" fill="white"/>
<path d="M234.695 165.638H241.632C241.632 165.638 241.444 161.162 238.596 156.318L236.462 153.51C236.455 153.517 236.231 162.288 234.695 165.638Z" fill="white"/>
<path d="M231.948 136.091C231.948 136.091 231.371 138.416 230.614 141.78C229.936 144.79 230.917 152.745 226.223 153.879C221.976 154.904 213.518 152.124 214.361 150.984C221.255 141.642 221.94 138.813 225.213 131.882C226.165 129.868 227.773 127.623 229.662 126.62C234.818 123.877 243.881 125.357 245.223 131.153C245.965 134.366 246.448 136.553 246.448 136.553C242.54 138.199 236.837 135.47 231.948 136.091Z" fill="black"/>
<path d="M235.668 137.231L236.267 131.875L233.498 136.654L235.668 137.231Z" fill="#FFD6C7"/>
<path d="M279.884 156.181L281.232 150.645C279.09 155.936 276.271 160.246 273.409 160.607C271.678 160.83 271.188 159.61 270.885 158.022C270.582 156.427 270.589 155.431 270.589 155.431L268.873 157.438C268.873 157.438 268.83 161.754 271.043 163.458C275.637 166.988 278.852 160.267 279.884 156.181Z" fill="white"/>
<path opacity="0.2" d="M265.881 149.244C265.881 149.244 266.263 149.374 266.825 149.36C267.546 149.338 268.296 149.172 268.296 149.172C268.296 149.172 267.503 150.428 266.775 150.334C266.047 150.24 265.881 149.244 265.881 149.244Z" fill="url(#paint9_linear)"/>
<path d="M233.231 132.749C232.914 133.167 232.647 133.774 232.467 134.351C232.28 134.943 232.157 135.557 232.07 136.171C231.912 137.419 231.941 138.683 232.042 139.953C232.236 142.502 232.662 145.064 232.539 147.67C232.46 148.955 232.236 150.305 231.494 151.424C230.715 152.493 229.677 153.315 228.516 153.907C226.172 155.062 223.447 155.178 220.959 154.622C223.461 155.12 226.172 154.933 228.436 153.749C229.554 153.157 230.563 152.312 231.27 151.28C231.933 150.219 232.121 148.919 232.164 147.663C232.215 145.115 231.724 142.588 231.458 140.018C231.321 138.733 231.284 137.412 231.421 136.106C231.501 135.449 231.623 134.799 231.811 134.156C232.013 133.507 232.236 132.908 232.691 132.294L233.231 132.749Z" fill="black"/>
<path d="M301.768 129.666C301.746 129.623 301.732 129.579 301.71 129.543C301.689 129.493 301.667 129.442 301.645 129.392C301.624 129.341 301.595 129.276 301.573 129.226C301.559 129.204 301.545 129.175 301.537 129.154C301.292 128.619 301.033 128.121 300.766 127.652C297.16 120.751 292.25 112.283 287.022 105.605C286.417 104.833 285.35 104.595 284.477 105.057L279.033 107.944L290.39 135.961C290.995 137.448 290.887 139.137 290.073 140.523C288.429 143.339 285.826 146.551 281.232 150.637C281.232 150.637 278.997 180.942 285.241 180.632C291.313 180.329 289.849 180.733 293.425 173.853C298.603 163.898 301.653 148.363 303.866 140.596C304.753 137.499 303.491 133.572 301.768 129.666Z" fill="white"/>
<path d="M345.031 271.049C346.415 278.456 345.932 283.689 342.629 286.765C336.01 292.937 335.642 275.121 334.006 269.194C331.583 260.423 333.717 256.258 336.796 256.236C338.534 256.229 342.413 259.326 343.394 261.809C344.576 264.79 344.281 267.05 345.031 271.049Z" fill="black"/>
<path opacity="0.5" d="M270.51 153.72C270.51 153.72 272.464 152.897 273.733 151.648C274.814 150.579 275.874 148.854 275.874 148.854C275.874 148.854 275.377 154.16 273.906 154.781C272.435 155.402 270.51 153.72 270.51 153.72Z" fill="url(#paint10_linear)"/>
<path d="M261.439 136.365C261.793 136.726 262.362 137.094 262.917 137.34C263.487 137.6 264.093 137.787 264.735 137.888C265.369 137.975 266.025 138.018 266.689 137.946C267.352 137.896 268.001 137.744 268.657 137.564C268.051 137.852 267.424 138.127 266.754 138.3C266.09 138.495 265.398 138.581 264.691 138.61C263.985 138.625 263.271 138.538 262.564 138.358C261.85 138.163 261.201 137.925 260.502 137.448L261.439 136.365Z" fill="black"/>
<path d="M226.136 103.526C225.58 100.04 225.069 95.4411 225.725 93.6868C227.607 88.6264 235.892 81.0104 233.678 76.0871C231.515 71.2865 218.882 78.2239 215.933 74.239C212.984 70.2542 208.816 60.7685 205.578 61.938C202.391 63.093 200.632 73.0696 197.279 76.0005C194.474 78.4549 182.454 76.4408 182.512 80.5989C182.562 84.1867 190.718 91.7305 193.472 96.2929C194.791 98.4802 193.328 111.828 196.529 112.304C200.632 112.911 207.742 103.317 210.539 102.689C213.337 102.061 224.319 110.348 226.222 108.637C227.131 107.822 226.467 105.569 226.136 103.526Z" fill="#FFD05B"/>
<path d="M279.278 107.995C278.875 106.241 277.411 106.111 276.473 104.191C275.536 102.27 278.961 101.13 277.663 98.1772C275.925 94.2356 275.702 89.3051 278.125 91.7451C279.379 93.0084 281.629 92.568 283.158 96.885C283.569 98.0544 285.415 103.447 285.523 105.93" fill="#FFD6C7"/>
<path d="M266.068 106.869C264.662 103.7 262.614 99.6354 261.136 98.5381C256.874 95.3762 245.972 93.5499 245.157 88.3017C244.364 83.1835 258.489 82.1223 258.792 77.2567C259.095 72.3912 256.716 62.6095 260.011 61.8371C263.256 61.0791 270.776 68.0815 275.103 68.7023C278.729 69.2148 287.555 61.108 289.733 64.5586C291.615 67.54 288.932 78.1302 289.105 83.3712C289.192 85.8833 297.549 96.0981 295.162 98.2061C292.105 100.913 281.109 96.82 278.47 97.8018C275.831 98.7836 271.216 111.511 268.728 111.121C267.553 110.947 266.897 108.731 266.068 106.869Z" fill="#FFD05B"/>
<path d="M278.362 106.031C276.213 105.273 273.264 100.415 272.716 98.8268C272.168 97.2386 271.641 95.1379 272.694 95.4628C273.934 95.8454 273.884 97.0437 274.9 98.1987C275.29 98.6463 275.932 99.4765 276.667 99.8735C277.467 100.307 279.436 100.826 279.486 101.353L280.171 103.685C280.316 105.071 279.602 106.472 278.362 106.031Z" fill="#FFD6C7"/>
<path d="M150.036 114.391C149.935 112.594 151.298 112.052 151.651 109.944C152.005 107.836 148.399 107.714 148.81 104.516C149.358 100.242 148.183 95.4486 146.554 98.4806C145.71 100.047 143.424 100.264 143.179 104.84C143.114 106.075 142.869 111.778 143.467 114.182" fill="#FFD6C7"/>
<path d="M321.632 316.802C321.632 316.802 323.363 316.607 325.757 315.481C329.449 313.749 331.021 312.226 331.021 312.226C331.021 312.226 332.686 317.416 333.104 319.741C333.451 321.639 333.674 322.982 333.53 324.39C333.256 327.017 332.268 327.912 330.17 334.395C328.403 339.86 325.44 342.379 319.621 342.285C317.198 342.249 317.032 340.589 317.53 337.817C318.114 334.547 320.104 328.244 320.659 324.44C321.301 320.065 321.632 316.802 321.632 316.802Z" fill="black"/>
<path d="M263.523 319.503C263.523 319.503 265.152 319.3 267.409 318.239C270.899 316.608 272.399 315.193 272.399 315.193C272.399 315.193 273.884 319.892 274.245 322C274.54 323.726 274.735 324.938 274.576 326.223C274.281 328.62 273.336 329.45 271.274 335.384C269.536 340.387 266.724 342.719 261.266 342.719C258.994 342.719 258.865 341.21 259.369 338.683C259.968 335.695 261.922 329.927 262.506 326.462C263.169 322.484 263.523 319.503 263.523 319.503Z" fill="black"/>
<path d="M281.188 308.328C281.188 308.328 282.58 307.454 284.188 305.548C286.669 302.596 287.433 300.69 287.433 300.69C287.433 300.69 290.757 304.328 291.968 306.09C292.963 307.526 293.648 308.551 294.038 309.786C294.773 312.081 294.268 313.229 294.889 319.488C295.408 324.758 293.843 328.064 288.889 330.36C286.827 331.32 286.077 330.006 285.472 327.494C284.758 324.534 284.109 318.477 283.186 315.085C282.119 311.179 281.188 308.328 281.188 308.328Z" fill="black"/>
<path d="M299.453 200.477L291.652 207.443L288.594 211.897C288.421 212.15 288.299 212.438 288.248 212.742C288.248 212.742 288.025 221.801 289.943 218.488C291.644 215.542 291.954 212.792 293.649 211.68C294.219 211.305 294.817 211.327 294.5 211.926C293.981 212.9 293.469 213.745 293.014 214.221C291.378 215.954 292.106 217.629 292.495 217.484C292.885 217.34 295.43 214.279 297.045 212.973C298.61 211.709 301.025 210.222 303.116 204.461" fill="#FFD6C7"/>
<path d="M320.833 318.521C321.078 319.647 328.533 317.033 330.819 314.442C331.374 313.807 331.757 313.041 331.915 312.218C334.583 298.243 324.719 270.724 325.159 263.043C325.786 252.013 329.557 233.113 330.567 229.215C330.567 229.215 328.252 257.297 328.281 261.874C328.36 272.081 340.114 270.926 343.676 262.783C347.67 253.644 351.059 233.691 352.71 222.198C354.333 210.922 350.49 212.684 349.098 209.038C348.435 207.306 347.771 205.523 347.209 203.978C346.279 201.415 343.539 198.304 341.094 197.105C334.951 194.081 340.719 202.606 333.566 200.318C329.781 199.105 327.373 197.502 325.923 196.217C324.856 195.272 323.205 195.539 322.498 196.773C322.498 196.773 319.059 194.535 313.55 212.879C307.558 232.832 306.491 247.609 305.712 262.762C305.251 271.706 315.684 294.749 320.833 318.521Z" fill="url(#paint11_linear)"/>
<path d="M185.814 148.32C182.13 142.126 192.434 144.414 192.434 144.414C192.434 144.414 206.112 126.114 203.048 135.189C200.661 142.263 205.103 170.922 206.09 173.846C206.09 173.846 201.598 176.546 195.852 175.94C191.431 175.47 188.929 153.561 185.814 148.32Z" fill="#072856"/>
<path d="M178.128 152.666C175.367 154.319 166.779 154.745 163.866 160.679C162.518 163.429 196.847 166.829 191.937 161.877C189.377 159.293 190.696 156.138 190.047 155.423C190.848 153.611 191.295 151.662 191.72 151.229C192.016 150.926 192.045 150.457 191.763 150.146L184.603 142.112C184.51 142.01 184.344 142.039 184.301 142.169C183.781 143.743 180.501 151.236 178.128 152.666Z" fill="#FFD6C7"/>
<path d="M182.534 139.542C182.534 139.542 183.025 142.523 184.416 144.754C187.019 148.926 189.276 150.363 191.865 151.402C193.711 152.146 194.425 150.673 195.708 149.2C196.66 148.11 198.333 145.699 199.155 144.039C202.219 137.852 200.46 138.228 201.455 132.965C201.974 130.222 201.073 129.652 198.91 128.338C193.992 125.349 189.464 127.861 186.32 129.067C185.779 129.276 185.21 129.406 184.633 129.406C181.77 129.421 182.217 136.416 182.448 138.769" fill="#FFD6C7"/>
<path d="M201.612 128.258C199.99 126.41 196.269 124.873 193.464 124.764C188.1 124.562 184.437 125.169 179.981 137.953C178.156 143.194 170.917 157.315 170.52 158.087C169.309 160.455 170.217 163.364 172.575 164.577C173.253 164.931 173.304 165.342 174.191 165.84C174.191 165.84 186.535 136.712 187.018 136.56C189.217 135.882 191.373 133.312 192.404 131.94C192.707 131.536 193.313 131.557 193.587 131.983C193.983 132.59 194.567 133.42 195.303 134.207C196.933 135.954 199.362 136.791 199.362 136.791C198.887 135.658 198.209 133.333 198.209 133.333L200.199 136.365C200.761 137.347 201.663 138.885 202.052 139.332C202.586 139.939 203.155 138.849 203.415 138.083C204.59 134.698 204.835 131.926 201.612 128.258Z" fill="#072856"/>
<path d="M189.816 141.931C189.816 141.931 190.912 143.404 194.41 144.696L195.643 145.035C195.643 145.035 196.472 143.851 195.527 143.664C195.376 143.635 194.965 143.815 194.756 143.678C194.446 143.483 194.352 143.158 193.919 143C193.22 142.754 192.419 142.884 189.816 141.931Z" fill="#F7A3AC"/>
<path d="M189.816 141.931C189.816 141.931 190.242 146.667 192.578 147.526C193.27 147.778 193.919 147.569 194.316 147.345C194.611 147.179 194.763 146.919 194.784 146.66C194.799 146.508 194.712 146.169 194.575 146.024C194.474 145.916 194.547 145.714 194.525 145.562C194.438 145.006 193.854 145.122 193.854 145.122C191.612 144.913 191.994 143.823 189.816 141.931Z" fill="#F7A3AC"/>
<path d="M190.04 142.379C190.04 142.379 190.35 144.747 191.929 145.996C192.499 146.45 193.141 146.624 193.761 146.609C194.201 146.595 194.431 146.263 194.431 146.183C194.438 145.88 194.496 145.606 194.554 145.447C194.763 144.927 195.217 144.812 195.217 144.812C193.09 144.032 192.225 144.27 190.04 142.379Z" fill="#001735"/>
<path d="M190.739 144.429C190.739 144.429 190.905 145.151 191.936 145.995C192.506 146.457 192.823 146.529 193.465 146.602C193.458 146.602 193.097 144.948 190.739 144.429Z" fill="#AD6877"/>
<path d="M190.04 142.379C190.04 142.379 190.249 143.043 192.037 144.025C193.177 144.653 194.431 145.129 195.109 145.23L195.506 144.877C195.304 144.523 194.749 144.342 194.345 144.162C192.859 143.527 192.21 143.303 190.04 142.379Z" fill="white"/>
<path opacity="0.47" d="M195.822 140.928C196.522 140.783 197.272 141.224 196.983 141.7C196.176 143.028 193.602 141.296 193.602 141.296C193.602 141.296 195.008 141.094 195.822 140.928Z" fill="url(#paint12_linear)"/>
<path opacity="0.32" d="M188.043 152.291C190.285 153.142 191.316 151.179 191.316 151.179C191.316 151.179 189.521 150.601 187.66 148.436C186.355 146.92 185.468 145.021 184.877 142.581C184.877 142.574 184.553 150.962 188.043 152.291Z" fill="url(#paint13_linear)"/>
<path d="M185.606 139.816C182.397 139.145 182.39 137.087 183.01 134.951C183.522 133.196 185.382 132.518 186.55 133.521C187.235 134.106 187.437 135.138 187.242 135.896L185.606 139.816Z" fill="#FFD6C7"/>
<path d="M95.3947 120.339L79.8128 104.963C78.9042 103.613 78.9547 102.538 79.2287 99.7655C79.2287 99.7655 83.3459 79.3937 85.9489 75.0768C87.1242 73.1349 89.035 73.633 90.9458 71.72C92.8566 69.8142 88.9053 66.8833 91.6669 63.8874C95.3515 59.8881 97.4714 54.0047 93.4695 55.8744C91.4001 56.8417 88.6889 55.2969 85.1269 59.8448C84.1679 61.072 79.8056 66.7894 78.7384 69.7492C77.9813 71.8499 69.0546 92.1856 65.8892 101.05C63.9928 106.371 65.9397 108.984 67.0501 111.005L81.6803 131.55C82.8845 133.752 91.2054 144.674 92.6908 142.646L95.9644 126.938C96.909 125.674 96.4042 121.559 95.3947 120.339Z" fill="#FFD6C7"/>
<path d="M132.644 217.528C133.019 212.106 129.919 187.461 129.515 184.018C129.486 183.765 129.472 183.519 129.472 183.26L129.645 164.563C129.674 161.495 127.395 158.903 124.359 158.528L122.131 158.253C118.403 157.798 115.173 160.838 115.397 164.591L116.514 183.195C116.478 183.866 123.321 206.115 124.9 212.547C125.174 213.659 125.001 214.828 124.432 215.824C122.838 218.625 121.079 221.484 121.028 224.14C120.942 228.652 120.148 232.009 121.865 231.901C122.672 231.85 123.898 225.736 124.59 226.494C125.225 227.194 124.763 227.952 124.028 230.674C123.646 232.088 123.09 236.903 123.292 237.488C123.71 238.687 126.465 236.138 127.921 234.362C128.376 233.807 130.496 230.717 130.748 230.046C131.476 228.096 132.067 225.981 132.644 217.528Z" fill="#FFD6C7"/>
<path d="M118.18 129.211C118.18 129.211 126.818 138.293 129.284 145.519C132.074 153.684 130.546 175.124 130.546 175.124L116.103 172.965C116.103 172.965 115.368 164.577 113.457 158.881C110.414 149.785 108.914 152.384 111.625 146.349C113.803 141.527 113.789 130.72 118.18 129.211Z" fill="#E4E7F4"/>
<path d="M114.171 170.857C114.171 170.857 115.923 171.731 121.987 172.345C128.051 172.958 130.755 172.539 130.755 172.539C130.755 172.539 130.755 177.181 129.45 177.939C128.145 178.697 116.695 178.112 115.49 176.806C114.286 175.492 114.171 170.857 114.171 170.857Z" fill="white"/>
<path d="M125.361 119.553C128.729 120.087 130.474 118.621 131.49 116.449C132.738 113.785 130.56 111.482 128.419 112.5L125.361 119.553Z" fill="#FFD6C7"/>
<path d="M127.215 117.004L127.669 117.279C128.39 117.712 130.849 116.362 132.096 113.525C133.625 110.06 133.668 109.525 133.668 109.525L130.431 109.922L127.215 117.004Z" fill="black"/>
<path d="M60.5971 271.468C60.5971 271.468 55.182 275.799 52.4564 277.705C45.556 282.527 48.6925 284.563 50.0842 288.598C51.7426 293.399 50.7115 296.785 55.7228 301.571C59.7463 305.418 63.6832 306.184 64.0942 303.614C64.772 299.318 61.2028 293.767 60.9793 289.356C60.8928 287.739 61.1091 281.791 61.1091 281.791L66.1637 276.247L60.5971 271.468Z" fill="black"/>
<path d="M106.138 213.016C105.439 228.594 104.033 238.564 93.5703 249.378C77.087 266.407 79.5098 265.418 63.8124 281.256L56.7461 273.157C65.8674 259.34 65.3699 256.366 73.9937 243.148C79.2502 235.091 81.4205 236.138 82.805 231.395C84.211 226.587 74.4912 201.328 74.4912 201.328C70.2659 187.158 77.5413 172.395 85.307 163.364C85.3503 163.321 85.3863 163.27 85.4224 163.22L94.8249 150.218C95.6902 149.201 99.5262 152.5 100.889 153.77C101.062 153.929 101.206 154.109 101.329 154.312L109.109 165.53C109.448 166.086 109.087 171.341 107.847 178.199C106.816 183.931 106.138 213.016 106.138 213.016Z" fill="url(#paint14_linear)"/>
<path d="M111.856 112.724C111.856 112.724 109.888 116.463 111.049 119.141C113.536 124.88 118.346 128.88 121.187 126.822C123.069 125.458 125.614 122.909 127.33 119.856C129.19 116.55 130.315 114.463 131.116 111.525C131.75 109.208 129.356 109.425 129.731 106.999C130.2 103.938 131.036 103.592 129.089 101.563C124.994 97.2823 118.072 99.78 118.072 99.78C112.145 101.866 111.207 111.15 111.207 111.15C111.207 111.15 105.287 125.328 102.735 128.692C100.723 131.348 98.8556 134.828 98.8556 134.828L89.3233 146.53C86.8861 154.731 92.9213 161.199 100.125 165.797L112.916 167.746L119.521 166.201C121.965 161.675 128.498 158.34 124.958 154.608L121.626 144.032C120.841 141.534 114.957 136.286 116.702 133.399C118.822 129.883 121.338 125.566 121.338 125.566" fill="#FFD6C7"/>
<path d="M105.108 126.028C105.447 125.465 102.663 127.76 102.115 128.121C99.9016 129.587 100.442 123.66 95.2653 128.706C89.4247 134.402 87.4202 144.046 86.4396 150.984C84.7667 162.859 83.5698 165.378 84.0961 166.598C87.9466 175.485 101.647 189.757 106.831 187.006C108.021 186.378 116.868 173.579 121.122 166.079C126.761 156.153 126.559 157.668 128.47 151.345C129.58 147.656 131.621 147.822 125.175 138.452C121.663 133.348 119.168 130.352 119.168 130.352C118.462 133.218 111.626 138.921 108.9 139.47C100.522 141.159 102.122 131.031 105.108 126.028Z" fill="#E4E7F4"/>
<path d="M116.067 107.836C114.56 110.132 113.45 111.547 113.212 112.045C113.111 112.261 111.907 110.435 111.69 110.334L111.207 111.157L108.633 117.084H108.626C108.987 113.229 107.991 112.687 110.465 105.887C111.561 102.855 113.544 98.2206 118.281 97.773C122.016 97.4193 126.047 96.8995 130.69 101.13C136.812 106.703 132.817 113.532 132.817 113.532C131.7 115.373 128.88 117.755 128.88 117.755C128.599 116.845 128.224 113.185 127.539 113.012C126.011 112.63 123.004 111.626 119.817 108.139C117.538 105.634 116.067 107.836 116.067 107.836Z" fill="#072856"/>
<path d="M111.236 112.493C108.51 110.442 108.344 108.168 109.195 105.93C110.233 103.18 113.399 103.137 114.163 105.389L111.236 112.493Z" fill="#FFD6C7"/>
<path opacity="0.42" d="M120.004 116.109C120.004 116.109 121.345 115.871 122.657 115.755C123.422 115.69 124.179 116.629 123.285 117.17C122.535 117.61 120.004 116.109 120.004 116.109Z" fill="url(#paint15_linear)"/>
<path opacity="0.3" d="M117.257 121.263C117.257 121.263 117.697 121.732 119.196 121.992C119.896 122.115 120.675 122.129 120.675 122.129C120.675 122.129 119.781 123.169 118.713 122.981C117.646 122.801 117.257 121.263 117.257 121.263Z" fill="url(#paint16_linear)"/>
<path opacity="0.74" d="M116.701 117.098C116.701 117.098 117.004 119.271 119.283 120.354C120.588 120.975 122.008 121.292 122.289 120.693C122.462 120.332 122.131 119.957 120.768 119.545C118.424 118.823 117.754 118.188 116.701 117.098Z" fill="url(#paint17_linear)"/>
<path opacity="0.32" d="M112.995 129.211C116.254 130.496 118.251 127.197 118.251 127.197C118.251 127.197 113.392 125.45 111.776 120.657C110.882 118.007 110.471 114.903 110.471 114.903C110.471 114.903 106.448 126.641 112.995 129.211Z" fill="url(#paint18_linear)"/>
<path d="M105.778 122.324C105.778 122.324 99.3755 133.485 99.8081 142.797C100.147 150.153 102.065 157.979 102.065 157.979C102.065 157.979 103.918 160.693 96.8013 163.826C89.9008 166.865 100.897 153.756 100.897 153.756C100.897 153.756 92.5182 149.756 85.7187 139.39C82.9931 135.232 76.0926 124.779 76.4027 123.299C77.4843 118.145 84.1829 114.975 88.4082 114.499C88.401 114.506 99.8802 121.263 105.778 122.324Z" fill="#E4E7F4"/>
<path d="M104.415 136.748C104.415 136.748 105.641 141.354 108.417 142.473C111.193 143.599 114.849 139.303 114.849 139.303L110.674 136.17L104.415 136.748Z" fill="white"/>
<path d="M110.674 136.17L112.296 145.237C118.966 141.707 120.87 130.915 120.87 130.915L119.492 128.706C119.507 128.706 116.449 133.124 110.674 136.17Z" fill="white"/>
<path d="M110.673 136.171L102.648 141.708C102.648 141.708 101.242 131.247 103.412 124.779L106.65 121.422C106.65 121.422 106.837 130.215 110.673 136.171Z" fill="white"/>
<path d="M109.499 138.805C109.499 138.805 107.502 135.124 106.463 134.821C105.418 134.517 105.288 135.571 104.935 136.3C104.711 136.77 103.81 138.603 104.336 139.765C104.863 140.928 107.87 140.285 109.499 138.805Z" fill="#FF939E"/>
<path d="M109.397 138.769C109.397 138.769 112.758 136.921 113.781 137.275C114.805 137.636 114.286 138.892 114.315 139.412C114.344 139.932 114.156 141.91 113.053 142.545C111.943 143.187 109.866 140.921 109.397 138.769Z" fill="#FF939E"/>
<path d="M109.512 139.802L108.827 139.621C108.351 139.499 108.07 139.008 108.193 138.531C108.315 138.055 108.806 137.773 109.282 137.896L109.967 138.076C110.442 138.199 110.724 138.69 110.601 139.166C110.471 139.643 109.981 139.924 109.512 139.802Z" fill="#FF939E"/>
<path d="M85.0334 300.156C85.0334 300.156 83.3101 299.939 80.9162 298.82C77.2172 297.088 75.6381 295.601 75.6381 295.601C75.6381 295.601 74.0662 300.574 73.684 302.812C73.374 304.639 73.1649 305.924 73.3379 307.288C73.6552 309.822 74.6502 310.703 76.835 316.983C78.6809 322.282 81.6589 324.751 87.4345 324.751C89.8428 324.751 89.9798 323.155 89.4391 320.477C88.8045 317.315 86.7351 311.208 86.115 307.541C85.4084 303.303 85.0334 300.156 85.0334 300.156Z" fill="black"/>
<path d="M105.511 192.074C106.629 198.874 106.391 235.986 103.168 246.107C95.4237 270.442 90.7297 282.845 86.2663 295.593C86.2663 295.593 75.1477 295.276 75.3424 294.034C77.2604 281.74 78.4573 271.215 79.575 260.618C80.1662 255.03 81.6155 249.897 82.726 247.241C83.8148 244.642 88.7107 240.917 87.1749 238.556L81.666 204.606L105.511 192.074Z" fill="url(#paint19_linear)"/>
<path d="M52.4775 276.666L61.022 284.563L66.1631 279.127L57.323 269.735L52.4775 276.666Z" fill="white"/>
<path opacity="0.34" d="M84.3116 363.74C58.1301 361.055 22.7264 350.421 110.248 349.367C168.718 348.66 213.863 351.67 267.38 350.724C348.102 349.302 382.734 357.387 325.122 363.985C263.205 371.074 148.529 370.331 84.3116 363.74Z" fill="#9BB0F9"/>
<path d="M198.534 215.182L207.287 220.249L215.06 229.67C215.06 229.67 215.399 231.561 211.318 229.114C206.422 226.176 208.578 223.88 204.439 223.736C205.456 225.079 206.552 226.393 207.331 226.941C209.22 228.262 208.859 229.988 208.463 229.93C208.066 229.865 205.059 227.468 203.271 226.551C201.541 225.664 198.967 224.732 195.852 219.679" fill="#FFD6C7"/>
<path d="M189.853 192.897C192.297 202.628 200.286 214.619 200.286 214.619L197.763 220.22C197.085 221.722 195.044 221.946 194.071 220.617C192.621 218.654 190.011 215.918 186.464 211.637C177.955 201.372 175.504 197.336 175.179 193.814C174.177 183.065 188.771 188.587 189.853 192.897Z" fill="white"/>
<path d="M141.709 308.147C141.709 308.147 141.391 309.829 140.555 312.175C140.101 313.446 137.664 316.044 137.274 316.571C135.818 318.564 134.707 320.174 136.676 323.141C138.572 325.999 140.086 326.548 142.192 330.468C144.297 334.388 146.619 338.697 151.234 338.669C155.856 338.64 152.863 334.677 151.544 329.645C150.498 325.682 148.544 320.029 148.962 316.759C149.424 313.142 150.549 309.569 150.549 309.569L141.709 308.147Z" fill="black"/>
<path d="M166.282 217.03C168.048 216.445 169.887 217.709 169.974 219.564L171.574 252.121C171.639 259.037 167.659 261.73 164.443 263.354L123.451 285.032C123.069 285.234 121.418 282.347 120.307 280.282C119.68 279.127 119.925 277.698 120.913 276.824C123.105 274.882 127.244 271.201 132.017 266.884C139.091 260.481 147.549 252.67 152.315 249.941C153.642 249.183 154.211 247.573 153.685 246.144L150.21 224.848C149.986 223.484 150.794 222.155 152.106 221.715L166.282 217.03Z" fill="#FFD6C7"/>
<path d="M170.117 212.742C171.97 212.41 173.73 213.666 174.033 215.521C175.9 226.97 177.076 252.547 176.181 260.668C175.439 267.425 170.125 274.399 164.075 285.862C158.833 295.788 153.843 305.801 151.435 310.695C150.598 312.385 148.551 313.056 146.878 312.197L145.328 311.396C143.994 310.703 143.273 309.216 143.575 307.736C144.556 302.921 146.755 292.244 148.262 286.014C151.384 273.106 155.163 267.324 157.968 261.989C161.53 255.218 156.143 229.259 153.822 219.289C153.382 217.405 154.6 215.535 156.497 215.196L170.117 212.742Z" fill="#FFD6C7"/>
<path d="M178.481 151.792C168.069 149.006 175.987 153.9 174.941 159.343C174.047 163.985 167.961 158.022 167.774 164.599C167.608 170.569 168.336 181.491 167.889 185.945C167.312 191.677 163.116 197.712 169.259 197.712C169.259 197.712 176.773 197.149 183.493 196.571C186.55 196.311 185.216 195.56 186.918 193.388C190.364 188.984 200.041 178.827 198.483 172.063C197.049 165.84 197.402 159.755 194.77 156.427C192.78 153.893 183.168 153.041 178.481 151.792Z" fill="white"/>
<path d="M183.983 153.95C176.181 148.515 157.066 139.996 155.811 136.127C152.942 127.305 151.564 119.025 151.327 115.235C151.269 114.384 150.937 113.019 150.101 112.824L143.474 113.005C141.326 112.831 141.657 114.412 141.765 115.921C141.924 118.159 142.22 119.993 142.292 125.089C142.479 137.318 143.171 141.592 145.032 144.241C150.742 152.333 168.329 163.227 171.624 166.945C176.102 171.998 180.327 178.04 183.457 172.886C183.457 172.879 191.532 159.206 183.983 153.95Z" fill="white"/>
<path d="M140.555 312.175C140.555 312.175 146.907 312.789 149.063 314.189C150.231 314.947 151.327 313.489 151.356 312.543C151.385 311.598 151.969 310.544 151.969 310.544C153.512 309.057 154.118 307.144 153.325 306.869L144.167 306.277C143.374 306.01 141.932 306.595 141.708 308.14L140.555 312.175Z" fill="white"/>
<path d="M120.603 278.145C120.603 278.145 118.556 278.636 116.955 280.246C116.097 281.119 113.076 282.318 112.556 282.606C110.581 283.689 109.687 284.368 110.17 287.58C110.631 290.67 110.79 291.926 110.855 296.012C110.92 300.069 110.876 302.321 114.402 304.848C116.854 306.609 119.969 305.526 119.5 302.069C119.226 300.062 119.248 298.502 119.594 296.604C120.265 292.929 121.274 288.677 122.875 286.144C124.649 283.335 126.192 281.964 126.192 281.964L120.603 278.145Z" fill="black"/>
<path d="M115.729 281.083C115.729 281.083 117.055 281.784 118.555 283.213C119.983 284.57 121.547 286.714 121.793 287.653C122.038 288.584 123.458 287.739 123.891 286.635C124.316 285.53 125.326 285.162 126.386 284.664C127.33 284.224 128.722 283.04 128.333 282.376L121.634 276.196C121.245 275.539 119.341 276.853 118.8 278.16C118.526 278.81 117.171 279.062 116.471 279.632C115.765 280.196 115.729 281.083 115.729 281.083Z" fill="white"/>
<path d="M191.518 187.497C191.518 187.497 181.409 190.421 168.033 180.451C168.033 180.451 166.843 188.327 163.137 192.651C161.998 193.785 160.505 195.236 158.558 197.055C154.549 200.801 145.767 209.746 146.582 224.458C146.82 228.789 146.899 238.369 148.341 247.226C148.947 250.951 145.774 250.229 130.279 268.746C129.219 270.009 129.882 281.025 140.186 284.036C143.899 285.118 146.747 286.014 149.343 287.039C151.853 288.035 152.696 289.031 151.485 290.583C147.144 296.163 163.462 300.928 171.581 301.939C171.581 301.939 176.801 270.442 177.702 263.332C178.604 256.221 178.128 243.927 177.832 236.925C177.536 229.915 175.979 221.144 178.301 216.589L184.423 203.949L191.518 187.497Z" fill="url(#paint20_linear)"/>
<path d="M113.032 70.868C113.883 67.3452 115.216 62.7973 116.529 61.3896C120.307 57.3398 131.166 53.4199 131.008 47.883C130.856 42.4832 116.161 44.0425 114.935 39.1047C113.709 34.167 114.128 24.176 110.602 24.0027C107.133 23.8295 100.911 31.9363 96.5844 33.3874C92.9575 34.6001 82.3797 27.9298 80.7862 31.8858C79.4161 35.3004 84.1535 45.674 84.9538 51.081C85.3432 53.6798 78.6735 65.7282 81.5216 67.4535C85.1702 69.6553 95.6903 63.3892 98.5818 63.9018C101.473 64.4143 108.597 76.6071 111.078 75.7481C112.275 75.3294 112.527 72.9327 113.032 70.868Z" fill="#FFD05B"/>
<path d="M85.7682 73.6979C88.7967 73.7484 95.2573 68.8901 96.548 67.2081C97.8387 65.526 99.288 63.216 97.8243 63.1366C96.1009 63.0427 95.7116 64.5226 93.9883 65.4611C93.3249 65.822 92.2 66.5439 91.1112 66.6955C89.9359 66.8543 87.9674 67.2008 87.7007 67.8144L85.213 69.7347C84.5352 71.3517 84.0233 73.669 85.7682 73.6979Z" fill="#FFD6C7"/>
<path d="M76.9716 290.995C78.63 292.034 81.8387 293.89 85.6459 295.362C86.0136 295.507 86.2516 295.86 86.2444 296.25L85.2349 303.065C85.2349 303.065 78.4426 301.202 74.9671 298.69C74.6787 298.481 74.5344 298.134 74.5993 297.781C74.794 296.647 75.2411 293.983 75.5728 291.659C75.6665 290.995 76.402 290.634 76.9716 290.995Z" fill="white"/>
<path d="M191.316 154.709C191.316 154.709 188.54 152.897 176.131 149.172L188.843 164.584L191.316 154.709Z" fill="#FFD6C7"/>
<path d="M92.2224 116.174C92.2224 116.174 90.1818 116.911 84.8316 121.184C79.4742 125.458 77.5634 127.862 77.5634 127.862C77.5634 127.862 74.3187 124.541 74.8522 122.989C75.3858 121.437 85.1056 112.947 86.9948 112.955C88.8912 112.955 92.2224 116.174 92.2224 116.174Z" fill="white"/>
<path d="M116.565 107.252C117.553 106.4 121.187 105.382 121.187 105.382C121.187 105.382 118.122 109.273 116.731 109.518C116.175 109.612 114.805 111.164 114.755 110.717C114.755 110.717 115.57 108.103 116.565 107.252Z" fill="#FFD6C7"/>
<path d="M121.18 111.15C127.02 112.059 131.008 110.796 131.008 110.796L128.607 116.405C128.614 116.405 116.031 110.341 121.18 111.15Z" fill="#FFD6C7"/>
<path d="M119.854 109.323C119.854 109.323 122.839 109.193 124.548 108.399C124.548 108.399 122.485 109.98 120.012 110.247L119.854 109.323Z" fill="#FFD6C7"/>
<path d="M319.224 141.31C315.784 141.657 314.155 139.787 313.823 135.817C313.463 131.442 317.573 129.608 319.31 132.857L319.224 141.31Z" fill="#FFD6C7"/>
<path d="M329.146 142.891C329.146 142.891 329.687 146.197 326.514 150.276C325.764 151.236 324.185 153.64 321.438 153.561C319.498 153.503 318.229 151.561 317.097 149.821C315.612 147.533 313.802 144.508 313.708 143.375C313.311 138.386 312.929 139.224 312.223 136.943C311.141 133.463 311.451 135.521 314.811 131.37C317.71 127.782 318.481 134.784 320.637 130.222C320.637 130.222 319.513 130.446 324.026 130.049C325.396 129.926 324.308 129.832 325.396 129.926C330.126 130.337 331.929 131.962 331.071 136.798C330.336 140.964 328.879 139.455 328.879 139.455C328.879 139.455 341.793 165.205 344.338 178.596C344.8 181.021 323.421 176.733 323.421 176.733C323.421 176.733 325.605 161.487 323.464 150.565" fill="#FFD6C7"/>
<path opacity="0.24" d="M320.637 145.172C320.637 145.172 317.357 144.479 317.4 145.353C317.429 145.851 318.063 145.916 318.914 145.699C319.765 145.49 320.637 145.172 320.637 145.172Z" fill="url(#paint21_linear)"/>
<path opacity="0.3" d="M321.879 148.399C321.042 148.71 319.874 149.034 319.874 149.034C319.874 149.034 319.852 150.175 321.15 149.727C321.987 149.431 322.47 148.175 321.879 148.399Z" fill="url(#paint22_linear)"/>
<path opacity="0.72" d="M322.852 145.266C322.852 145.266 322.008 146.486 320.544 146.775C318.828 147.107 318.46 147.114 318.287 147.504C318.114 147.901 318.987 148.262 320.4 147.735C321.583 147.295 322.578 146.046 322.852 145.266Z" fill="url(#paint23_linear)"/>
<path d="M327.834 160.975C333.076 161.242 333.725 156.947 335.059 153.648C335.909 151.547 338.743 152.991 340.604 154.276C342.702 155.72 345.644 157.929 349.465 161.22C353.95 165.082 349.328 173.254 347.497 182.033C346.314 187.699 342.233 198.051 340.971 202.116C340.632 203.206 348.283 208.122 347.208 208.49C329.139 214.713 319.433 205.249 317.313 202.534C316.924 202.029 317.645 200.037 317.559 199.401C317.176 196.485 317.926 189.035 316.08 181.282C315.1 177.167 314.66 170.396 315.842 166.396C317.227 161.726 322.916 155.546 323.45 155.135C323.45 155.135 323.536 157.438 324.474 159.596C325.13 161.127 325.122 160.838 327.834 160.975Z" fill="url(#paint24_linear)"/>
<path d="M333.912 148.941L326.046 159.452L323.89 154.781C323.89 154.781 321.726 158.21 321.352 159.993C321.005 161.646 322.123 166.533 325.26 166.635C330.12 166.793 337.691 152.341 337.691 152.341L333.912 148.941Z" fill="white"/>
<path d="M325.851 167.558L325.735 160.975L323.464 167.06L325.851 167.558Z" fill="#004CE0"/>
<path d="M328.981 142.119C329.428 142.754 331.483 146.847 332.031 145.533C335.261 137.715 333.235 128.886 326.839 127.515C323.205 126.735 318.605 127.378 315.014 129.904C312.75 131.5 310.687 131.565 310.68 133.954C310.666 137.029 310.961 138.394 312.18 138.964C312.721 139.217 313.37 138.928 313.536 138.35C314.033 136.632 315.28 133.131 317.415 132.214L324.95 133.023C327.546 136.437 328.981 142.119 328.981 142.119Z" fill="black"/>
<path d="M328.612 142.119C331.323 142.119 331.958 140.191 332.023 138.538C332.109 136.076 331.064 134.582 329.42 134.524C327.891 134.467 326.961 136.278 326.961 136.278L328.612 142.119Z" fill="#FFD6C7"/>
<path d="M317.501 181.5L297.254 202.671L302.409 207.934L318.501 194L317.501 181.5Z" fill="#0459E3"/>
<path d="M245.54 137.881L251.236 149.518C251.712 150.486 252.188 151.46 252.578 152.478C252.772 152.983 252.953 153.503 253.082 154.037C253.212 154.564 253.313 155.12 253.255 155.683C253.219 156.239 252.924 156.809 252.433 157.105C251.958 157.409 251.417 157.538 250.898 157.654C249.852 157.885 248.756 158.058 247.862 158.679C248.734 158.022 249.838 157.806 250.876 157.546C251.395 157.409 251.921 157.264 252.347 156.968C252.787 156.679 253.025 156.181 253.046 155.662C253.09 154.615 252.686 153.583 252.282 152.601C251.864 151.612 251.359 150.666 250.862 149.706L244.898 138.206L245.54 137.881Z" fill="black"/>
<path d="M202.788 139.333C202.752 142.025 202.839 144.754 202.998 147.461C203.163 150.175 203.416 152.882 203.798 155.568C204.187 158.253 204.699 160.932 205.471 163.538C206.264 166.122 207.245 168.721 208.997 170.836C207.158 168.8 206.048 166.216 205.132 163.653C204.238 161.062 203.603 158.383 203.091 155.698C202.579 153.005 202.204 150.284 201.923 147.562C201.642 144.833 201.44 142.105 201.354 139.347H202.788V139.333Z" fill="#072856"/>
<path d="M188.815 130.2C188.656 131.781 188.375 133.283 188.014 134.791C187.654 136.293 187.2 137.773 186.637 139.217C186.068 140.66 185.39 142.061 184.561 143.382C183.731 144.703 182.736 145.93 181.561 146.977L180.934 146.277C182.001 145.273 182.902 144.097 183.659 142.826C184.409 141.556 185.022 140.191 185.527 138.798C186.024 137.397 186.428 135.954 186.738 134.495C187.041 133.044 187.279 131.543 187.387 130.099L188.815 130.2Z" fill="#072856"/>
<path d="M192.983 130.453C193.091 130.908 193.257 131.399 193.444 131.861C193.639 132.323 193.862 132.778 194.115 133.211C194.367 133.651 194.655 134.063 194.98 134.46C195.297 134.857 195.665 135.21 196.047 135.55C195.629 135.261 195.211 134.951 194.843 134.582C194.468 134.221 194.122 133.832 193.812 133.413C193.502 132.994 193.213 132.561 192.954 132.099C192.701 131.637 192.471 131.175 192.283 130.655L192.983 130.453Z" fill="#072856"/>
<path d="M286.294 204.765C286.294 204.765 273.127 197.38 259.211 200.794L259.737 195.64C259.737 195.64 272.132 190.247 286.69 198.852L286.294 204.765Z" fill="black"/>
<path d="M359.474 229.439C359.935 225.938 360.765 221.39 361.89 219.895C365.134 215.586 375.251 210.662 374.537 205.306C373.837 200.087 359.748 203.119 358.053 198.455C356.359 193.792 357.83 184.436 354.391 184.631C351.009 184.826 343.719 192.962 339.674 194.81C336.285 196.362 325.339 190.991 324.207 194.983C323.227 198.434 328.887 207.999 330.228 213.16C330.87 215.636 325.649 228.009 328.584 229.381C332.348 231.135 341.895 223.981 344.757 224.176C347.613 224.371 355.775 235.459 358.09 234.369C359.2 233.842 359.2 231.496 359.474 229.439Z" fill="#FFD05B"/>
<path d="M364.074 192.89C365.595 189.028 364.405 185.317 362.805 181.505C357.548 168.973 350.583 150.587 337.698 152.334L331.432 164.014C332.484 167.479 331.215 170.092 337.698 174.445C346.17 180.134 348.355 184.277 350.59 188.89C351.621 191.02 340.971 210.193 340.971 210.193L348.802 215.247C348.802 215.247 362.552 196.752 364.074 192.89Z" fill="url(#paint25_linear)"/>
<path d="M315.014 130.987C315.014 130.987 320.09 133.615 321.871 135.954C323.875 138.589 325.346 140.011 328.014 139.087L326.147 131.384L315.014 130.987Z" fill="black"/>
<path d="M319.541 142.018C318.813 141.527 318.308 140.769 318.113 139.867C317.76 138.221 318.618 137.123 320.688 136.589C322.75 136.062 323.976 136.625 324.336 138.271C324.531 139.174 324.394 140.105 323.947 140.892C323.5 141.678 322.793 142.227 321.964 142.444C321.719 142.509 321.474 142.538 321.221 142.538C320.63 142.538 320.053 142.364 319.541 142.018ZM320.774 136.993C318.935 137.463 318.186 138.372 318.488 139.773C318.661 140.567 319.108 141.238 319.743 141.671C320.385 142.097 321.135 142.234 321.87 142.047C322.598 141.859 323.219 141.375 323.615 140.682C324.012 139.989 324.134 139.166 323.961 138.372C323.738 137.333 323.103 136.82 322.029 136.82C321.661 136.813 321.243 136.871 320.774 136.993Z" fill="black"/>
<path d="M313.491 143.743C312.943 143.267 312.532 142.53 312.338 141.679C312.143 140.819 312.201 140.141 312.518 139.621C312.785 139.181 313.239 138.863 313.895 138.647C314.566 138.43 315.143 138.416 315.597 138.603C316.174 138.841 316.563 139.39 316.751 140.235C316.945 141.094 316.909 141.975 316.635 142.718C316.361 143.476 315.878 144.003 315.28 144.198C315.172 144.234 315.063 144.256 314.955 144.27C314.465 144.321 313.953 144.14 313.491 143.743ZM313.989 139.065C313.412 139.253 313.03 139.52 312.814 139.874C312.569 140.278 312.525 140.834 312.691 141.556C312.864 142.314 313.225 142.964 313.708 143.382C314.176 143.786 314.703 143.924 315.193 143.765C315.683 143.606 316.073 143.166 316.304 142.53C316.542 141.881 316.578 141.101 316.397 140.343C316.239 139.636 315.936 139.202 315.474 139.015C315.236 138.914 314.955 138.885 314.631 138.921C314.436 138.943 314.22 138.993 313.989 139.065Z" fill="black"/>
<path d="M316.47 140.704L318.539 140.184L318.373 139.311L316.304 139.823L316.47 140.704Z" fill="black"/>
<path d="M316.166 131.269C316.513 131.897 316.981 132.525 317.486 133.074C317.998 133.63 318.582 134.121 319.216 134.532C319.851 134.951 320.558 135.261 321.293 135.463C322.029 135.694 322.807 135.723 323.586 135.723C322.815 135.781 322.021 135.817 321.257 135.644C320.486 135.499 319.728 135.232 319.036 134.85C318.337 134.474 317.688 134.005 317.104 133.464C316.52 132.915 315.993 132.33 315.539 131.63L316.166 131.269Z" fill="black"/>
<path opacity="0.3" d="M323.982 152.882C323.982 152.882 326.34 150.319 327.249 148.782C328.02 147.468 328.604 145.533 328.604 145.533C328.604 145.533 328.857 151.178 327.588 152.16C326.319 153.142 323.982 152.882 323.982 152.882Z" fill="url(#paint26_linear)"/>
<path d="M172.907 90.561C171.306 87.4208 169.403 83.2049 169.482 81.3352C169.706 75.9427 175.243 66.1393 171.617 62.1473C168.076 58.249 158.205 68.7526 154.174 65.8795C150.144 63.0063 144.404 55.1738 141.686 57.2889C139.011 59.368 139.263 69.5034 136.984 73.3294C135.074 76.5274 123.025 78.3321 124.359 82.2664C125.512 85.6593 135.593 90.3155 139.623 93.8023C141.556 95.4771 144.274 108.623 147.476 108.081C151.564 107.388 155.371 96.069 157.83 94.6108C160.296 93.1454 173.297 97.6283 174.58 95.4193C175.179 94.3437 173.852 92.409 172.907 90.561Z" fill="#FFD05B"/>
<path d="M150.36 112.254C152.214 110.919 153.663 105.425 153.742 103.75C153.821 102.076 153.728 99.9099 152.812 100.523C151.73 101.245 152.12 102.379 151.471 103.772C151.218 104.313 150.844 105.288 150.252 105.88C149.611 106.515 147.873 107.576 147.967 108.096V110.529C148.212 111.879 149.293 113.027 150.36 112.254Z" fill="#FFD6C7"/>
<path d="M278.772 194.998L277.871 203.422L281.361 204.252L282.58 196.131L278.772 194.998Z" fill="#061325"/>
<path d="M203.834 116.123C205.391 114.456 205.752 108.782 205.507 107.121C205.262 105.461 204.75 103.36 203.971 104.133C203.048 105.049 203.646 106.089 203.279 107.583C203.135 108.161 202.961 109.193 202.486 109.886C201.981 110.637 200.474 112.016 200.676 112.507L201.144 114.896C201.656 116.174 202.933 117.083 203.834 116.123Z" fill="#FFD6C7"/>
<path d="M340.509 215.189C339.153 217.087 337.971 217.658 338.036 220.993C338.057 222.047 338.641 225.678 338.894 226.19C339.218 226.855 339.514 226.746 340.732 227.28C341.54 227.634 341.98 228.183 343.213 228.486C343.855 228.645 344.273 228.075 344.158 227.555C344.107 227.338 343.862 226.876 343.862 226.876C344.071 226.833 344.049 226.891 344.287 227.136C344.958 227.822 345.47 227.374 345.556 226.609C345.657 225.757 345.845 225.05 345.47 223.541C345.246 222.646 344.958 222.133 345.419 221.274C346.003 220.184 346.746 219.137 347.33 218.047C347.835 217.102 348.217 215.752 347.691 214.438L348.102 213.406C345.917 212.373 344.388 211.976 343.069 212.243C342.326 212.395 341.987 213.124 340.509 215.189Z" fill="#FFD6C7"/>
<g opacity="0.05">
<path opacity="0.05" d="M324.934 259.268C324.934 259.268 319.065 235.712 323.283 231.431L329.744 230.984L324.934 259.268Z" fill="black"/>
</g>
<path opacity="0.15" d="M165.957 231.662L169.065 257.903L170.507 230.363L165.957 222.769V231.662Z" fill="black"/>
<path opacity="0.15" d="M70.54 273.677L79.1062 264.956L82.9854 236.802" fill="black"/>
<path opacity="0.05" d="M102.367 221.83L98.0264 198.008L103.369 202.339L102.367 221.83Z" fill="black"/>
<path opacity="0.05" d="M272.434 289.017L251.949 258.452L263.378 290.786L272.333 300.683L272.434 289.017Z" fill="black"/>
<path opacity="0.05" d="M252.736 243.949L264.98 215.182L259.723 213.702L252.736 243.949Z" fill="black"/>
<path d="M305.186 206.858L298.328 200.477L296.389 202.231L302.727 208.944L305.186 206.858Z" fill="white"/>
<path d="M351.26 211.399L341.302 208.822L340.336 211.529L349.335 216.315L351.26 211.399Z" fill="white"/>
<path opacity="0.27" d="M59.6448 149.778H34.48C33.2542 149.778 32.252 148.775 32.252 147.548V142.025C32.252 140.798 33.2542 139.794 34.48 139.794H59.652C60.8778 139.794 61.88 140.798 61.88 142.025V147.548C61.8728 148.775 60.8706 149.778 59.6448 149.778Z" fill="#8CA3E5"/>
<path opacity="0.27" d="M64.9663 162.837H48.519C47.7187 162.837 47.0625 162.181 47.0625 161.379V157.77C47.0625 156.968 47.7187 156.312 48.519 156.312H64.9663C65.7666 156.312 66.4228 156.968 66.4228 157.77V161.379C66.4228 162.181 65.7666 162.837 64.9663 162.837Z" fill="#8CA3E5"/>
<path opacity="0.27" d="M382.958 161.495H366.511C365.711 161.495 365.055 160.838 365.055 160.036V156.427C365.055 155.626 365.711 154.969 366.511 154.969H382.958C383.759 154.969 384.415 155.626 384.415 156.427V160.036C384.408 160.838 383.759 161.495 382.958 161.495Z" fill="#8CA3E5"/>
<path opacity="0.05" d="M120.935 177.621L123.524 158.592C123.524 158.592 117.387 173.463 114.986 175.918C114.986 175.918 117.344 178.192 120.935 177.621Z" fill="black"/>
</g>
<defs>
<filter id="filter0_d" x="10.252" y="7" width="396.163" height="388.999" filterUnits="userSpaceOnUse" color-interpolation-filters="sRGB">
<feFlood flood-opacity="0" result="BackgroundImageFix"/>
<feColorMatrix in="SourceAlpha" type="matrix" values="0 0 0 0 0 0 0 0 0 0 0 0 0 0 0 0 0 0 127 0"/>
<feOffset dy="5"/>
<feGaussianBlur stdDeviation="11"/>
<feColorMatrix type="matrix" values="0 0 0 0 0.000746533 0 0 0 0 0.093525 0 0 0 0 0.179167 0 0 0 0.12 0"/>
<feBlend mode="normal" in2="BackgroundImageFix" result="effect1_dropShadow"/>
<feBlend mode="normal" in="SourceGraphic" in2="effect1_dropShadow" result="shape"/>
</filter>
<linearGradient id="paint0_linear" x1="207.555" y1="136.624" x2="195.07" y2="138.61" gradientUnits="userSpaceOnUse">
<stop stop-color="#FFC5A4"/>
<stop offset="1" stop-color="#FF939E"/>
</linearGradient>
<linearGradient id="paint1_linear" x1="288.904" y1="181.196" x2="223.611" y2="225.327" gradientUnits="userSpaceOnUse">
<stop stop-color="#FFC5A4"/>
<stop offset="1" stop-color="#FF939E"/>
</linearGradient>
<linearGradient id="paint2_linear" x1="239.902" y1="142.195" x2="236.906" y2="141.374" gradientUnits="userSpaceOnUse">
<stop stop-color="#FFC5A4"/>
<stop offset="0.0887" stop-color="#FFBDA3"/>
<stop offset="0.4219" stop-color="#FFA6A0"/>
<stop offset="0.7336" stop-color="#FF989F"/>
<stop offset="1" stop-color="#FF939E"/>
</linearGradient>
<linearGradient id="paint3_linear" x1="249.146" y1="176.777" x2="242.938" y2="177.726" gradientUnits="userSpaceOnUse">
<stop stop-color="#FFC5A4"/>
<stop offset="1" stop-color="#FF939E"/>
</linearGradient>
<linearGradient id="paint4_linear" x1="237.106" y1="150.589" x2="230.703" y2="149.471" gradientUnits="userSpaceOnUse">
<stop stop-color="#FFC5A4"/>
<stop offset="0.0887" stop-color="#FFBDA3"/>
<stop offset="0.4219" stop-color="#FFA6A0"/>
<stop offset="0.7336" stop-color="#FF989F"/>
<stop offset="1" stop-color="#FF939E"/>
</linearGradient>
<linearGradient id="paint5_linear" x1="250.939" y1="196.478" x2="290.107" y2="197.568" gradientUnits="userSpaceOnUse">
<stop stop-color="#004CE0"/>
<stop offset="1" stop-color="#1DA6F3"/>
</linearGradient>
<linearGradient id="paint6_linear" x1="251.184" y1="219.224" x2="292.092" y2="220.875" gradientUnits="userSpaceOnUse">
<stop stop-color="#004CE0"/>
<stop offset="1" stop-color="#1DA6F3"/>
</linearGradient>
<linearGradient id="paint7_linear" x1="267.445" y1="145.283" x2="264.316" y2="145.284" gradientUnits="userSpaceOnUse">
<stop stop-color="#FFC5A4"/>
<stop offset="0.0887" stop-color="#FFBDA3"/>
<stop offset="0.4219" stop-color="#FFA6A0"/>
<stop offset="0.7336" stop-color="#FF989F"/>
<stop offset="1" stop-color="#FF939E"/>
</linearGradient>
<linearGradient id="paint8_linear" x1="269.593" y1="147.254" x2="264.488" y2="147.257" gradientUnits="userSpaceOnUse">
<stop stop-color="#FFC5A4"/>
<stop offset="0.0887" stop-color="#FFBDA3"/>
<stop offset="0.4219" stop-color="#FFA6A0"/>
<stop offset="0.7336" stop-color="#FF989F"/>
<stop offset="1" stop-color="#FF939E"/>
</linearGradient>
<linearGradient id="paint9_linear" x1="268.229" y1="148.958" x2="266.138" y2="149.887" gradientUnits="userSpaceOnUse">
<stop stop-color="#FFC5A4"/>
<stop offset="0.0887" stop-color="#FFBDA3"/>
<stop offset="0.4219" stop-color="#FFA6A0"/>
<stop offset="0.7336" stop-color="#FF989F"/>
<stop offset="1" stop-color="#FF939E"/>
</linearGradient>
<linearGradient id="paint10_linear" x1="270.322" y1="153.198" x2="276.569" y2="151.404" gradientUnits="userSpaceOnUse">
<stop stop-color="#FFC5A4"/>
<stop offset="0.0887" stop-color="#FFBDA3"/>
<stop offset="0.4219" stop-color="#FFA6A0"/>
<stop offset="0.7336" stop-color="#FF989F"/>
<stop offset="1" stop-color="#FF939E"/>
</linearGradient>
<linearGradient id="paint11_linear" x1="329.057" y1="141.228" x2="250.68" y2="171.401" gradientUnits="userSpaceOnUse">
<stop stop-color="#ECF3FE"/>
<stop offset="1" stop-color="#C6DAFD"/>
</linearGradient>
<linearGradient id="paint12_linear" x1="193.635" y1="141.662" x2="197.063" y2="141.479" gradientUnits="userSpaceOnUse">
<stop stop-color="#FFC5A4"/>
<stop offset="0.0887" stop-color="#FFBDA3"/>
<stop offset="0.4219" stop-color="#FFA6A0"/>
<stop offset="0.7336" stop-color="#FF989F"/>
<stop offset="1" stop-color="#FF939E"/>
</linearGradient>
<linearGradient id="paint13_linear" x1="184.877" y1="147.546" x2="191.311" y2="147.535" gradientUnits="userSpaceOnUse">
<stop stop-color="#FFC5A4"/>
<stop offset="0.0887" stop-color="#FFBDA3"/>
<stop offset="0.4219" stop-color="#FFA6A0"/>
<stop offset="0.7336" stop-color="#FF989F"/>
<stop offset="1" stop-color="#FF939E"/>
</linearGradient>
<linearGradient id="paint14_linear" x1="109.23" y1="216.396" x2="56.8024" y2="218.114" gradientUnits="userSpaceOnUse">
<stop stop-color="#7763ED"/>
<stop offset="1" stop-color="#462BD9"/>
</linearGradient>
<linearGradient id="paint15_linear" x1="120.239" y1="117.055" x2="123.578" y2="116.154" gradientUnits="userSpaceOnUse">
<stop stop-color="#FFC5A4"/>
<stop offset="0.0887" stop-color="#FFBDA3"/>
<stop offset="0.4219" stop-color="#FFA6A0"/>
<stop offset="0.7336" stop-color="#FF989F"/>
<stop offset="1" stop-color="#FF939E"/>
</linearGradient>
<linearGradient id="paint16_linear" x1="117.25" y1="121.444" x2="120.407" y2="122.885" gradientUnits="userSpaceOnUse">
<stop stop-color="#FFC5A4"/>
<stop offset="0.0887" stop-color="#FFBDA3"/>
<stop offset="0.4219" stop-color="#FFA6A0"/>
<stop offset="0.7336" stop-color="#FF989F"/>
<stop offset="1" stop-color="#FF939E"/>
</linearGradient>
<linearGradient id="paint17_linear" x1="117.345" y1="119.596" x2="121.759" y2="118.405" gradientUnits="userSpaceOnUse">
<stop stop-color="#FFC5A4"/>
<stop offset="0.0887" stop-color="#FFBDA3"/>
<stop offset="0.4219" stop-color="#FFA6A0"/>
<stop offset="0.7336" stop-color="#FF989F"/>
<stop offset="1" stop-color="#FF939E"/>
</linearGradient>
<linearGradient id="paint18_linear" x1="109.261" y1="122.119" x2="118.401" y2="122.362" gradientUnits="userSpaceOnUse">
<stop stop-color="#FFC5A4"/>
<stop offset="0.0887" stop-color="#FFBDA3"/>
<stop offset="0.4219" stop-color="#FFA6A0"/>
<stop offset="0.7336" stop-color="#FF989F"/>
<stop offset="1" stop-color="#FF939E"/>
</linearGradient>
<linearGradient id="paint19_linear" x1="106.117" y1="244.428" x2="75.3581" y2="245.178" gradientUnits="userSpaceOnUse">
<stop stop-color="#7763ED"/>
<stop offset="1" stop-color="#462BD9"/>
</linearGradient>
<linearGradient id="paint20_linear" x1="191.518" y1="241.195" x2="133.335" y2="255.307" gradientUnits="userSpaceOnUse">
<stop stop-color="#FFC5A4"/>
<stop offset="1" stop-color="#FF939E"/>
</linearGradient>
<linearGradient id="paint21_linear" x1="319.432" y1="146.155" x2="318.172" y2="144.588" gradientUnits="userSpaceOnUse">
<stop stop-color="#FFC5A4"/>
<stop offset="0.0887" stop-color="#FFBDA3"/>
<stop offset="0.4219" stop-color="#FFA6A0"/>
<stop offset="0.7336" stop-color="#FF989F"/>
<stop offset="1" stop-color="#FF939E"/>
</linearGradient>
<linearGradient id="paint22_linear" x1="322.508" y1="148.81" x2="320.207" y2="149.159" gradientUnits="userSpaceOnUse">
<stop stop-color="#FFC5A4"/>
<stop offset="0.0887" stop-color="#FFBDA3"/>
<stop offset="0.4219" stop-color="#FFA6A0"/>
<stop offset="0.7336" stop-color="#FF989F"/>
<stop offset="1" stop-color="#FF939E"/>
</linearGradient>
<linearGradient id="paint23_linear" x1="322.683" y1="144.519" x2="319.151" y2="148.019" gradientUnits="userSpaceOnUse">
<stop stop-color="#FFC5A4"/>
<stop offset="0.0887" stop-color="#FFBDA3"/>
<stop offset="0.4219" stop-color="#FFA6A0"/>
<stop offset="0.7336" stop-color="#FF989F"/>
<stop offset="1" stop-color="#FF939E"/>
</linearGradient>
<linearGradient id="paint24_linear" x1="315.131" y1="152.584" x2="354.719" y2="154.972" gradientUnits="userSpaceOnUse">
<stop stop-color="#004CE0"/>
<stop offset="1" stop-color="#1DA6F3"/>
</linearGradient>
<linearGradient id="paint25_linear" x1="331.432" y1="152.218" x2="367.901" y2="154.08" gradientUnits="userSpaceOnUse">
<stop stop-color="#004CE0"/>
<stop offset="1" stop-color="#1DA6F3"/>
</linearGradient>
<linearGradient id="paint26_linear" x1="323.399" y1="151.649" x2="330.039" y2="147.682" gradientUnits="userSpaceOnUse">
<stop stop-color="#FFC5A4"/>
<stop offset="0.0887" stop-color="#FFBDA3"/>
<stop offset="0.4219" stop-color="#FFA6A0"/>
<stop offset="0.7336" stop-color="#FF989F"/>
<stop offset="1" stop-color="#FF939E"/>
</linearGradient>
</defs>
</svg>
