<svg width="16" height="16" viewBox="0 0 16 16" fill="none" xmlns="http://www.w3.org/2000/svg">
<path d="M8 16C12.4183 16 16 12.4183 16 8C16 3.58172 12.4183 0 8 0C3.58172 0 0 3.58172 0 8C0 12.4183 3.58172 16 8 16Z" fill="#42C184"/>
<path d="M14.7002 3.63752L7.62512 10.9626L7.63763 11.7501H7.96263L15.6252 5.57503C15.4002 4.88754 15.0877 4.22503 14.7002 3.63752Z" fill="#319C69"/>
<path d="M15.85 3.28755L14.4375 1.88754C14.25 1.70002 13.9375 1.70002 13.7375 1.88754L7.69996 8.12507L5.08744 5.55006C4.89993 5.36255 4.58743 5.36255 4.38745 5.55006L3.13743 6.78757C2.94992 6.97509 2.94992 7.28758 3.13743 7.47509L7.31247 11.6126C7.42498 11.7251 7.57498 11.7626 7.72497 11.7501C7.87497 11.7626 8.02496 11.7251 8.13748 11.6126L15.85 3.98754C16.0375 3.78753 16.0375 3.47503 15.85 3.28755Z" fill="#FBFBFB"/>
<path d="M8.13755 11.6125L15.8501 3.9875C16.0376 3.79999 16.0376 3.48749 15.8501 3.29998L15.6251 3.08749L7.71254 10.8625L3.33751 6.60002L3.15 6.78753C2.96249 6.97504 2.96249 7.28754 3.15 7.47505L7.32504 11.6126C7.43755 11.7251 7.58755 11.7626 7.73755 11.7501C7.87504 11.7625 8.02503 11.7251 8.13755 11.6125Z" fill="#E6E8E9"/>
</svg>
