<svg width="407" height="396" viewBox="0 0 407 396" fill="none" xmlns="http://www.w3.org/2000/svg">
<path opacity="0.25" d="M47.335 162.088C52.7775 193.086 17.92 235.316 109.311 287.66C160.269 316.844 213.308 298.717 239.175 310.317C286.772 331.663 320.873 314.046 345.415 260.303C359.419 229.64 388.493 175.77 335.125 143.186C264.105 99.8314 191.9 25.5395 133.987 24.0669C38.5855 21.6438 34.3948 88.4189 47.335 162.088Z" fill="url(#paint0_linear)"/>
<g filter="url(#filter0_d)">
<path d="M281.805 176.922C281.805 176.922 270.284 172.818 269.092 171.915C268.523 171.486 267.592 169.994 266.682 168.367C265.685 166.587 266.093 166.185 266.2 165.141C266.307 164.07 266.388 163.702 267.191 164.137C268.871 165.047 267.82 166.674 270.237 168.314C270.873 168.749 273.129 169.659 274.166 169.599C275.023 169.552 275.217 168.949 274.628 168.327C274.153 167.825 273.711 167.417 273.343 167.182C271.616 166.071 272.098 164.224 272.446 164.137C273.149 163.963 275.565 166.205 277.192 166.968C278.765 167.704 281.088 168.441 284.034 172.825" fill="#FFD6C7"/>
<path d="M298.106 193.997C293.795 188.14 285.012 180.502 281.812 178.153C281.095 177.631 278.217 175.616 278.217 175.616C278.692 173.688 281.51 169.652 282.521 169.826C285.012 170.248 289.684 172.718 294.049 175.047C304.532 180.636 307.799 183.575 309.258 186.366C313.71 194.894 300.455 197.183 298.106 193.997Z" fill="#FD867B"/>
<path opacity="0.1" d="M298.106 193.997C293.795 188.14 285.012 180.502 281.812 178.153C281.095 177.631 278.217 175.616 278.217 175.616C278.692 173.688 281.51 169.652 282.521 169.826C285.012 170.248 289.684 172.718 294.049 175.047C304.532 180.636 307.799 183.575 309.258 186.366C313.71 194.894 300.455 197.183 298.106 193.997Z" fill="black"/>
<path d="M280.955 177.544C280.955 177.544 284.222 171.553 285.982 170.998L282.749 169.371C282.749 169.371 280.479 170.214 278.217 175.623L280.955 177.544Z" fill="white"/>
<path d="M330.312 129.651C330.138 127.991 328.813 127.697 328.17 125.823C327.534 123.948 330.821 123.299 329.971 120.434C328.833 116.605 329.201 112.04 331.142 114.571C332.147 115.883 334.275 115.742 335.179 119.892C335.427 121.01 336.491 126.191 336.304 128.487" fill="#FFD6C7"/>
<path d="M329.702 127.737C327.808 126.787 325.665 121.974 325.344 120.455C325.023 118.928 324.788 116.94 325.719 117.362C326.817 117.857 326.629 118.962 327.433 120.14C327.741 120.595 328.229 121.432 328.865 121.887C329.548 122.376 331.302 123.085 331.289 123.574L331.65 125.803C331.617 127.081 330.793 128.286 329.702 127.737Z" fill="#FFD6C7"/>
<path d="M176.931 72.917L213.435 98.473" stroke="#353C82" stroke-width="2" stroke-miterlimit="10"/>
<path d="M243.948 111.505L288.097 105.434" stroke="#353C82" stroke-width="2" stroke-miterlimit="10"/>
<path d="M178.752 73.9946L217.78 52.4814" stroke="#353C82" stroke-width="2" stroke-miterlimit="10"/>
<path d="M167.894 77.5554L110.269 52.4277" stroke="#353C82" stroke-width="2" stroke-miterlimit="10"/>
<path d="M234.408 123.38C246.446 123.38 256.205 113.622 256.205 101.585C256.205 89.5486 246.446 79.791 234.408 79.791C222.37 79.791 212.611 89.5486 212.611 101.585C212.611 113.622 222.37 123.38 234.408 123.38Z" fill="url(#paint1_linear)"/>
<path d="M234.408 102.79C238.05 102.79 241.002 99.8385 241.002 96.1972C241.002 92.5559 238.05 89.604 234.408 89.604C230.767 89.604 227.814 92.5559 227.814 96.1972C227.814 99.8385 230.767 102.79 234.408 102.79Z" fill="white"/>
<path d="M234.409 105.595C228.263 105.595 222.814 108.573 219.427 113.158C222.821 117.75 228.27 120.722 234.409 120.722C240.554 120.722 246.003 117.744 249.391 113.158C245.997 108.573 240.547 105.595 234.409 105.595Z" fill="white"/>
<path d="M193.018 157.035C194.236 155.897 193.66 154.659 194.772 153.012C195.883 151.372 198.386 153.594 200.154 151.185C202.51 147.965 206.373 145.495 205.536 148.574C205.101 150.167 206.5 151.774 203.742 155.007C202.999 155.877 199.518 159.859 197.576 161.104" fill="#FFD6C7"/>
<path d="M194.169 155.388C193.781 153.306 196.311 148.688 197.335 147.51C198.353 146.332 199.799 144.94 200.027 145.937C200.294 147.108 199.31 147.63 198.855 148.982C198.681 149.505 198.306 150.401 198.333 151.178C198.36 152.021 198.848 153.842 198.453 154.13L196.9 155.763C195.849 156.513 194.39 156.593 194.169 155.388Z" fill="#FFD6C7"/>
<path d="M190.28 161.767C189.061 160.629 189.637 159.391 188.526 157.744C187.414 156.104 184.911 158.327 183.143 155.917C180.787 152.697 176.924 150.227 177.761 153.307C178.196 154.9 176.797 156.506 179.555 159.739C180.298 160.609 183.779 164.592 185.721 165.837" fill="#FFD6C7"/>
<path d="M220.364 167.283C211.641 168.628 208.013 180.871 204.893 178.742C198.413 174.311 194.591 165.669 191.685 161.506C191.23 160.857 190.005 160.268 189.322 160.669L184.978 165.027C183.418 166.285 185.908 173.641 188.706 177.45C195.441 186.614 199.451 193.695 202.443 193.454C210.945 192.765 221.803 183.086 226.396 183.474C232.635 184.003 236.926 182.872 235.734 177.403C235.734 177.403 228.799 165.984 220.364 167.283Z" fill="white"/>
<path d="M189.128 160.127C189.516 158.046 186.985 153.427 185.961 152.249C184.944 151.071 183.498 149.679 183.27 150.676C183.002 151.847 183.986 152.37 184.442 153.722C184.616 154.244 184.99 155.141 184.964 155.917C184.937 156.761 184.448 158.581 184.843 158.869L186.396 160.502C187.447 161.245 188.907 161.326 189.128 160.127Z" fill="#FFD6C7"/>
<path d="M303.749 157.102C303.749 157.102 303.682 158.715 301.145 158.942" stroke="black" stroke-miterlimit="10"/>
<path d="M289.557 289.28L287.89 309.802L278.196 308.122L278.799 289.661L289.557 289.28Z" fill="#FFD6C7"/>
<path d="M311.146 277.579L319.855 295.893L310.791 299.701L302.289 283.697L311.146 277.579Z" fill="#FFD6C7"/>
<path opacity="0.1" d="M311.146 277.579L319.855 295.893L310.791 299.701L302.289 283.697L311.146 277.579Z" fill="black"/>
<path d="M286.444 256.541L304.318 287.305C304.318 287.305 306.721 287.071 309.935 285.732C312.572 284.634 315.565 283.121 315.357 282.539C310.296 268.068 306.273 258.904 302.229 248.837C298.507 239.56 298.286 242.732 298.286 242.732C296.037 238.83 281.644 250.189 286.444 256.541Z" fill="#513AD0"/>
<path d="M304.191 138.728C301.888 138.929 297.818 140.93 297.711 143.239C297.524 147.282 298.374 148.514 297.932 152.865C297.584 156.272 299.78 160.603 301.6 161.198C305.202 162.383 311.997 155.643 312.191 154.578C312.847 150.984 316.81 146.7 316.81 146.7L312.111 140.067L304.191 138.728Z" fill="#FFD6C7"/>
<path d="M303.072 158.842C303.072 158.842 305.951 166.921 305.931 172.651C305.924 175.215 311.119 172.116 315.899 169.077L312.19 154.572L303.072 158.842Z" fill="#FFD6C7"/>
<path d="M312.431 158.762C312.839 159.491 313.85 161.064 313.85 161.064C313.85 161.064 313.696 157.999 315.089 155.06C316.22 152.671 317.177 150.201 317.646 147.744C318.355 144.049 317.726 138.534 308.146 137.55C308.146 137.55 308.903 147.001 309.566 150.355C310.041 152.764 310.992 156.198 312.431 158.762Z" fill="black"/>
<path d="M301.486 138.112C304.686 137.235 308.147 137.543 308.147 137.543C318.249 137.965 316.809 146.693 316.809 146.693C316.294 149.25 315.544 151.352 313.054 152.128L309.184 153.594C309.184 153.594 309.305 151.011 308.702 148.126C308.388 146.606 304.88 145.903 304.197 145.12C303.146 143.915 302.992 143.387 302.992 143.387C303.019 144.491 305.656 147.717 305.656 147.717L301.647 146.559C301.078 145.616 300.087 144.471 299.96 143.661C299.96 143.661 300.288 144.699 300.629 146.379L297.442 145.857C296.137 143.561 297.228 139.277 301.486 138.112Z" fill="black"/>
<path d="M320.002 165.328C325.545 171.018 332.554 163.983 329.12 172.437C324.916 182.805 321.602 208.776 321.261 209.312C317.947 214.539 298.775 214.647 298.239 211.065C296.318 198.281 297.429 185.704 297.429 185.704L299.745 178.24C300.495 175.041 302.222 171.768 305.208 170.382C309.921 168.186 316.682 161.921 320.002 165.328Z" fill="#FD867B"/>
<path d="M313.85 161.064C313.85 161.064 305.67 166.299 304.712 166.694C303.112 167.35 306.901 173.996 306.901 173.996L316.495 164.137L313.85 161.064Z" fill="white"/>
<path d="M321.307 186.005C323.61 183.193 332.373 168.488 338.097 159.558C340.661 155.562 340.507 152.108 339.543 142.443C338.954 136.519 338.097 131.459 336.965 128.909C336.316 127.449 328.959 129.846 329.173 130.709C330.586 136.472 328.316 150.991 326.241 153.969C320.022 162.905 317.846 162.463 312.344 168.394C308.073 172.999 311.065 187.758 317.384 190.576" fill="#FD867B"/>
<path d="M298.668 210.838C298.809 212.203 296.633 215.47 296.633 215.47L283.733 240.745C278.886 249.078 278.083 253.416 278.29 263.489L278.217 294.333C278.217 294.333 279.864 295.933 282.756 296.187C287.033 296.556 290.039 295.317 290.153 294.675C293.781 273.771 293.795 266.167 294.243 257.184C294.477 252.492 301.861 246.916 307.049 241.481C316.502 231.588 323.732 226.775 323.732 216.474C323.732 211.547 322.547 207.417 322.674 200.777C322.674 200.777 317.037 203.046 308.321 207.076C299.612 211.092 298.668 210.838 298.668 210.838Z" fill="url(#paint2_linear)"/>
<path d="M263.603 317.607C264.62 316.148 268.771 315.03 271.609 312.72C273.946 310.819 275.907 309.206 276.657 307.419C277.406 305.625 277.989 304.246 277.989 304.246C278.96 303.838 280.078 303.972 280.921 304.601C280.921 304.601 283.364 307.613 287.107 305.94C289.389 304.916 290.38 311.797 289.55 314.909C289.262 316 288.379 316.83 287.267 317.051C284.723 317.553 280.078 318.617 277.741 320.05C273.798 322.473 265.343 321.536 263.937 320.324C263.154 319.648 263 318.47 263.603 317.607Z" fill="black"/>
<path d="M310.176 153.969C313.449 153.387 314.34 151.995 314.514 150.248C314.621 149.157 313.784 147.798 312.753 147.751C311.582 147.697 310.497 148.032 310.323 149.284L310.176 153.969Z" fill="#FFD6C7"/>
<path d="M302.089 314.273C302.243 312.5 305.282 309.461 306.594 306.047C307.672 303.229 308.563 300.86 308.322 298.932C308.081 297.004 307.893 295.525 307.893 295.525C308.529 294.688 309.567 294.246 310.611 294.367C310.611 294.367 314.233 295.759 316.636 292.439C318.102 290.411 322.393 295.886 323.23 298.992C323.525 300.083 323.176 301.241 322.326 301.984C320.371 303.691 316.877 306.931 315.572 309.334C313.362 313.397 305.57 316.804 303.749 316.462C302.718 316.268 302.002 315.318 302.089 314.273Z" fill="black"/>
<path opacity="0.32" d="M303.748 160.796L308.273 158.547L304.578 164.13L303.748 160.796Z" fill="url(#paint3_linear)"/>
<path d="M338.097 130.736C338.097 130.736 330.666 131.398 329.106 132.677L328.316 129.397C328.316 129.397 332.286 127.241 337.642 128.085L338.097 130.736Z" fill="white"/>
<path d="M114.62 294.246C113.254 294.554 113.174 297.185 112.156 294.922C111.674 293.845 111.855 291.094 110.429 292.218C109.257 293.149 108.97 294.728 106.76 295.973C104.852 297.044 104.886 299.307 105.602 301.154C106.868 304.4 105.75 305.097 105.622 307.66C105.448 311.295 106.928 317.942 111.654 320.057C116.373 322.172 116.454 318.765 116.28 317.5C115.845 314.267 116.715 306 117.016 301.529C117.13 299.829 118.107 297.513 117.947 295.98C117.886 295.384 115.222 294.112 114.62 294.246Z" fill="black"/>
<path d="M127.426 255.123C126.061 255.397 125.913 258.034 124.949 255.745C124.487 254.661 124.728 251.91 123.276 253.007C122.084 253.911 121.455 255.149 119.527 256.682C117.813 258.041 117.579 259.975 118.262 261.836C119.453 265.109 118.322 265.785 118.148 268.336C117.9 271.964 119.319 274.628 123.999 276.843C128.678 279.059 128.825 275.652 128.678 274.38C128.31 271.14 129.267 266.91 129.669 262.445C129.823 260.745 130.847 258.456 130.72 256.916C130.666 256.327 128.029 255.002 127.426 255.123Z" fill="black"/>
<g opacity="0.15">
<path opacity="0.15" d="M121.153 223.355C121.173 223.362 121.186 223.368 121.199 223.375C121.186 223.368 121.166 223.362 121.153 223.355Z" fill="#C6DAFA"/>
</g>
<path d="M140.908 171.701L138.057 178.274L148.734 186.152L140.908 171.701Z" fill="#D0D6E2"/>
<path d="M155.027 197.839C155.027 197.839 154.732 199.894 150.307 198.87C144.784 197.591 134.013 192.424 134.013 192.424C131.329 200.737 126.475 206.5 127.995 218.609C129.407 229.861 136.778 233.322 138.036 240.986C138.538 244.031 128.088 247.378 123.282 253.014C120.584 256.173 132.942 259.694 132.681 262.8C132.393 266.18 148.587 266.187 152.958 254.42C153.949 251.742 154.545 248.951 154.725 246.1C155.341 236.126 157.242 215.704 155.027 197.839Z" fill="#072856"/>
<path d="M127.707 214.473C127.707 214.473 153.514 234.687 151.901 241.441C151.044 245.029 150.187 245.33 145.949 257.298C143.365 264.608 129.515 280.15 120.424 293.925C118.208 297.279 118.348 299.12 117.197 300.231C115.015 302.339 109.753 292.921 109.753 292.921C115.363 272.794 117.994 266.435 122.553 258.516C123.456 256.943 126.79 254.226 129.903 246.06C131.797 241.106 127.808 216.086 127.707 214.473Z" fill="#072856"/>
<path d="M115.169 136.532C114.908 134.886 116.12 134.263 116.253 132.282C116.387 130.307 113.04 130.521 113.134 127.536C113.254 123.547 111.721 119.229 110.496 122.175C109.86 123.701 107.772 124.109 107.959 128.353C108.013 129.497 108.307 134.779 109.077 136.947" fill="#FFD6C7"/>
<path d="M115.27 134.525C116.856 133.119 117.693 127.918 117.613 126.365C117.532 124.812 117.251 122.824 116.455 123.474C115.524 124.237 115.979 125.254 115.511 126.593C115.33 127.115 113.623 128.735 113.128 129.337C112.592 129.986 112.532 130.435 112.672 130.903L112.893 133.146C113.255 134.377 114.353 135.335 115.27 134.525Z" fill="#FFD6C7"/>
<path d="M143.928 149.679C144.269 150.917 145.869 153.461 146.96 154.485C150.809 158.113 155.214 158.769 155.931 156.439C156.874 153.367 157.597 151.593 158.039 148.059C158.448 144.772 158.126 143.507 158.394 141.205C158.488 140.401 158.347 139.585 157.999 138.855C157.671 138.166 157.263 137.235 156.935 136.278C155.904 133.313 153.715 136.861 151.111 135.703C145.615 133.266 145.333 135.937 145.333 135.937C140.567 140.181 143.405 146.633 143.405 146.633C143.405 146.633 143.044 149.946 142.682 154.532C142.321 159.117 138.873 164.123 138.512 168.227C137.682 177.651 153.112 174.793 153.293 171.694C153.373 170.362 151.941 163.983 152.697 160.054C153.132 157.771 153.721 155.308 153.721 155.308" fill="#FFD6C7"/>
<path d="M146.505 147.229L143.399 146.64L143.057 151.051C143.057 151.051 140.54 146.74 140.995 140.622C141.257 137.155 143.687 135.763 143.687 135.763C146.967 132.215 152.657 132.858 156.131 134.806C159.191 136.519 160.054 138.761 160.108 140.683C160.148 141.921 159.05 142.865 157.879 142.63C157.524 142.557 157.196 142.503 156.968 142.476C154.224 142.195 154.471 142.543 151.727 141.359C150.321 140.749 149.183 140.455 148.346 140.314C147.382 140.154 146.927 141.352 146.538 142.282" fill="#2A2A2C"/>
<path opacity="0.4" d="M153.326 149.893C153.326 149.893 153.581 149.739 153.721 149.665C154.163 149.431 154.263 149.291 154.745 148.963C155.408 148.514 155.736 149.585 155.167 149.926C154.699 150.208 154.002 150.054 153.326 149.893Z" fill="url(#paint4_linear)"/>
<path opacity="0.15" d="M151.271 153.179C151.271 153.179 151.928 153.313 153.179 153.253C153.809 153.219 154.11 153.233 154.11 153.233C154.11 153.233 154.157 153.768 153.072 153.822C152.028 153.869 151.271 153.179 151.271 153.179Z" fill="url(#paint5_linear)"/>
<path opacity="0.74" d="M150.193 151.118C150.193 151.118 151.392 152.436 153.507 152.517C154.478 152.55 155.04 152.343 155.154 152.115C155.248 151.921 154.933 151.6 153.962 151.573C151.981 151.506 151.599 151.74 150.193 151.118Z" fill="url(#paint6_linear)"/>
<path d="M144.222 147.771C141.631 147.804 139.931 146.405 140.319 143.273C140.573 141.178 143.104 140.963 144.342 142.563L144.222 147.771Z" fill="#FFD6C7"/>
<path d="M153.675 134.002C154.478 134.25 155.188 134.545 155.911 134.879C156.627 135.214 157.323 135.602 157.979 136.051C158.629 136.506 159.258 137.001 159.773 137.624C160.289 138.233 160.691 138.949 160.871 139.712C160.543 138.996 160.034 138.427 159.459 137.972C158.883 137.503 158.22 137.175 157.551 136.887C156.881 136.6 156.179 136.385 155.469 136.218C154.766 136.051 154.023 135.917 153.354 135.857L153.675 134.002Z" fill="#2A2A2C"/>
<path d="M152.41 142.014C152.41 142.014 152.43 140.02 151.733 139.478C151.733 139.478 155.081 142.001 155.148 142.724L152.41 142.014Z" fill="#FFD6C7"/>
<path fill-rule="evenodd" clip-rule="evenodd" d="M138.412 160.675C134.895 160.224 130.864 160.179 127.202 160.139C121.188 160.073 116.169 160.018 116.059 158.186C115.61 150.81 115.47 143.186 115.737 138.119C115.777 137.322 116.259 135.08 116.259 135.08L107.329 135.656C107.329 135.656 105.408 141.6 104.665 148.353C103.433 159.659 102.784 167.363 105.294 169.01C110.282 172.283 118.411 174.134 124.644 175.554C126.78 176.04 128.692 176.476 130.18 176.901C130.208 176.986 130.237 177.072 130.265 177.158C131.421 180.663 132.809 184.875 133.096 189.164C133.397 193.675 130.298 202.243 130.298 202.243C132.058 208.843 139.71 212.129 146.659 212.15C150.602 212.163 154.11 210.824 155.094 208.428C155.977 206.279 157.069 203.468 157.899 200.811C158.549 198.732 159.31 196.573 160.083 194.38C161.537 190.258 163.032 186.017 163.913 181.966C169.244 184.065 174.272 185.823 177.74 185.362C182.922 184.673 199.544 161.386 199.33 160.797C198.567 158.675 196.953 156.968 194.938 155.964L192.796 154.893L176.984 170.777C176.459 171.221 172.187 169.018 167.298 166.495C161.648 163.581 155.174 160.242 152.7 160.067C152.693 160.063 152.69 160.06 152.69 160.06C152.604 159.935 152.629 160.384 152.658 160.897C152.674 161.178 152.69 161.479 152.69 161.714C152.71 164.746 149.403 165.576 146.86 163.922C146.758 163.856 146.656 163.789 146.555 163.723C146.165 163.276 145.653 162.865 144.999 162.5C144.751 162.362 144.489 162.232 144.215 162.109C142.154 160.633 140.587 159.377 140.587 159.377C139.816 159.825 139.092 160.257 138.412 160.675Z" fill="url(#paint7_linear)"/>
<path d="M271.629 162.43C272.847 161.292 272.272 160.054 273.383 158.407C274.494 156.767 276.998 158.989 278.765 156.58C281.122 153.36 284.984 150.89 284.147 153.969C283.712 155.562 285.111 157.169 282.353 160.402C281.61 161.272 278.129 165.254 276.188 166.499" fill="#FFD6C7"/>
<path d="M237.408 168.501C239.516 170.616 247.148 172.959 248.42 178.963C249.009 181.741 217.338 176.968 222.881 173.628C225.773 171.888 226.563 169.465 227.306 168.976C226.998 167.169 226.831 164.137 226.549 163.648C226.355 163.307 225.385 163.34 225.706 163.119L233.98 157.537C234.087 157.463 234.228 157.53 234.241 157.657C234.348 159.19 235.593 166.674 237.408 168.501Z" fill="#FFD6C7"/>
<path d="M236.431 155.696C236.431 155.696 235.313 158.266 233.545 159.953C230.252 163.112 227.895 163.889 225.325 164.23C223.491 164.478 223.189 162.992 222.366 161.372C221.757 160.174 220.806 157.624 220.445 155.944C219.099 149.685 220.599 150.421 220.9 145.468C221.06 142.885 221.998 142.577 224.247 141.887C229.355 140.328 232.856 143.614 235.406 145.415C235.842 145.723 236.33 145.97 236.852 146.104C239.423 146.773 237.428 152.952 236.678 155.02" fill="#FFD6C7"/>
<path d="M221.83 141.204C223.711 139.913 227.413 139.377 229.963 139.926C234.837 140.963 242.147 141.633 238.378 159.966C237.341 165.007 250.207 170.556 250.388 171.339C250.944 173.742 242.087 179.92 239.684 180.476C238.994 180.636 238.854 180.998 237.943 181.239C237.943 181.239 233.471 152.242 233.07 151.994C231.249 150.89 229.89 148.085 229.274 146.606C229.093 146.171 228.544 146.057 228.196 146.372C227.701 146.827 226.985 147.436 226.141 147.978C224.273 149.176 221.897 149.377 221.897 149.377C222.58 148.467 223.724 146.532 223.724 146.532L221.241 148.802C220.511 149.558 219.346 150.736 218.891 151.044C218.275 151.472 218.007 150.355 217.947 149.612C217.686 146.312 218.094 143.768 221.83 141.204Z" fill="black"/>
<path d="M229.335 156.185C229.335 156.185 228.01 157.256 224.575 157.624L223.39 157.65C223.39 157.65 222.915 156.399 223.805 156.446C223.946 156.452 224.281 156.707 224.495 156.633C224.816 156.526 224.977 156.258 225.399 156.211C226.082 156.144 226.771 156.446 229.335 156.185Z" fill="#F7A3AC"/>
<path d="M229.334 156.185C229.334 156.185 228.129 158.882 225.832 159.123C225.156 159.197 224.614 158.855 224.313 158.567C224.085 158.347 224.005 158.086 224.045 157.845C224.065 157.704 224.219 157.416 224.373 157.322C224.494 157.249 224.467 157.048 224.527 156.914C224.735 156.432 225.23 156.673 225.23 156.673C227.292 156.994 226.937 157.389 229.334 156.185Z" fill="#F7A3AC"/>
<path d="M229.026 156.533C229.026 156.533 228.684 157.082 226.85 157.557C225.685 157.858 225.076 158.072 224.447 158.005L223.871 157.624C224.139 157.349 224.674 157.316 225.083 157.249C226.569 157.015 226.863 156.874 229.026 156.533Z" fill="white"/>
<path opacity="0.47" d="M224.16 153.916C223.564 153.628 222.788 153.849 222.942 154.344C223.37 155.723 226.081 154.752 226.081 154.752C226.081 154.752 224.85 154.25 224.16 153.916Z" fill="url(#paint8_linear)"/>
<path opacity="0.32" d="M229.722 165.763C227.507 166.018 226.938 163.936 226.938 163.936C226.938 163.936 227.614 164.05 229.783 162.53C231.302 161.466 232.534 159.96 233.625 157.898C233.625 157.892 233.17 165.362 229.722 165.763Z" fill="url(#paint9_linear)"/>
<path d="M233.598 155.241C236.644 155.368 237.119 153.52 237.046 151.459C236.985 149.765 235.466 148.728 234.181 149.364C233.431 149.732 233.009 150.615 233.016 151.345L233.598 155.241Z" fill="#FFD6C7"/>
<path opacity="0.34" d="M297.449 359.127C321.756 356.637 354.626 346.777 273.37 345.8C219.085 345.144 177.172 347.935 127.486 347.058C52.5431 345.74 20.3901 353.237 73.878 359.355C131.362 365.928 237.829 365.238 297.449 359.127Z" fill="#9BB0F9"/>
<path d="M251.499 299.086C251.499 299.086 252.229 299.467 253.682 301.275C254.465 302.245 254.056 303.691 256.922 304.213C259.178 304.622 261.306 307.486 260.483 310.686C259.693 313.772 258.528 314.709 257.879 318.785C257.23 322.861 256.507 327.346 252.45 328.725C248.386 330.111 249.805 325.726 249.431 320.92C249.136 317.132 249.129 311.583 247.77 308.845C246.264 305.813 244.765 302.352 244.765 302.352L251.499 299.086Z" fill="black"/>
<path d="M222.345 212.645C220.611 212.431 219.045 213.689 218.864 215.423C217.733 226.119 217.973 249.854 219.225 257.331C220.263 263.543 225.552 269.728 231.757 280.022C237.133 288.938 242.281 297.948 244.771 302.352C245.635 303.872 247.569 304.387 249.075 303.503L250.468 302.68C251.673 301.971 252.255 300.552 251.9 299.199C250.742 294.788 248.145 285.029 246.425 279.333C242.856 267.552 239.054 262.391 236.175 257.599C232.52 251.514 236.878 214.419 235.098 214.198L222.345 212.645Z" fill="url(#paint10_linear)"/>
<path d="M237.28 167.631C247.281 167.504 239.047 170.094 238.746 175.221C238.492 179.599 245.327 175.623 244.001 181.58C242.796 186.982 239.643 196.634 239.034 200.737C238.244 206.018 240.647 212.404 235.118 210.998C235.118 210.998 228.49 208.776 222.566 206.728C219.875 205.797 221.24 205.423 220.209 203.087C218.107 198.341 213.361 187.209 216.675 178.816C218.85 173.307 216.782 170.75 219.908 168.36C222.278 166.54 232.775 167.691 237.28 167.631Z" fill="white"/>
<path d="M241.545 167.939C250.268 169.284 253.896 181.527 257.016 179.398C263.496 174.967 267.318 166.326 270.223 162.162C270.679 161.513 271.904 160.924 272.587 161.326L276.931 165.683C278.491 166.941 276.001 174.298 273.202 178.106C266.468 187.27 262.458 194.352 259.466 194.111C250.964 193.421 240.106 183.742 235.513 184.131C229.274 184.659 224.983 183.528 226.175 178.06C226.181 178.066 233.117 166.64 241.545 167.939Z" fill="white"/>
<path d="M254.927 303.155C254.927 303.155 248.768 305.525 246.84 306.931C245.796 307.694 245.006 304.929 244.926 304.059C244.845 303.189 244.256 302.238 244.256 302.238C242.743 300.946 242.087 299.199 242.81 298.912L251.265 297.888C251.988 297.593 253.354 298.068 253.642 299.487L254.927 303.155Z" fill="white"/>
<path d="M235.7 304.207C235.7 304.207 235.981 305.766 236.738 307.955C237.146 309.133 239.388 311.569 239.743 312.058C241.082 313.919 242.1 315.418 240.239 318.156C238.451 320.793 237.045 321.282 235.051 324.903C233.062 328.524 230.867 332.494 226.582 332.427C222.291 332.353 225.103 328.705 226.375 324.06C227.379 320.392 229.247 315.171 228.885 312.132C228.49 308.772 227.479 305.452 227.479 305.452L235.7 304.207Z" fill="black"/>
<path d="M226.731 214.057C222.694 224.03 216.388 246.916 215.531 254.446C214.821 260.705 218.195 268.108 221.328 279.708C224.04 289.761 226.503 299.835 227.688 304.755C228.096 306.455 229.817 307.486 231.511 307.044L233.077 306.636C234.429 306.288 235.387 305.083 235.413 303.691C235.514 299.132 235.708 289.032 235.621 283.088C235.44 270.778 233.204 264.774 231.758 259.373C229.917 252.512 227.387 212.437 226.731 214.057Z" fill="#FF939E"/>
<path d="M237.14 308.624C237.14 308.624 232.508 309.816 228.398 309.119C227.126 308.905 227.213 307.305 227.373 306.449C227.534 305.592 227.226 304.514 227.226 304.514C226.128 302.854 225.974 301 226.751 300.913L235.112 301.984C236.431 302.212 237.12 303.001 237.013 304.447L237.14 308.624Z" fill="white"/>
<path fill-rule="evenodd" clip-rule="evenodd" d="M241.779 207.866C239.436 203.127 238.74 201.774 238.74 201.774C230.164 205.617 220.203 203.093 220.203 203.093L219.641 207.082C219.641 207.082 216.18 227.069 214.941 241.26C214.909 241.628 214.876 242 214.842 242.374C214.285 248.582 213.659 255.565 216.254 262.251C216.255 262.254 216.256 262.257 216.257 262.26C216.838 264.74 217.68 267.468 218.631 270.55C219.479 273.296 220.414 276.323 221.328 279.708C224.039 289.761 226.503 299.835 227.688 304.755C228.096 306.455 229.816 307.486 231.51 307.044L233.077 306.636C234.429 306.288 235.386 305.083 235.413 303.691C235.513 299.132 235.707 289.032 235.62 283.088C235.481 273.567 234.111 267.819 232.829 263.203C235.44 261.871 237.252 260.304 237.14 259.178C236.432 252.076 240.196 242.893 241.836 238.892C241.901 238.733 241.962 238.583 242.02 238.442C248.065 223.616 246.545 218.046 241.779 207.866Z" fill="url(#paint11_linear)"/>
<path d="M225.07 167.33C225.07 167.33 227.299 166.473 238.7 167.637L225.05 176.774L225.07 167.33Z" fill="#FFD6C7"/>
<path d="M219.553 148.454C218.971 150.883 218.275 153.313 217.511 155.709C216.748 158.106 215.898 160.482 214.941 162.811C213.977 165.141 212.906 167.423 211.62 169.592C210.315 171.727 208.842 173.842 206.787 175.342C208.909 173.929 210.496 171.868 211.902 169.766C213.294 167.637 214.479 165.382 215.55 163.079C216.621 160.776 217.578 158.42 218.455 156.031C219.332 153.641 220.136 151.238 220.845 148.775L219.553 148.454Z" fill="black"/>
<path d="M232.909 145.87C232.694 147.329 232.607 148.742 232.587 150.181C232.567 151.613 232.641 153.046 232.815 154.478C232.996 155.904 233.283 157.323 233.732 158.695C234.18 160.067 234.796 161.399 235.613 162.611L236.336 162.129C235.606 160.984 235.064 159.719 234.669 158.407C234.281 157.089 234.04 155.73 233.906 154.358C233.779 152.985 233.745 151.6 233.799 150.214C233.852 148.842 233.986 147.436 234.221 146.111L232.909 145.87Z" fill="black"/>
<path d="M229.1 145.147C228.899 145.535 228.638 145.93 228.363 146.305C228.089 146.68 227.781 147.035 227.453 147.363C227.125 147.697 226.77 148.005 226.395 148.286C226.02 148.574 225.605 148.802 225.184 149.023C225.625 148.855 226.074 148.674 226.489 148.427C226.904 148.186 227.306 147.918 227.681 147.61C228.055 147.309 228.417 146.981 228.752 146.626C229.086 146.271 229.394 145.903 229.689 145.482L229.1 145.147Z" fill="black"/>
<path d="M272.78 160.783C272.392 158.702 274.923 154.083 275.947 152.905C276.964 151.727 278.41 150.335 278.638 151.332C278.906 152.503 277.922 153.025 277.466 154.377C277.292 154.9 276.917 155.796 276.944 156.573C276.971 157.416 277.46 159.237 277.065 159.525L275.512 161.158C274.461 161.908 273.008 161.981 272.78 160.783Z" fill="#FFD6C7"/>
<path d="M102.811 256.93C101.238 262.539 95.7617 267.693 89.0406 276.542C82.2726 285.445 75.7724 294.494 73.7775 297.285C73.4361 297.767 72.7666 297.868 72.2913 297.52L69.5935 295.512C68.5559 294.742 68.1609 293.376 68.6228 292.172C70.129 288.236 73.4762 279.521 75.6251 274.454C80.0702 263.978 83.5847 258.349 86.711 254.226C90.674 248.991 90.8481 215.731 92.5016 215.711C92.5083 215.704 104.705 250.183 102.811 256.93Z" fill="#FFD6C7"/>
<path opacity="0.1" d="M102.811 256.93C101.238 262.539 95.7617 267.693 89.0406 276.542C82.2726 285.445 75.7724 294.494 73.7775 297.285C73.4361 297.767 72.7666 297.868 72.2913 297.52L69.5935 295.512C68.5559 294.742 68.1609 293.376 68.6228 292.172C70.129 288.236 73.4762 279.521 75.6251 274.454C80.0702 263.978 83.5847 258.349 86.711 254.226C90.674 248.991 90.8481 215.731 92.5016 215.711C92.5083 215.704 104.705 250.183 102.811 256.93Z" fill="black"/>
<path d="M92.3607 184.659C92.3607 184.659 102.978 199.177 107.456 196.192C111.928 193.207 114.091 172.048 114.091 172.048L109.465 170.027C108.086 169.966 106.827 169.786 106.526 171.131L103.775 181.573C103.674 181.941 103.172 181.995 103.005 181.653L99.2425 174.023C97.6224 170.75 95.2325 170.482 92.6753 169.732L91.082 169.264L92.3607 184.659Z" fill="#8E30E8"/>
<path d="M81.5563 167.865C80.4316 170.777 74.7347 168.956 74.1791 176.058C73.9515 179.017 102.61 175.402 96.4646 172.584C93.258 171.112 91.8455 170.275 91.0154 169.853C91.1225 167.939 91.2564 163.193 91.4907 162.651C91.658 162.276 92.6622 161.526 92.3007 161.339L83.5913 155.998C83.598 156.004 82.1454 166.346 81.5563 167.865Z" fill="#FFD6C7"/>
<path d="M81.1611 165.054C75.9863 166.908 72.3312 169.585 69.6267 172.718C67.3573 175.342 73.0074 174.398 73.5831 178.267C74.3864 183.655 76.7897 193.347 77.0976 197.417C77.4993 202.658 74.6876 208.749 80.2105 207.765C80.2105 207.765 83.5108 210.403 89.4688 208.816C92.1733 208.093 94.5565 203.602 95.4 201.058C97.0066 196.212 101.519 183.622 100.193 177.43C99.1153 172.396 96.2502 169.873 91.0687 167.503C91.0687 167.503 90.9148 170.06 89.2278 169.893C86.1751 169.592 82.2054 164.679 81.1611 165.054Z" fill="#8E30E8"/>
<path d="M112.076 175.201C113.428 174.418 114.553 173.367 114.479 172.417L113.736 168.929C113.556 167.296 112.384 166.111 111.474 166.064L108.97 166.198C107.142 167.731 106.285 167.885 105.944 169.05C105.737 169.759 105.904 170.964 106.339 171.413C107.042 172.136 107.912 173.454 108.95 175.047C109.679 176.152 110.543 176.091 112.076 175.201Z" fill="#FFD6C7"/>
<path d="M110.703 169.478L111.326 168.635C111.781 168.012 111.882 168.441 111.152 167.905C111.152 167.905 109.632 166.707 108.909 165.783C108.186 164.853 107.068 163.093 106.212 163.708C105.355 164.324 105.315 165.783 106.305 167.022C107.296 168.26 108.702 169.358 108.702 169.358C109.432 169.893 110.248 170.101 110.703 169.478Z" fill="#FFD6C7"/>
<path d="M81.3754 152.704C81.3754 152.704 81.7771 156.627 83.8055 158.173C87.5878 161.071 88.7928 162.062 91.4973 161.981C93.9876 161.908 97.6092 162.222 98.2452 160.435C98.7674 158.969 98.995 156.573 99.0954 154.772C99.1021 154.659 100.655 153.434 100.474 153.046C99.8987 151.807 97.9707 150.254 97.9975 149.277C97.9975 149.217 98.5799 147.088 98.5264 146.546C97.8636 139.893 97.9908 145.803 97.3281 142.604C96.7791 139.96 93.76 140.247 91.35 139.792C85.8673 138.768 82.6139 142.583 80.1771 144.752C79.7554 145.127 84.4682 148.481 83.9461 148.681C81.3553 149.672 80.4315 150.134 81.4424 152.189" fill="#FFD6C7"/>
<path d="M95.8428 140.134C92.9843 138.654 88.6062 137.898 85.1921 138.916C78.5714 140.877 76.2217 149.532 79.9973 156.493C80.6801 157.758 83.3646 158.481 83.8064 157.296C83.8064 157.296 85.9553 155.924 86.4908 154.103C87.2071 151.66 85.9151 149.585 86.223 149.304C86.223 149.304 86.9326 150.134 87.6422 151.827C87.6422 151.827 90.079 150.127 90.9024 148.775C91.5116 147.778 91.8061 146.138 91.8061 146.138C91.8329 148.2 90.9961 150.683 90.9961 150.683C94.2094 148.447 98.7883 148.768 98.9691 148.226C100.027 145.074 99.7657 142.155 95.8428 140.134Z" fill="url(#paint12_linear)"/>
<path d="M93.111 224.212C95.7419 233.803 104.337 256.327 104.438 263.336C104.491 267.117 100.635 273.677 96.5117 283.999C92.3813 294.333 88.5454 304.729 87.3471 308.008C87.1329 308.591 86.4836 308.885 85.9078 308.658L82.8218 307.46C81.6168 306.991 80.8737 305.786 80.9942 304.501C81.3959 300.304 82.3063 291.013 83.0226 285.558C84.5154 274.273 87.2199 269.005 89.1278 264.199C91.5579 258.094 92.6825 222.652 93.111 224.212Z" fill="#FFD6C7"/>
<path d="M78.0889 196.152C78.0889 196.152 77.1048 197.417 73.9852 202.819C68.1277 211.835 66.1328 216.507 73.6572 228.348C75.9132 231.896 82.4603 241.655 86.0418 250.249C86.6175 251.635 85.7271 254.721 84.9104 256.521C83.4979 259.66 104.759 266.756 105 264.56C105.763 257.659 103.367 246.4 101.633 237.498C99.5175 226.621 94.1754 214.004 92.716 209.258C92.3144 207.959 95.2197 201.574 95.2197 201.574C95.2197 201.574 91.0759 204.365 78.0889 196.152Z" fill="#0E3C82"/>
<path d="M84.9507 305.197C83.7926 305.974 84.6696 308.464 82.8956 306.723C82.0521 305.893 81.222 303.263 80.3049 304.829C79.5484 306.121 79.8563 307.701 78.243 309.655C76.8573 311.342 77.7008 313.437 79.0396 314.903C81.396 317.473 80.6061 318.524 81.4161 320.954C82.5676 324.401 84.9039 326.322 90.0719 326.583C95.24 326.844 94.0752 323.638 93.4593 322.52C91.8794 319.662 91.1497 315.385 89.8175 311.114C89.3088 309.488 89.3824 306.978 88.6728 305.606C88.405 305.07 85.4595 304.856 84.9507 305.197Z" fill="black"/>
<path d="M90.0985 183.448C90.0985 183.448 88.2777 186.935 85.7271 191.607C83.0561 196.507 78.8587 202.049 75.3174 202.049C70.4707 202.049 69.5803 196.145 68.6097 185.295C68.1812 180.509 67.4984 176.399 69.3527 173.14C70.5042 171.118 75.2906 167.858 75.2906 167.858L83.3908 171.687L90.0985 183.448Z" fill="#8E30E8"/>
<path d="M74.5139 315.733C74.9959 314.18 73.4696 310.552 73.5432 307.205C73.6035 304.447 73.6637 302.131 74.534 300.585L75.6051 298.684C75.98 298.021 75.913 297.171 75.3775 296.629C75.0494 296.301 74.6344 296.054 74.1725 295.926C74.1725 295.926 69.9885 295.17 69.0982 291.529C68.8103 290.351 67.2974 291.85 65.6773 292.948C64.2381 293.925 62.7117 294.387 61.8749 295.491C61.2524 296.315 61.1453 297.419 61.6072 298.343C62.6716 300.458 64.5192 304.414 64.7937 306.904C65.2623 311.114 70.6914 316.683 72.3516 317.025C73.2955 317.205 74.2327 316.65 74.5139 315.733Z" fill="black"/>
<path d="M89.616 169.88C89.616 169.88 86.6704 172.45 84.7692 171.988C82.868 171.527 79.3535 165.636 79.3535 165.636L82.5266 163.039L89.616 169.88Z" fill="#EBF1F5"/>
<path d="M89.6172 169.88L91.1703 166.613L93.3326 168.628C93.3326 168.628 93.7476 171.466 92.3485 171.098C90.9561 170.73 89.6172 169.88 89.6172 169.88Z" fill="#EBF1F5"/>
<path opacity="0.13" d="M80.5586 199.137C80.5586 199.137 82.038 197.363 84.4815 193.742C86.2354 191.138 89.0537 187.176 89.0537 187.176C89.0537 187.176 90.0445 188.996 88.8261 190.904C83.3568 199.485 80.5586 199.137 80.5586 199.137Z" fill="black"/>
<path opacity="0.13" d="M107.451 196.192C107.451 196.192 102.885 197.29 99.7722 185.924L98.3262 191.647C98.3262 191.647 104.211 198.261 107.451 196.192Z" fill="black"/>
<path d="M90.9146 187.865C89.1138 188.294 88.1164 188.508 87.3934 187.557C87.3934 187.557 86.2821 186.085 85.2445 183.976C84.2069 181.868 84.555 180.83 84.9901 179.425C85.298 178.434 86.9716 177.945 86.9716 177.945C89.9038 177.296 91.2962 176.995 92.6417 177.403C93.5321 177.671 93.9538 178.682 93.8066 180.235C93.6526 181.881 93.8936 183.267 93.5923 184.967C93.2978 186.594 92.7288 187.437 90.9146 187.865Z" fill="#FFD6C7"/>
<path d="M87.6616 181.158L86.5771 180.777C85.7805 180.496 85.9545 180.944 86.2825 180.007C86.2825 180.007 86.9252 177.979 87.0055 176.694C87.0859 175.409 87.0122 173.113 88.177 173.139C89.3352 173.166 90.2724 174.465 90.1385 176.205C90.0046 177.945 89.4088 179.806 89.4088 179.806C89.0808 180.75 88.4649 181.439 87.6616 181.158Z" fill="#FFD6C7"/>
<path opacity="0.5" d="M94.9387 161.031C93.6601 160.857 89.6904 159.846 88.5322 158.969L91.4978 162.657C91.4978 162.657 91.7857 161.968 92.5421 161.934C94.1354 161.861 97.0073 162.236 98.0181 160.87C98.0181 160.87 97.6767 161.399 94.9387 161.031Z" fill="url(#paint13_linear)"/>
<path d="M87.8159 151.292C88.164 152.135 88.3916 152.456 88.8201 154.92C89.2887 157.584 91.2233 159.003 91.2233 159.003C87.923 159.511 86.8051 159.806 83.893 160.241C81.4697 160.603 76.7568 159.478 77.3593 156.988C77.9953 154.384 77.9886 154.023 78.1827 149.003C78.3903 143.628 85.4126 148.474 87.1866 150.335C87.4678 150.609 87.6686 150.937 87.8159 151.292Z" fill="url(#paint14_linear)"/>
<path d="M89.5963 153.019C87.3135 154.143 85.7605 153.494 85.1647 151.124C84.5956 148.855 85.7672 147.684 87.3202 147.537C88.2708 147.45 89.4424 147.791 89.429 148.674L89.5963 153.019Z" fill="#FFD6C7"/>
<path d="M92.1202 150.294C95.4071 148.715 96.1502 145.515 96.1502 145.515C96.1502 145.515 97.6497 146.753 96.8531 148.701C96.8464 148.701 89.9646 151.325 92.1202 150.294Z" fill="#FFD6C7"/>
<path d="M94.959 154.986C94.959 154.986 96.6727 156.332 97.8175 156.599C98.0183 156.646 98.2861 156.573 98.4133 156.412C98.6409 156.124 98.835 155.495 98.6944 155.455C98.5539 155.415 98.3999 155.749 98.2325 155.756C98.0652 155.769 97.9781 155.448 97.7171 155.375C97.4493 155.294 97.2485 155.475 96.6326 155.455C96.1707 155.448 95.7556 155.247 94.959 154.986Z" fill="#F7A3AC"/>
<path d="M94.959 154.986C94.959 154.986 96.3849 157.383 97.9514 157.262C98.902 157.189 98.2928 156.238 98.2928 156.238C98.2928 156.238 96.8401 156.138 94.959 154.986Z" fill="#F7A3AC"/>
<path opacity="0.5" d="M99.0287 154.605L97.6162 153.989C97.6162 153.989 99.2496 153.675 100.14 153.434C100.147 153.434 99.504 154.223 99.0287 154.605Z" fill="url(#paint15_linear)"/>
<path d="M113.489 125.522C123.238 125.522 131.142 117.619 131.142 107.871C131.142 98.1223 123.238 90.2197 113.489 90.2197C103.739 90.2197 95.8359 98.1223 95.8359 107.871C95.8359 117.619 103.739 125.522 113.489 125.522Z" fill="url(#paint16_linear)"/>
<path d="M113.489 108.848C116.439 108.848 118.831 106.457 118.831 103.507C118.831 100.557 116.439 98.165 113.489 98.165C110.538 98.165 108.146 100.557 108.146 103.507C108.146 106.457 110.538 108.848 113.489 108.848Z" fill="white"/>
<path d="M113.488 111.124C108.515 111.124 104.096 113.533 101.352 117.248C104.096 120.963 108.515 123.373 113.488 123.373C118.462 123.373 122.881 120.963 125.625 117.248C122.874 113.533 118.462 111.124 113.488 111.124Z" fill="white"/>
<path d="M298.413 116.84C305.778 116.84 311.748 110.87 311.748 103.506C311.748 96.1425 305.778 90.1729 298.413 90.1729C291.048 90.1729 285.078 96.1425 285.078 103.506C285.078 110.87 291.048 116.84 298.413 116.84Z" fill="url(#paint17_linear)"/>
<path d="M298.414 104.249C300.643 104.249 302.45 102.442 302.45 100.213C302.45 97.9838 300.643 96.1768 298.414 96.1768C296.184 96.1768 294.377 97.9838 294.377 100.213C294.377 102.442 296.184 104.249 298.414 104.249Z" fill="white"/>
<path d="M298.413 105.963C294.651 105.963 291.317 107.784 289.242 110.595C291.317 113.399 294.651 115.227 298.413 115.227C302.176 115.227 305.509 113.406 307.585 110.595C305.503 107.784 302.169 105.963 298.413 105.963Z" fill="white"/>
<path d="M90.9961 69.396L106.714 95.9494" stroke="#353C82" stroke-width="2" stroke-miterlimit="10"/>
<path d="M128.685 106.465L164.017 79.3091" stroke="#353C82" stroke-width="2" stroke-miterlimit="10"/>
<path d="M173.289 88.9142C181.814 88.9142 188.726 82.0035 188.726 73.4788C188.726 64.9541 181.814 58.0435 173.289 58.0435C164.763 58.0435 157.852 64.9541 157.852 73.4788C157.852 82.0035 164.763 88.9142 173.289 88.9142Z" fill="url(#paint18_linear)"/>
<path d="M173.29 74.3359C175.87 74.3359 177.963 72.2441 177.963 69.6638C177.963 67.0835 175.87 64.9917 173.29 64.9917C170.709 64.9917 168.617 67.0835 168.617 69.6638C168.617 72.2441 170.709 74.3359 173.29 74.3359Z" fill="white"/>
<path d="M173.289 76.3169C168.938 76.3169 165.082 78.4254 162.679 81.6718C165.082 84.9181 168.938 87.0266 173.289 87.0266C177.641 87.0266 181.497 84.9181 183.9 81.6718C181.503 78.4254 177.641 76.3169 173.289 76.3169Z" fill="white"/>
<path d="M221.649 62.3476C228.06 62.3476 233.257 57.1511 233.257 50.7409C233.257 44.3308 228.06 39.1343 221.649 39.1343C215.238 39.1343 210.041 44.3308 210.041 50.7409C210.041 57.1511 215.238 62.3476 221.649 62.3476Z" fill="url(#paint19_linear)"/>
<path d="M221.649 51.3837C223.59 51.3837 225.164 49.8104 225.164 47.8696C225.164 45.9288 223.59 44.3555 221.649 44.3555C219.708 44.3555 218.135 45.9288 218.135 47.8696C218.135 49.8104 219.708 51.3837 221.649 51.3837Z" fill="white"/>
<path d="M221.65 52.876C218.376 52.876 215.477 54.4624 213.67 56.9055C215.477 59.3487 218.376 60.935 221.65 60.935C224.923 60.935 227.822 59.3487 229.629 56.9055C227.822 54.4624 224.923 52.876 221.65 52.876Z" fill="white"/>
<path d="M91.0763 72.08C105.736 72.08 117.619 60.1976 117.619 45.54C117.619 30.8824 105.736 19 91.0763 19C76.417 19 64.5332 30.8824 64.5332 45.54C64.5332 60.1976 76.417 72.08 91.0763 72.08Z" fill="url(#paint20_linear)"/>
<path d="M91.0762 47.006C95.5128 47.006 99.1094 43.4098 99.1094 38.9737C99.1094 34.5376 95.5128 30.9414 91.0762 30.9414C86.6396 30.9414 83.043 34.5376 83.043 38.9737C83.043 43.4098 86.6396 47.006 91.0762 47.006Z" fill="white"/>
<path d="M91.076 50.4194C83.5917 50.4194 76.9576 54.0474 72.8271 59.6298C76.9576 65.2189 83.5917 68.8401 91.076 68.8401C98.5602 68.8401 105.194 65.2122 109.325 59.6298C105.194 54.0474 98.5602 50.4194 91.076 50.4194Z" fill="white"/>
<path opacity="0.4" d="M301.947 153.133C301.947 153.133 301.693 152.979 301.552 152.905C301.111 152.671 301.01 152.53 300.528 152.202C299.865 151.754 299.537 152.825 300.106 153.166C300.575 153.447 301.265 153.293 301.947 153.133Z" fill="url(#paint21_linear)"/>
<path opacity="0.15" d="M303.997 156.419C303.997 156.419 303.341 156.553 302.089 156.493C301.46 156.459 301.158 156.472 301.158 156.472C301.158 156.472 301.112 157.008 302.196 157.062C303.247 157.108 303.997 156.419 303.997 156.419Z" fill="url(#paint22_linear)"/>
<path opacity="0.74" d="M305.081 154.357C305.081 154.357 303.883 155.676 301.767 155.756C300.796 155.79 300.234 155.582 300.12 155.355C300.027 155.161 300.341 154.839 301.312 154.813C303.293 154.746 303.675 154.98 305.081 154.357Z" fill="url(#paint23_linear)"/>
<path opacity="0.08" d="M145.668 224.714L149.785 222.184L146.665 248.483C146.659 248.483 147.616 230.377 145.668 224.714Z" fill="black"/>
<path opacity="0.13" d="M235.065 286.335L226.817 272.68L235.112 301.977L235.065 286.335Z" fill="black"/>
<path opacity="0.08" d="M163.87 182.169C163.87 182.169 165.075 178.883 163.984 175.871C163.984 175.871 174.494 184.445 179.843 184.358C179.843 184.358 178.31 186.453 173.222 185.034C165.022 182.745 163.87 182.169 163.87 182.169Z" fill="black"/>
<path opacity="0.27" d="M75.7588 120.327H60.489C59.7459 120.327 59.1367 119.718 59.1367 118.975V115.628C59.1367 114.885 59.7459 114.276 60.489 114.276H75.7588C76.5019 114.276 77.1111 114.885 77.1111 115.628V118.975C77.1111 119.718 76.5019 120.327 75.7588 120.327Z" fill="#8CA3E5"/>
<path opacity="0.27" d="M170.31 286.375H155.04C154.297 286.375 153.688 285.766 153.688 285.023V281.676C153.688 280.933 154.297 280.324 155.04 280.324H170.31C171.053 280.324 171.662 280.933 171.662 281.676V285.023C171.662 285.766 171.053 286.375 170.31 286.375Z" fill="#8CA3E5"/>
<path opacity="0.27" d="M179.488 275.698H164.218C163.475 275.698 162.866 275.089 162.866 274.346V271C162.866 270.257 163.475 269.647 164.218 269.647H179.488C180.231 269.647 180.841 270.257 180.841 271V274.346C180.841 275.096 180.231 275.698 179.488 275.698Z" fill="#8CA3E5"/>
<path opacity="0.27" d="M356.815 223.134H341.546C340.803 223.134 340.193 222.525 340.193 221.782V218.435C340.193 217.692 340.803 217.083 341.546 217.083H356.815C357.558 217.083 358.168 217.692 358.168 218.435V221.782C358.168 222.525 357.558 223.134 356.815 223.134Z" fill="#8CA3E5"/>
</g>
<defs>
<filter id="filter0_d" x="22.3359" y="0" width="360.832" height="395.004" filterUnits="userSpaceOnUse" color-interpolation-filters="sRGB">
<feFlood flood-opacity="0" result="BackgroundImageFix"/>
<feColorMatrix in="SourceAlpha" type="matrix" values="0 0 0 0 0 0 0 0 0 0 0 0 0 0 0 0 0 0 127 0"/>
<feOffset dy="6"/>
<feGaussianBlur stdDeviation="12.5"/>
<feColorMatrix type="matrix" values="0 0 0 0 0.00576389 0 0 0 0 0.362433 0 0 0 0 0.691667 0 0 0 0.2 0"/>
<feBlend mode="normal" in2="BackgroundImageFix" result="effect1_dropShadow"/>
<feBlend mode="normal" in="SourceGraphic" in2="effect1_dropShadow" result="shape"/>
</filter>
<linearGradient id="paint0_linear" x1="201.652" y1="-106.433" x2="-77.2781" y2="199.766" gradientUnits="userSpaceOnUse">
<stop stop-color="#ECF3FE"/>
<stop offset="1" stop-color="#C6DAFD"/>
</linearGradient>
<linearGradient id="paint1_linear" x1="212.611" y1="79.791" x2="259.972" y2="84.3639" gradientUnits="userSpaceOnUse">
<stop stop-color="#004CE0"/>
<stop offset="1" stop-color="#1DA6F3"/>
</linearGradient>
<linearGradient id="paint2_linear" x1="323.732" y1="249.065" x2="278.286" y2="250.84" gradientUnits="userSpaceOnUse">
<stop stop-color="#7763ED"/>
<stop offset="1" stop-color="#462BD9"/>
</linearGradient>
<linearGradient id="paint3_linear" x1="303.746" y1="160.967" x2="307.828" y2="161.592" gradientUnits="userSpaceOnUse">
<stop stop-color="#FFC5A4"/>
<stop offset="0.0887" stop-color="#FFBDA3"/>
<stop offset="0.4219" stop-color="#FFA6A0"/>
<stop offset="0.7336" stop-color="#FF989F"/>
<stop offset="1" stop-color="#FF939E"/>
</linearGradient>
<linearGradient id="paint4_linear" x1="106.85" y1="165.219" x2="109.119" y2="164.472" gradientUnits="userSpaceOnUse">
<stop stop-color="#FFC5A4"/>
<stop offset="0.0887" stop-color="#FFBDA3"/>
<stop offset="0.4219" stop-color="#FFA6A0"/>
<stop offset="0.7336" stop-color="#FF989F"/>
<stop offset="1" stop-color="#FF939E"/>
</linearGradient>
<linearGradient id="paint5_linear" x1="151.231" y1="153.484" x2="154.068" y2="153.595" gradientUnits="userSpaceOnUse">
<stop stop-color="#FFC5A4"/>
<stop offset="0.0887" stop-color="#FFBDA3"/>
<stop offset="0.4219" stop-color="#FFA6A0"/>
<stop offset="0.7336" stop-color="#FF989F"/>
<stop offset="1" stop-color="#FF939E"/>
</linearGradient>
<linearGradient id="paint6_linear" x1="151.392" y1="152.589" x2="154.112" y2="150.506" gradientUnits="userSpaceOnUse">
<stop stop-color="#FFC5A4"/>
<stop offset="0.0887" stop-color="#FFBDA3"/>
<stop offset="0.4219" stop-color="#FFA6A0"/>
<stop offset="0.7336" stop-color="#FF989F"/>
<stop offset="1" stop-color="#FF939E"/>
</linearGradient>
<linearGradient id="paint7_linear" x1="103.576" y1="174.058" x2="199.332" y2="174.058" gradientUnits="userSpaceOnUse">
<stop stop-color="#00C5E0"/>
<stop offset="1" stop-color="#00E0D3"/>
</linearGradient>
<linearGradient id="paint8_linear" x1="226.029" y1="155.43" x2="222.986" y2="154.482" gradientUnits="userSpaceOnUse">
<stop stop-color="#FFC5A4"/>
<stop offset="0.0887" stop-color="#FFBDA3"/>
<stop offset="0.4219" stop-color="#FFA6A0"/>
<stop offset="0.7336" stop-color="#FF989F"/>
<stop offset="1" stop-color="#FF939E"/>
</linearGradient>
<linearGradient id="paint9_linear" x1="232.928" y1="162.389" x2="227.805" y2="161.08" gradientUnits="userSpaceOnUse">
<stop stop-color="#FFC5A4"/>
<stop offset="0.0887" stop-color="#FFBDA3"/>
<stop offset="0.4219" stop-color="#FFA6A0"/>
<stop offset="0.7336" stop-color="#FF989F"/>
<stop offset="1" stop-color="#FF939E"/>
</linearGradient>
<linearGradient id="paint10_linear" x1="218.137" y1="212.621" x2="255.226" y2="213.949" gradientUnits="userSpaceOnUse">
<stop stop-color="#004CE0"/>
<stop offset="1" stop-color="#1DA6F3"/>
</linearGradient>
<linearGradient id="paint11_linear" x1="214.347" y1="201.774" x2="249.005" y2="202.779" gradientUnits="userSpaceOnUse">
<stop stop-color="#004CE0"/>
<stop offset="1" stop-color="#1DA6F3"/>
</linearGradient>
<linearGradient id="paint12_linear" x1="99.5028" y1="148.173" x2="82.7849" y2="156.935" gradientUnits="userSpaceOnUse">
<stop stop-color="#FFC5A4"/>
<stop offset="1" stop-color="#FF939E"/>
</linearGradient>
<linearGradient id="paint13_linear" x1="88.5324" y1="160.812" x2="98.0167" y2="160.812" gradientUnits="userSpaceOnUse">
<stop stop-color="#FFC5A4"/>
<stop offset="0.0887" stop-color="#FFBDA3"/>
<stop offset="0.4219" stop-color="#FFA6A0"/>
<stop offset="0.7336" stop-color="#FF989F"/>
<stop offset="1" stop-color="#FF939E"/>
</linearGradient>
<linearGradient id="paint14_linear" x1="91.2233" y1="153.426" x2="79.9452" y2="158.881" gradientUnits="userSpaceOnUse">
<stop stop-color="#FFC5A4"/>
<stop offset="1" stop-color="#FF939E"/>
</linearGradient>
<linearGradient id="paint15_linear" x1="99.6422" y1="154.207" x2="97.9202" y2="153.275" gradientUnits="userSpaceOnUse">
<stop stop-color="#FFC5A4"/>
<stop offset="0.0887" stop-color="#FFBDA3"/>
<stop offset="0.4219" stop-color="#FFA6A0"/>
<stop offset="0.7336" stop-color="#FF989F"/>
<stop offset="1" stop-color="#FF939E"/>
</linearGradient>
<linearGradient id="paint16_linear" x1="131.142" y1="108.074" x2="96.0715" y2="110.948" gradientUnits="userSpaceOnUse">
<stop stop-color="#7763ED"/>
<stop offset="1" stop-color="#462BD9"/>
</linearGradient>
<linearGradient id="paint17_linear" x1="285.078" y1="90.1729" x2="314.053" y2="92.9705" gradientUnits="userSpaceOnUse">
<stop stop-color="#004CE0"/>
<stop offset="1" stop-color="#1DA6F3"/>
</linearGradient>
<linearGradient id="paint18_linear" x1="188.726" y1="73.4788" x2="163.601" y2="85.4976" gradientUnits="userSpaceOnUse">
<stop stop-color="#FFC5A4"/>
<stop offset="1" stop-color="#FF939E"/>
</linearGradient>
<linearGradient id="paint19_linear" x1="233.257" y1="50.7409" x2="214.364" y2="59.7784" gradientUnits="userSpaceOnUse">
<stop stop-color="#FFC5A4"/>
<stop offset="1" stop-color="#FF939E"/>
</linearGradient>
<linearGradient id="paint20_linear" x1="64.5332" y1="19" x2="122.207" y2="24.5687" gradientUnits="userSpaceOnUse">
<stop stop-color="#004CE0"/>
<stop offset="1" stop-color="#1DA6F3"/>
</linearGradient>
<linearGradient id="paint21_linear" x1="348.265" y1="168.297" x2="345.996" y2="167.55" gradientUnits="userSpaceOnUse">
<stop stop-color="#FFC5A4"/>
<stop offset="0.0887" stop-color="#FFBDA3"/>
<stop offset="0.4219" stop-color="#FFA6A0"/>
<stop offset="0.7336" stop-color="#FF989F"/>
<stop offset="1" stop-color="#FF939E"/>
</linearGradient>
<linearGradient id="paint22_linear" x1="304.259" y1="156.45" x2="301.422" y2="156.562" gradientUnits="userSpaceOnUse">
<stop stop-color="#FFC5A4"/>
<stop offset="0.0887" stop-color="#FFBDA3"/>
<stop offset="0.4219" stop-color="#FFA6A0"/>
<stop offset="0.7336" stop-color="#FF989F"/>
<stop offset="1" stop-color="#FF939E"/>
</linearGradient>
<linearGradient id="paint23_linear" x1="303.634" y1="156.055" x2="300.913" y2="153.972" gradientUnits="userSpaceOnUse">
<stop stop-color="#FFC5A4"/>
<stop offset="0.0887" stop-color="#FFBDA3"/>
<stop offset="0.4219" stop-color="#FFA6A0"/>
<stop offset="0.7336" stop-color="#FF989F"/>
<stop offset="1" stop-color="#FF939E"/>
</linearGradient>
</defs>
</svg>
